<?xml version="1.0" encoding="UTF-8"?>
<svg xmlns:ayah="https://quranpedia.net" xmlns="http://www.w3.org/2000/svg" xmlns:xlink="http://www.w3.org/1999/xlink" version="1.1" id="Layer_1" x="0px" y="0px" viewBox="0 0 235 235" style="enable-background:new 0 0 235 235;" xml:space="preserve">
<style type="text/css">
	.st0{fill-rule:evenodd;clip-rule:evenodd;fill:#D1B67B;}
	.st1{fill:#231F20;}
</style>
<polygon id="verse-31144" class="ayahPolygon" number="001001" ayah="1" surah="1" points="207.5,44.5 27.4,44.5 27.4,76.5 207.5,76.5 "/>
<polygon id="verse-31145" class="ayahPolygon" number="001002" ayah="2" surah="1" points="229.7,76.4 123.6,76.4 123.6,105.1   229.7,105.1 "/>
<polygon id="verse-31146" class="ayahPolygon" number="001003" ayah="3" surah="1" points="123.7,76.4 6.1,76.4 6.1,105.1 123.7,105.1   "/>
<polygon id="verse-31147" class="ayahPolygon" number="001004" ayah="4" surah="1" points="229.6,104.5 52.1,104.5 52.1,132 229.6,132   "/>
<polygon id="verse-31148" class="ayahPolygon" number="001005" ayah="5" surah="1" points="52.1,105.2 5.1,105.2 5.1,132.2 228.1,132.2 228.1,162.2 110.1,162.2 110.1,132.2 52.1,132.2 "/>
<polygon id="verse-31149" class="ayahPolygon" number="001006" ayah="6" surah="1" points="109.7,132.3 11.7,132.3 11.7,162.3   206.7,162.3 206.7,192.3 150.7,192.3 150.7,162.3 109.7,162.3 "/>
<polygon id="verse-311450" class="ayahPolygon" number="001007" ayah="7" surah="1" points="150.2,162.3 28.2,162.3 28.2,192.3   169.2,192.3 169.2,222.3 67.2,222.3 67.2,192.3 150.2,192.3 "/>

<g transform="matrix(1.33 0 0 -1.33 -136 482)">
	<g id="ayah_markers">
		<g transform="translate(154.47 208.83) scale(0.01 -0.01)"><path d="m1248,4q-42 -7 -66.5 -15t-43.5 -19.5 -38.5 -29 -52.5 -43.5q-68 -56 -127.5 -86t-116.5 -49q-39 -13 -64.5 -29t-44.5 -37 -34.5 -47 -34.5 -59q-19,33 -34.5,59t-34.5,47 -44.5,37 -64.5,29q-57,19 -116.5,49t-127.5,86q-33,26 -52.5,43.5t-38.5,29 -44,19.5 -68,15q29,34,59.5,57.5t65.5,30.5q-48,71 -73,154.5t-25,174.5q0,93,25,176t73,154q-35,8 -65.5,31t-59.5,57q43,8,68,16t44,19.5,38.5,29,52.5,44.5q68,53,127.5,84t116.5,51q39,12,64.5,28t44.5,36.5,34.5,47,34.5,60.5q19 -34,34.5 -60.5t34.5 -47,44.5 -36.5,64.5 -28q57 -20,117 -51t127 -84q33 -27,52.5 -44.5t38.5 -29,43.5 -19.5,66.5 -16q-28 -34 -58 -57t-65 -31q48 -71,73 -154t25 -176q0 -91 -25 -174.5t-73 -154.5q35 -7,65 -30.5t58 -57.5zm-76,811q-23,8 -42.5,19t-37.5,24 -35,27.5 -35,29.5q-65,54 -121,82t-110,47q-32,11 -56.5,23.5t-43.5,28.5 -35,35.5 -31,43.5q-15 -24 -31 -43.5t-35 -35.5 -43.5 -28.5 -56.5 -23.5q-54 -19 -110 -47t-121 -82q-18 -15 -35 -29.5t-35 -27.5 -37.5 -24 -42.5 -19q22 -16,43.5 -21.5t42.5 -3,42,12,42,22.5q9 -11,21.5 -24t27.5 -13q8,0,22.5,13.5t35,29.5,47.5,29.5,59,13.5,54 -2,40 -8,34.5 -17.5,35.5 -29.5q19,18,35.5,29.5t34.5,17.5,40.5,8,53.5,2q32,0,59 -13.5t47.5 -29.5,35 -29.5,22.5 -13.5q15,0,27.5,13t21.5,24q21 -13,42 -22.5t42.5 -12,43,3,42.5,21.5zm22 -394q0,93 -26,176t-76,152q-20,0 -38.5,5.5t-43.5,19.5q-11 -11 -26.5 -19t-30.5 -8q-18,0 -35.5,14t-37,30.5 -41.5,30 -50,13.5q-34,0 -55 -3t-37.5 -11 -32 -23 -39.5 -39q-24,24 -39.5,39t-31.5,23 -37,11 -56,3q-28,0 -50 -13.5t-41 -30 -36.5 -30.5 -36.5 -14q-15,0 -30.5,8t-26.5,19q-26 -14 -44 -19.5t-38 -5.5q-49 -69 -75.5 -152t-26.5 -176q0 -91,26.5 -173.5t75.5 -153.5q20,2,38 -4t44 -19q11,9,26.5,18t30.5,9q19,0,36.5 -13.5t36.5 -30,41 -30.5,50 -14q35,0,56,3t37,11,31.5,23,39.5,39q24 -24,39.5 -39t32 -23,37.5 -11,55 -3q28,0,50,14t41.5,30.5,37,30,35.5,13.5q15,0,30.5 -9t26.5 -18q25,13,43.5,19t38.5,4q50,71,76,153.5t26,173.5zm-22 -393q-43,32 -85.5,24.5t-84.5 -32.5q-9,11 -21.5,24t-27.5,13q-8,0 -22.5 -13.5t-35 -30 -47.5 -30.5 -59 -14q-31,0 -53.5,2.5t-40.5,9 -34.5,18 -35.5,29.5q-19 -18 -35.5 -29.5t-34.5 -18 -40 -9 -54 -2.5 -59,14 -47.5,30.5 -35,30 -22.5,13.5q-15,0 -27.5 -13t-21.5 -24q-42,25 -84,32.5t-86 -24.5q23 -7,42.5 -18t37.5 -24.5,35 -28,35 -29.5q65 -53,121 -81.5t110 -45.5q32 -12,56.5 -25t43.5 -28.5,35 -34.5,31 -43q15,24,31,43t35,34.5,43.5,28.5,56.5,25q54,17,110,45.5t121,81.5q18,15,35,29.5t35,28,37.5,24.5,42.5,18zm-215,856q7 -7,5.5 -15t-7 -13 -14 -5.5 -15.5,7.5q-20,24 -56.5,44t-88.5,31q-9,3 -12.5,10t-2,14.5,8,12,16.5,2.5q56 -12,98 -34.5t68 -53.5zm-264,86q0 -28 -20 -47.5t-48 -19.5 -48,19.5 -20,47.5q0,29,20,49.5t48,20.5,48 -20.5,20 -49.5zm-224 -37q-52 -11 -88.5 -31t-56.5 -44q-7 -8 -15 -7.5t-14,5.5 -7.5,13,5.5,15q26,31,68,53.5t98,34.5q10,2,16.5 -2.5t8 -12 -2 -14.5 -12.5 -10zm488 -972q-53 -63 -166 -90 -10 -2 -16.5,3t-8,12.5,2,15,12.5,9.5q52,11,88.5,30t56.5,44q7,8,15.5,8t14 -4.5,7 -12.5 -5.5 -15zm-264 -88q0 -28 -20 -48t-48 -20 -48,20 -20,48q0,29,20,48t48,19,48 -19,20 -48zm-224,38q9 -2,12.5 -9.5t2 -15 -8 -12.5 -16.5 -3q-113,27 -166,90 -7,7 -5.5,15t7.5,12.5,14,4.5,15 -8q20 -25,56.5 -44t88.5 -30z" fill="#231f20"/></g><g transform="translate(176.76 204.35)" ayah:x="374.28" ayah:y="-153.38">
			<path class="st1" d="M-16,2.4c0 -0.1,0 -0.1 -0.1 -0.2c-0.5 -1 -0.7 -1.9 -0.9 -3.1c0 -0.1,0 -0.1 -0.1 -0.1c-0.1,0 -0.1,0.1 -0.1,0.1c-0.2,1.2 -0.7,2.1 -1.3,3c-0.1,0.1 -0.1,0.1 -0.1,0.2c0,0.2,0,0.4,0.1,0.6c0,0.1,0.1,0.1,0.1,0.1c0.6 -0.7,1.1 -2,1.2 -2.4c0.1,0.6,0.4,1.6,0.8,2.4c0.1,0.1,0.2,0.2,0.2,0C-16.1,2.9 -16,2.6 -16,2.4"/>
		</g>
		<g transform="translate(216.65 230.46) scale(0.01 -0.01)"><path d="m1248,4q-42 -7 -66.5 -15t-43.5 -19.5 -38.5 -29 -52.5 -43.5q-68 -56 -127.5 -86t-116.5 -49q-39 -13 -64.5 -29t-44.5 -37 -34.5 -47 -34.5 -59q-19,33 -34.5,59t-34.5,47 -44.5,37 -64.5,29q-57,19 -116.5,49t-127.5,86q-33,26 -52.5,43.5t-38.5,29 -44,19.5 -68,15q29,34,59.5,57.5t65.5,30.5q-48,71 -73,154.5t-25,174.5q0,93,25,176t73,154q-35,8 -65.5,31t-59.5,57q43,8,68,16t44,19.5,38.5,29,52.5,44.5q68,53,127.5,84t116.5,51q39,12,64.5,28t44.5,36.5,34.5,47,34.5,60.5q19 -34,34.5 -60.5t34.5 -47,44.5 -36.5,64.5 -28q57 -20,117 -51t127 -84q33 -27,52.5 -44.5t38.5 -29,43.5 -19.5,66.5 -16q-28 -34 -58 -57t-65 -31q48 -71,73 -154t25 -176q0 -91 -25 -174.5t-73 -154.5q35 -7,65 -30.5t58 -57.5zm-76,811q-23,8 -42.5,19t-37.5,24 -35,27.5 -35,29.5q-65,54 -121,82t-110,47q-32,11 -56.5,23.5t-43.5,28.5 -35,35.5 -31,43.5q-15 -24 -31 -43.5t-35 -35.5 -43.5 -28.5 -56.5 -23.5q-54 -19 -110 -47t-121 -82q-18 -15 -35 -29.5t-35 -27.5 -37.5 -24 -42.5 -19q22 -16,43.5 -21.5t42.5 -3,42,12,42,22.5q9 -11,21.5 -24t27.5 -13q8,0,22.5,13.5t35,29.5,47.5,29.5,59,13.5,54 -2,40 -8,34.5 -17.5,35.5 -29.5q19,18,35.5,29.5t34.5,17.5,40.5,8,53.5,2q32,0,59 -13.5t47.5 -29.5,35 -29.5,22.5 -13.5q15,0,27.5,13t21.5,24q21 -13,42 -22.5t42.5 -12,43,3,42.5,21.5zm22 -394q0,93 -26,176t-76,152q-20,0 -38.5,5.5t-43.5,19.5q-11 -11 -26.5 -19t-30.5 -8q-18,0 -35.5,14t-37,30.5 -41.5,30 -50,13.5q-34,0 -55 -3t-37.5 -11 -32 -23 -39.5 -39q-24,24 -39.5,39t-31.5,23 -37,11 -56,3q-28,0 -50 -13.5t-41 -30 -36.5 -30.5 -36.5 -14q-15,0 -30.5,8t-26.5,19q-26 -14 -44 -19.5t-38 -5.5q-49 -69 -75.5 -152t-26.5 -176q0 -91,26.5 -173.5t75.5 -153.5q20,2,38 -4t44 -19q11,9,26.5,18t30.5,9q19,0,36.5 -13.5t36.5 -30,41 -30.5,50 -14q35,0,56,3t37,11,31.5,23,39.5,39q24 -24,39.5 -39t32 -23,37.5 -11,55 -3q28,0,50,14t41.5,30.5,37,30,35.5,13.5q15,0,30.5 -9t26.5 -18q25,13,43.5,19t38.5,4q50,71,76,153.5t26,173.5zm-22 -393q-43,32 -85.5,24.5t-84.5 -32.5q-9,11 -21.5,24t-27.5,13q-8,0 -22.5 -13.5t-35 -30 -47.5 -30.5 -59 -14q-31,0 -53.5,2.5t-40.5,9 -34.5,18 -35.5,29.5q-19 -18 -35.5 -29.5t-34.5 -18 -40 -9 -54 -2.5 -59,14 -47.5,30.5 -35,30 -22.5,13.5q-15,0 -27.5 -13t-21.5 -24q-42,25 -84,32.5t-86 -24.5q23 -7,42.5 -18t37.5 -24.5,35 -28,35 -29.5q65 -53,121 -81.5t110 -45.5q32 -12,56.5 -25t43.5 -28.5,35 -34.5,31 -43q15,24,31,43t35,34.5,43.5,28.5,56.5,25q54,17,110,45.5t121,81.5q18,15,35,29.5t35,28,37.5,24.5,42.5,18zm-215,856q7 -7,5.5 -15t-7 -13 -14 -5.5 -15.5,7.5q-20,24 -56.5,44t-88.5,31q-9,3 -12.5,10t-2,14.5,8,12,16.5,2.5q56 -12,98 -34.5t68 -53.5zm-264,86q0 -28 -20 -47.5t-48 -19.5 -48,19.5 -20,47.5q0,29,20,49.5t48,20.5,48 -20.5,20 -49.5zm-224 -37q-52 -11 -88.5 -31t-56.5 -44q-7 -8 -15 -7.5t-14,5.5 -7.5,13,5.5,15q26,31,68,53.5t98,34.5q10,2,16.5 -2.5t8 -12 -2 -14.5 -12.5 -10zm488 -972q-53 -63 -166 -90 -10 -2 -16.5,3t-8,12.5,2,15,12.5,9.5q52,11,88.5,30t56.5,44q7,8,15.5,8t14 -4.5,7 -12.5 -5.5 -15zm-264 -88q0 -28 -20 -48t-48 -20 -48,20 -20,48q0,29,20,48t48,19,48 -19,20 -48zm-224,38q9 -2,12.5 -9.5t2 -15 -8 -12.5 -16.5 -3q-113,27 -166,90 -7,7 -5.5,15t7.5,12.5,14,4.5,15 -8q20 -25,56.5 -44t88.5 -30z" fill="#231f20"/></g><g transform="translate(238.59 222.68)" ayah:x="456.85" ayah:y="-181.51">
			<path class="st1" d="M-16,2.4C-16,2.2 -16.1,2 -16.1,1.9c0 -0.1 -0.1 -0.1 -0.1,0c-0.3,0.5 -0.4,1 -0.4,1.6c-0.1,0.4 -0.1,0.7 -0.1,1.3c0,0.1,0,0.1 -0.1,0.1c-0.3 -0.1 -0.6 -0.1 -1 -0.1c-0.3,0 -0.5,0.2 -0.5,0.5c0,0.2,0,0.4,0,0.6c0,0,0,0.1,0.1,0.1c0,0,0.1,0,0.1 -0.1c0 -0.1,0.3 -0.2,0.6 -0.2c0.3,0,0.5,0,0.7,0.1L-17,5.7c0.5,0.1,0.4 -0.3,0.5 -0.6c0.1 -0.9,0.1 -1.6,0.5 -2.4C-15.9,2.5 -15.9,2.5 -16,2.4 "/>
		</g>
		<g transform="translate(186.26 252.7) scale(0.01 -0.01)"><path d="m1248,4q-42 -7 -66.5 -15t-43.5 -19.5 -38.5 -29 -52.5 -43.5q-68 -56 -127.5 -86t-116.5 -49q-39 -13 -64.5 -29t-44.5 -37 -34.5 -47 -34.5 -59q-19,33 -34.5,59t-34.5,47 -44.5,37 -64.5,29q-57,19 -116.5,49t-127.5,86q-33,26 -52.5,43.5t-38.5,29 -44,19.5 -68,15q29,34,59.5,57.5t65.5,30.5q-48,71 -73,154.5t-25,174.5q0,93,25,176t73,154q-35,8 -65.5,31t-59.5,57q43,8,68,16t44,19.5,38.5,29,52.5,44.5q68,53,127.5,84t116.5,51q39,12,64.5,28t44.5,36.5,34.5,47,34.5,60.5q19 -34,34.5 -60.5t34.5 -47,44.5 -36.5,64.5 -28q57 -20,117 -51t127 -84q33 -27,52.5 -44.5t38.5 -29,43.5 -19.5,66.5 -16q-28 -34 -58 -57t-65 -31q48 -71,73 -154t25 -176q0 -91 -25 -174.5t-73 -154.5q35 -7,65 -30.5t58 -57.5zm-76,811q-23,8 -42.5,19t-37.5,24 -35,27.5 -35,29.5q-65,54 -121,82t-110,47q-32,11 -56.5,23.5t-43.5,28.5 -35,35.5 -31,43.5q-15 -24 -31 -43.5t-35 -35.5 -43.5 -28.5 -56.5 -23.5q-54 -19 -110 -47t-121 -82q-18 -15 -35 -29.5t-35 -27.5 -37.5 -24 -42.5 -19q22 -16,43.5 -21.5t42.5 -3,42,12,42,22.5q9 -11,21.5 -24t27.5 -13q8,0,22.5,13.5t35,29.5,47.5,29.5,59,13.5,54 -2,40 -8,34.5 -17.5,35.5 -29.5q19,18,35.5,29.5t34.5,17.5,40.5,8,53.5,2q32,0,59 -13.5t47.5 -29.5,35 -29.5,22.5 -13.5q15,0,27.5,13t21.5,24q21 -13,42 -22.5t42.5 -12,43,3,42.5,21.5zm22 -394q0,93 -26,176t-76,152q-20,0 -38.5,5.5t-43.5,19.5q-11 -11 -26.5 -19t-30.5 -8q-18,0 -35.5,14t-37,30.5 -41.5,30 -50,13.5q-34,0 -55 -3t-37.5 -11 -32 -23 -39.5 -39q-24,24 -39.5,39t-31.5,23 -37,11 -56,3q-28,0 -50 -13.5t-41 -30 -36.5 -30.5 -36.5 -14q-15,0 -30.5,8t-26.5,19q-26 -14 -44 -19.5t-38 -5.5q-49 -69 -75.5 -152t-26.5 -176q0 -91,26.5 -173.5t75.5 -153.5q20,2,38 -4t44 -19q11,9,26.5,18t30.5,9q19,0,36.5 -13.5t36.5 -30,41 -30.5,50 -14q35,0,56,3t37,11,31.5,23,39.5,39q24 -24,39.5 -39t32 -23,37.5 -11,55 -3q28,0,50,14t41.5,30.5,37,30,35.5,13.5q15,0,30.5 -9t26.5 -18q25,13,43.5,19t38.5,4q50,71,76,153.5t26,173.5zm-22 -393q-43,32 -85.5,24.5t-84.5 -32.5q-9,11 -21.5,24t-27.5,13q-8,0 -22.5 -13.5t-35 -30 -47.5 -30.5 -59 -14q-31,0 -53.5,2.5t-40.5,9 -34.5,18 -35.5,29.5q-19 -18 -35.5 -29.5t-34.5 -18 -40 -9 -54 -2.5 -59,14 -47.5,30.5 -35,30 -22.5,13.5q-15,0 -27.5 -13t-21.5 -24q-42,25 -84,32.5t-86 -24.5q23 -7,42.5 -18t37.5 -24.5,35 -28,35 -29.5q65 -53,121 -81.5t110 -45.5q32 -12,56.5 -25t43.5 -28.5,35 -34.5,31 -43q15,24,31,43t35,34.5,43.5,28.5,56.5,25q54,17,110,45.5t121,81.5q18,15,35,29.5t35,28,37.5,24.5,42.5,18zm-215,856q7 -7,5.5 -15t-7 -13 -14 -5.5 -15.5,7.5q-20,24 -56.5,44t-88.5,31q-9,3 -12.5,10t-2,14.5,8,12,16.5,2.5q56 -12,98 -34.5t68 -53.5zm-264,86q0 -28 -20 -47.5t-48 -19.5 -48,19.5 -20,47.5q0,29,20,49.5t48,20.5,48 -20.5,20 -49.5zm-224 -37q-52 -11 -88.5 -31t-56.5 -44q-7 -8 -15 -7.5t-14,5.5 -7.5,13,5.5,15q26,31,68,53.5t98,34.5q10,2,16.5 -2.5t8 -12 -2 -14.5 -12.5 -10zm488 -972q-53 -63 -166 -90 -10 -2 -16.5,3t-8,12.5,2,15,12.5,9.5q52,11,88.5,30t56.5,44q7,8,15.5,8t14 -4.5,7 -12.5 -5.5 -15zm-264 -88q0 -28 -20 -48t-48 -20 -48,20 -20,48q0,29,20,48t48,19,48 -19,20 -48zm-224,38q9 -2,12.5 -9.5t2 -15 -8 -12.5 -16.5 -3q-113,27 -166,90 -7,7 -5.5,15t7.5,12.5,14,4.5,15 -8q20 -25,56.5 -44t88.5 -30z" fill="#231f20"/></g><g transform="translate(207.25 246.32)" ayah:x="416.65" ayah:y="-211.92">
			<path class="st1" d="M-16,2.4c-0.3,0 -0.7,0.2 -0.7,0.5c0,0.3,0.3,0.7,0.6,0.7c0.4,0,0.8 -0.4,0.9 -0.7C-15.2,2.5 -15.6,2.4 -16,2.4M-16.1,4.4c-0.6,0 -0.9 -1.2 -0.9 -1.6c0 -0.6,0.3 -1.2,0.9 -1.2c0.7,0,1.1,0.4,1.1,1.3C-15,3.4 -15.5,4.4 -16.1,4.4"/>
		</g>
		<g transform="translate(141.98 274.41) scale(0.01 -0.01)"><path d="m1248,4q-42 -7 -66.5 -15t-43.5 -19.5 -38.5 -29 -52.5 -43.5q-68 -56 -127.5 -86t-116.5 -49q-39 -13 -64.5 -29t-44.5 -37 -34.5 -47 -34.5 -59q-19,33 -34.5,59t-34.5,47 -44.5,37 -64.5,29q-57,19 -116.5,49t-127.5,86q-33,26 -52.5,43.5t-38.5,29 -44,19.5 -68,15q29,34,59.5,57.5t65.5,30.5q-48,71 -73,154.5t-25,174.5q0,93,25,176t73,154q-35,8 -65.5,31t-59.5,57q43,8,68,16t44,19.5,38.5,29,52.5,44.5q68,53,127.5,84t116.5,51q39,12,64.5,28t44.5,36.5,34.5,47,34.5,60.5q19 -34,34.5 -60.5t34.5 -47,44.5 -36.5,64.5 -28q57 -20,117 -51t127 -84q33 -27,52.5 -44.5t38.5 -29,43.5 -19.5,66.5 -16q-28 -34 -58 -57t-65 -31q48 -71,73 -154t25 -176q0 -91 -25 -174.5t-73 -154.5q35 -7,65 -30.5t58 -57.5zm-76,811q-23,8 -42.5,19t-37.5,24 -35,27.5 -35,29.5q-65,54 -121,82t-110,47q-32,11 -56.5,23.5t-43.5,28.5 -35,35.5 -31,43.5q-15 -24 -31 -43.5t-35 -35.5 -43.5 -28.5 -56.5 -23.5q-54 -19 -110 -47t-121 -82q-18 -15 -35 -29.5t-35 -27.5 -37.5 -24 -42.5 -19q22 -16,43.5 -21.5t42.5 -3,42,12,42,22.5q9 -11,21.5 -24t27.5 -13q8,0,22.5,13.5t35,29.5,47.5,29.5,59,13.5,54 -2,40 -8,34.5 -17.5,35.5 -29.5q19,18,35.5,29.5t34.5,17.5,40.5,8,53.5,2q32,0,59 -13.5t47.5 -29.5,35 -29.5,22.5 -13.5q15,0,27.5,13t21.5,24q21 -13,42 -22.5t42.5 -12,43,3,42.5,21.5zm22 -394q0,93 -26,176t-76,152q-20,0 -38.5,5.5t-43.5,19.5q-11 -11 -26.5 -19t-30.5 -8q-18,0 -35.5,14t-37,30.5 -41.5,30 -50,13.5q-34,0 -55 -3t-37.5 -11 -32 -23 -39.5 -39q-24,24 -39.5,39t-31.5,23 -37,11 -56,3q-28,0 -50 -13.5t-41 -30 -36.5 -30.5 -36.5 -14q-15,0 -30.5,8t-26.5,19q-26 -14 -44 -19.5t-38 -5.5q-49 -69 -75.5 -152t-26.5 -176q0 -91,26.5 -173.5t75.5 -153.5q20,2,38 -4t44 -19q11,9,26.5,18t30.5,9q19,0,36.5 -13.5t36.5 -30,41 -30.5,50 -14q35,0,56,3t37,11,31.5,23,39.5,39q24 -24,39.5 -39t32 -23,37.5 -11,55 -3q28,0,50,14t41.5,30.5,37,30,35.5,13.5q15,0,30.5 -9t26.5 -18q25,13,43.5,19t38.5,4q50,71,76,153.5t26,173.5zm-22 -393q-43,32 -85.5,24.5t-84.5 -32.5q-9,11 -21.5,24t-27.5,13q-8,0 -22.5 -13.5t-35 -30 -47.5 -30.5 -59 -14q-31,0 -53.5,2.5t-40.5,9 -34.5,18 -35.5,29.5q-19 -18 -35.5 -29.5t-34.5 -18 -40 -9 -54 -2.5 -59,14 -47.5,30.5 -35,30 -22.5,13.5q-15,0 -27.5 -13t-21.5 -24q-42,25 -84,32.5t-86 -24.5q23 -7,42.5 -18t37.5 -24.5,35 -28,35 -29.5q65 -53,121 -81.5t110 -45.5q32 -12,56.5 -25t43.5 -28.5,35 -34.5,31 -43q15,24,31,43t35,34.5,43.5,28.5,56.5,25q54,17,110,45.5t121,81.5q18,15,35,29.5t35,28,37.5,24.5,42.5,18zm-215,856q7 -7,5.5 -15t-7 -13 -14 -5.5 -15.5,7.5q-20,24 -56.5,44t-88.5,31q-9,3 -12.5,10t-2,14.5,8,12,16.5,2.5q56 -12,98 -34.5t68 -53.5zm-264,86q0 -28 -20 -47.5t-48 -19.5 -48,19.5 -20,47.5q0,29,20,49.5t48,20.5,48 -20.5,20 -49.5zm-224 -37q-52 -11 -88.5 -31t-56.5 -44q-7 -8 -15 -7.5t-14,5.5 -7.5,13,5.5,15q26,31,68,53.5t98,34.5q10,2,16.5 -2.5t8 -12 -2 -14.5 -12.5 -10zm488 -972q-53 -63 -166 -90 -10 -2 -16.5,3t-8,12.5,2,15,12.5,9.5q52,11,88.5,30t56.5,44q7,8,15.5,8t14 -4.5,7 -12.5 -5.5 -15zm-264 -88q0 -28 -20 -48t-48 -20 -48,20 -20,48q0,29,20,48t48,19,48 -19,20 -48zm-224,38q9 -2,12.5 -9.5t2 -15 -8 -12.5 -16.5 -3q-113,27 -166,90 -7,7 -5.5,15t7.5,12.5,14,4.5,15 -8q20 -25,56.5 -44t88.5 -30z" fill="#231f20"/></g><g transform="translate(163.87 267.73)" ayah:x="357.45" ayah:y="-241.17">
			<path class="st1" d="M-16,2.4c-0.3 -0.4 -0.7 -0.9 -1.3 -0.9c-0.2,0 -0.5,0.2 -0.4,0.6c0,0.4,0.4,1.1,0.4,1.1c0,0.2 -0.3,0.2 -0.5,0.4C-18,3.7 -18,3.9 -18,4.1c0.1,0.6,0.5,1.1,0.9,1.4c0.1,0.1,0.2,0,0.1 -0.1c0 -0.1 -0.1 -0.4 -0.2 -0.5c-0.2 -0.1 -0.4 -0.2 -0.4 -0.4c0 -0.2,0.5 -0.3,0.7 -0.5c0.1 -0.1,0.1 -0.3,0.1 -0.4c-0.1 -0.3 -0.4 -0.9 -0.4 -1c0 -0.1,0.2 -0.2,0.6 -0.2C-16.5,2.3 -16.3,2.4 -16,2.4C-15.9,2.5 -15.9,2.5 -16,2.4"/>
		</g>
		<g transform="translate(109.43 296.55) scale(0.01 -0.01)"><path d="m1248,4q-42 -7 -66.5 -15t-43.5 -19.5 -38.5 -29 -52.5 -43.5q-68 -56 -127.5 -86t-116.5 -49q-39 -13 -64.5 -29t-44.5 -37 -34.5 -47 -34.5 -59q-19,33 -34.5,59t-34.5,47 -44.5,37 -64.5,29q-57,19 -116.5,49t-127.5,86q-33,26 -52.5,43.5t-38.5,29 -44,19.5 -68,15q29,34,59.5,57.5t65.5,30.5q-48,71 -73,154.5t-25,174.5q0,93,25,176t73,154q-35,8 -65.5,31t-59.5,57q43,8,68,16t44,19.5,38.5,29,52.5,44.5q68,53,127.5,84t116.5,51q39,12,64.5,28t44.5,36.5,34.5,47,34.5,60.5q19 -34,34.5 -60.5t34.5 -47,44.5 -36.5,64.5 -28q57 -20,117 -51t127 -84q33 -27,52.5 -44.5t38.5 -29,43.5 -19.5,66.5 -16q-28 -34 -58 -57t-65 -31q48 -71,73 -154t25 -176q0 -91 -25 -174.5t-73 -154.5q35 -7,65 -30.5t58 -57.5zm-76,811q-23,8 -42.5,19t-37.5,24 -35,27.5 -35,29.5q-65,54 -121,82t-110,47q-32,11 -56.5,23.5t-43.5,28.5 -35,35.5 -31,43.5q-15 -24 -31 -43.5t-35 -35.5 -43.5 -28.5 -56.5 -23.5q-54 -19 -110 -47t-121 -82q-18 -15 -35 -29.5t-35 -27.5 -37.5 -24 -42.5 -19q22 -16,43.5 -21.5t42.5 -3,42,12,42,22.5q9 -11,21.5 -24t27.5 -13q8,0,22.5,13.5t35,29.5,47.5,29.5,59,13.5,54 -2,40 -8,34.5 -17.5,35.5 -29.5q19,18,35.5,29.5t34.5,17.5,40.5,8,53.5,2q32,0,59 -13.5t47.5 -29.5,35 -29.5,22.5 -13.5q15,0,27.5,13t21.5,24q21 -13,42 -22.5t42.5 -12,43,3,42.5,21.5zm22 -394q0,93 -26,176t-76,152q-20,0 -38.5,5.5t-43.5,19.5q-11 -11 -26.5 -19t-30.5 -8q-18,0 -35.5,14t-37,30.5 -41.5,30 -50,13.5q-34,0 -55 -3t-37.5 -11 -32 -23 -39.5 -39q-24,24 -39.5,39t-31.5,23 -37,11 -56,3q-28,0 -50 -13.5t-41 -30 -36.5 -30.5 -36.5 -14q-15,0 -30.5,8t-26.5,19q-26 -14 -44 -19.5t-38 -5.5q-49 -69 -75.5 -152t-26.5 -176q0 -91,26.5 -173.5t75.5 -153.5q20,2,38 -4t44 -19q11,9,26.5,18t30.5,9q19,0,36.5 -13.5t36.5 -30,41 -30.5,50 -14q35,0,56,3t37,11,31.5,23,39.5,39q24 -24,39.5 -39t32 -23,37.5 -11,55 -3q28,0,50,14t41.5,30.5,37,30,35.5,13.5q15,0,30.5 -9t26.5 -18q25,13,43.5,19t38.5,4q50,71,76,153.5t26,173.5zm-22 -393q-43,32 -85.5,24.5t-84.5 -32.5q-9,11 -21.5,24t-27.5,13q-8,0 -22.5 -13.5t-35 -30 -47.5 -30.5 -59 -14q-31,0 -53.5,2.5t-40.5,9 -34.5,18 -35.5,29.5q-19 -18 -35.5 -29.5t-34.5 -18 -40 -9 -54 -2.5 -59,14 -47.5,30.5 -35,30 -22.5,13.5q-15,0 -27.5 -13t-21.5 -24q-42,25 -84,32.5t-86 -24.5q23 -7,42.5 -18t37.5 -24.5,35 -28,35 -29.5q65 -53,121 -81.5t110 -45.5q32 -12,56.5 -25t43.5 -28.5,35 -34.5,31 -43q15,24,31,43t35,34.5,43.5,28.5,56.5,25q54,17,110,45.5t121,81.5q18,15,35,29.5t35,28,37.5,24.5,42.5,18zm-215,856q7 -7,5.5 -15t-7 -13 -14 -5.5 -15.5,7.5q-20,24 -56.5,44t-88.5,31q-9,3 -12.5,10t-2,14.5,8,12,16.5,2.5q56 -12,98 -34.5t68 -53.5zm-264,86q0 -28 -20 -47.5t-48 -19.5 -48,19.5 -20,47.5q0,29,20,49.5t48,20.5,48 -20.5,20 -49.5zm-224 -37q-52 -11 -88.5 -31t-56.5 -44q-7 -8 -15 -7.5t-14,5.5 -7.5,13,5.5,15q26,31,68,53.5t98,34.5q10,2,16.5 -2.5t8 -12 -2 -14.5 -12.5 -10zm488 -972q-53 -63 -166 -90 -10 -2 -16.5,3t-8,12.5,2,15,12.5,9.5q52,11,88.5,30t56.5,44q7,8,15.5,8t14 -4.5,7 -12.5 -5.5 -15zm-264 -88q0 -28 -20 -48t-48 -20 -48,20 -20,48q0,29,20,48t48,19,48 -19,20 -48zm-224,38q9 -2,12.5 -9.5t2 -15 -8 -12.5 -16.5 -3q-113,27 -166,90 -7,7 -5.5,15t7.5,12.5,14,4.5,15 -8q20 -25,56.5 -44t88.5 -30z" fill="#231f20"/></g><g transform="translate(130.97 291.02)" ayah:x="313.45" ayah:y="-269.70">
			<path class="st1" d="M-16,2.4c-0.3 -0.3 -0.7 -0.3 -1,0C-17,2.2 -17.2,2 -17.5,2h-0.1c0,0,0,0,0 -0.1c0.3 -0.7,0.4 -1.5,0.3 -2.2c0 -0.1,0 -0.1 -0.1 -0.1c-0.1,0 -0.1,0.1 -0.1,0.2c-0.1,0.7 -0.2,1 -0.4,1.6c-0.2,0.5 -0.3,0.7 -0.5,1.2c0,0.1 -0.1,0.1 -0.1,0.2l0.1,0.7l-0.1,0c0,0.1,0.1,0.1,0.1,0c0.1 -0.1,0.2 -0.4,0.3 -0.4c0.3 -0.3,0.7 -0.3,1,0.1c0.1,0.1,0.1,0.2,0.1,0.4c0,0.1,0,0.1,0.1,0.1c0,0,0.1,0,0.1 -0.1c0 -0.1,0 -0.2,0 -0.3c0.1 -0.2,0.5 -0.3,0.8,0c0,0.1,0.1,0.3,0.1,0.5c0,0,0,0.1,0.1,0.1c0,0,0,0,0 -0.1C-15.7,3.4 -15.7,2.7 -16,2.4"/>
		</g>
		<g transform="translate(196.12 295.98) scale(0.01 -0.01)"><path d="m1248,4q-42 -7 -66.5 -15t-43.5 -19.5 -38.5 -29 -52.5 -43.5q-68 -56 -127.5 -86t-116.5 -49q-39 -13 -64.5 -29t-44.5 -37 -34.5 -47 -34.5 -59q-19,33 -34.5,59t-34.5,47 -44.5,37 -64.5,29q-57,19 -116.5,49t-127.5,86q-33,26 -52.5,43.5t-38.5,29 -44,19.5 -68,15q29,34,59.5,57.5t65.5,30.5q-48,71 -73,154.5t-25,174.5q0,93,25,176t73,154q-35,8 -65.5,31t-59.5,57q43,8,68,16t44,19.5,38.5,29,52.5,44.5q68,53,127.5,84t116.5,51q39,12,64.5,28t44.5,36.5,34.5,47,34.5,60.5q19 -34,34.5 -60.5t34.5 -47,44.5 -36.5,64.5 -28q57 -20,117 -51t127 -84q33 -27,52.5 -44.5t38.5 -29,43.5 -19.5,66.5 -16q-28 -34 -58 -57t-65 -31q48 -71,73 -154t25 -176q0 -91 -25 -174.5t-73 -154.5q35 -7,65 -30.5t58 -57.5zm-76,811q-23,8 -42.5,19t-37.5,24 -35,27.5 -35,29.5q-65,54 -121,82t-110,47q-32,11 -56.5,23.5t-43.5,28.5 -35,35.5 -31,43.5q-15 -24 -31 -43.5t-35 -35.5 -43.5 -28.5 -56.5 -23.5q-54 -19 -110 -47t-121 -82q-18 -15 -35 -29.5t-35 -27.5 -37.5 -24 -42.5 -19q22 -16,43.5 -21.5t42.5 -3,42,12,42,22.5q9 -11,21.5 -24t27.5 -13q8,0,22.5,13.5t35,29.5,47.5,29.5,59,13.5,54 -2,40 -8,34.5 -17.5,35.5 -29.5q19,18,35.5,29.5t34.5,17.5,40.5,8,53.5,2q32,0,59 -13.5t47.5 -29.5,35 -29.5,22.5 -13.5q15,0,27.5,13t21.5,24q21 -13,42 -22.5t42.5 -12,43,3,42.5,21.5zm22 -394q0,93 -26,176t-76,152q-20,0 -38.5,5.5t-43.5,19.5q-11 -11 -26.5 -19t-30.5 -8q-18,0 -35.5,14t-37,30.5 -41.5,30 -50,13.5q-34,0 -55 -3t-37.5 -11 -32 -23 -39.5 -39q-24,24 -39.5,39t-31.5,23 -37,11 -56,3q-28,0 -50 -13.5t-41 -30 -36.5 -30.5 -36.5 -14q-15,0 -30.5,8t-26.5,19q-26 -14 -44 -19.5t-38 -5.5q-49 -69 -75.5 -152t-26.5 -176q0 -91,26.5 -173.5t75.5 -153.5q20,2,38 -4t44 -19q11,9,26.5,18t30.5,9q19,0,36.5 -13.5t36.5 -30,41 -30.5,50 -14q35,0,56,3t37,11,31.5,23,39.5,39q24 -24,39.5 -39t32 -23,37.5 -11,55 -3q28,0,50,14t41.5,30.5,37,30,35.5,13.5q15,0,30.5 -9t26.5 -18q25,13,43.5,19t38.5,4q50,71,76,153.5t26,173.5zm-22 -393q-43,32 -85.5,24.5t-84.5 -32.5q-9,11 -21.5,24t-27.5,13q-8,0 -22.5 -13.5t-35 -30 -47.5 -30.5 -59 -14q-31,0 -53.5,2.5t-40.5,9 -34.5,18 -35.5,29.5q-19 -18 -35.5 -29.5t-34.5 -18 -40 -9 -54 -2.5 -59,14 -47.5,30.5 -35,30 -22.5,13.5q-15,0 -27.5 -13t-21.5 -24q-42,25 -84,32.5t-86 -24.5q23 -7,42.5 -18t37.5 -24.5,35 -28,35 -29.5q65 -53,121 -81.5t110 -45.5q32 -12,56.5 -25t43.5 -28.5,35 -34.5,31 -43q15,24,31,43t35,34.5,43.5,28.5,56.5,25q54,17,110,45.5t121,81.5q18,15,35,29.5t35,28,37.5,24.5,42.5,18zm-215,856q7 -7,5.5 -15t-7 -13 -14 -5.5 -15.5,7.5q-20,24 -56.5,44t-88.5,31q-9,3 -12.5,10t-2,14.5,8,12,16.5,2.5q56 -12,98 -34.5t68 -53.5zm-264,86q0 -28 -20 -47.5t-48 -19.5 -48,19.5 -20,47.5q0,29,20,49.5t48,20.5,48 -20.5,20 -49.5zm-224 -37q-52 -11 -88.5 -31t-56.5 -44q-7 -8 -15 -7.5t-14,5.5 -7.5,13,5.5,15q26,31,68,53.5t98,34.5q10,2,16.5 -2.5t8 -12 -2 -14.5 -12.5 -10zm488 -972q-53 -63 -166 -90 -10 -2 -16.5,3t-8,12.5,2,15,12.5,9.5q52,11,88.5,30t56.5,44q7,8,15.5,8t14 -4.5,7 -12.5 -5.5 -15zm-264 -88q0 -28 -20 -48t-48 -20 -48,20 -20,48q0,29,20,48t48,19,48 -19,20 -48zm-224,38q9 -2,12.5 -9.5t2 -15 -8 -12.5 -16.5 -3q-113,27 -166,90 -7,7 -5.5,15t7.5,12.5,14,4.5,15 -8q20 -25,56.5 -44t88.5 -30z" fill="#231f20"/></g><g transform="translate(216.71 291.05)" ayah:x="429.96" ayah:y="-269.57">
			<path class="st1" d="M-16,2.4c0 -0.1,0.1 -0.3,0.1 -0.3c0.5 -0.7,0.7 -1.4,0.7 -2.4c0 -0.1 -0.1 -0.2 -0.1 -0.2c-0.1,0 -0.1,0.1 -0.1,0.2c-0.2,0.7 -0.4,1.2 -0.8,1.9c-0.4,0.7 -0.3,1.6,0.5,1.9c0.3,0.1,0.7,0.1,1.1,0l-0.2 -0.8c-0.1,0 -0.4,0 -0.6,0C-15.5,2.7 -16,2.6 -16,2.4 "/>
		</g>
		<g transform="translate(126.58 317.93) scale(0.01 -0.01)"><path d="m1248,4q-42 -7 -66.5 -15t-43.5 -19.5 -38.5 -29 -52.5 -43.5q-68 -56 -127.5 -86t-116.5 -49q-39 -13 -64.5 -29t-44.5 -37 -34.5 -47 -34.5 -59q-19,33 -34.5,59t-34.5,47 -44.5,37 -64.5,29q-57,19 -116.5,49t-127.5,86q-33,26 -52.5,43.5t-38.5,29 -44,19.5 -68,15q29,34,59.5,57.5t65.5,30.5q-48,71 -73,154.5t-25,174.5q0,93,25,176t73,154q-35,8 -65.5,31t-59.5,57q43,8,68,16t44,19.5,38.5,29,52.5,44.5q68,53,127.5,84t116.5,51q39,12,64.5,28t44.5,36.5,34.5,47,34.5,60.5q19 -34,34.5 -60.5t34.5 -47,44.5 -36.5,64.5 -28q57 -20,117 -51t127 -84q33 -27,52.5 -44.5t38.5 -29,43.5 -19.5,66.5 -16q-28 -34 -58 -57t-65 -31q48 -71,73 -154t25 -176q0 -91 -25 -174.5t-73 -154.5q35 -7,65 -30.5t58 -57.5zm-76,811q-23,8 -42.5,19t-37.5,24 -35,27.5 -35,29.5q-65,54 -121,82t-110,47q-32,11 -56.5,23.5t-43.5,28.5 -35,35.5 -31,43.5q-15 -24 -31 -43.5t-35 -35.5 -43.5 -28.5 -56.5 -23.5q-54 -19 -110 -47t-121 -82q-18 -15 -35 -29.5t-35 -27.5 -37.5 -24 -42.5 -19q22 -16,43.5 -21.5t42.5 -3,42,12,42,22.5q9 -11,21.5 -24t27.5 -13q8,0,22.5,13.5t35,29.5,47.5,29.5,59,13.5,54 -2,40 -8,34.5 -17.5,35.5 -29.5q19,18,35.5,29.5t34.5,17.5,40.5,8,53.5,2q32,0,59 -13.5t47.5 -29.5,35 -29.5,22.5 -13.5q15,0,27.5,13t21.5,24q21 -13,42 -22.5t42.5 -12,43,3,42.5,21.5zm22 -394q0,93 -26,176t-76,152q-20,0 -38.5,5.5t-43.5,19.5q-11 -11 -26.5 -19t-30.5 -8q-18,0 -35.5,14t-37,30.5 -41.5,30 -50,13.5q-34,0 -55 -3t-37.5 -11 -32 -23 -39.5 -39q-24,24 -39.5,39t-31.5,23 -37,11 -56,3q-28,0 -50 -13.5t-41 -30 -36.5 -30.5 -36.5 -14q-15,0 -30.5,8t-26.5,19q-26 -14 -44 -19.5t-38 -5.5q-49 -69 -75.5 -152t-26.5 -176q0 -91,26.5 -173.5t75.5 -153.5q20,2,38 -4t44 -19q11,9,26.5,18t30.5,9q19,0,36.5 -13.5t36.5 -30,41 -30.5,50 -14q35,0,56,3t37,11,31.5,23,39.5,39q24 -24,39.5 -39t32 -23,37.5 -11,55 -3q28,0,50,14t41.5,30.5,37,30,35.5,13.5q15,0,30.5 -9t26.5 -18q25,13,43.5,19t38.5,4q50,71,76,153.5t26,173.5zm-22 -393q-43,32 -85.5,24.5t-84.5 -32.5q-9,11 -21.5,24t-27.5,13q-8,0 -22.5 -13.5t-35 -30 -47.5 -30.5 -59 -14q-31,0 -53.5,2.5t-40.5,9 -34.5,18 -35.5,29.5q-19 -18 -35.5 -29.5t-34.5 -18 -40 -9 -54 -2.5 -59,14 -47.5,30.5 -35,30 -22.5,13.5q-15,0 -27.5 -13t-21.5 -24q-42,25 -84,32.5t-86 -24.5q23 -7,42.5 -18t37.5 -24.5,35 -28,35 -29.5q65 -53,121 -81.5t110 -45.5q32 -12,56.5 -25t43.5 -28.5,35 -34.5,31 -43q15,24,31,43t35,34.5,43.5,28.5,56.5,25q54,17,110,45.5t121,81.5q18,15,35,29.5t35,28,37.5,24.5,42.5,18zm-215,856q7 -7,5.5 -15t-7 -13 -14 -5.5 -15.5,7.5q-20,24 -56.5,44t-88.5,31q-9,3 -12.5,10t-2,14.5,8,12,16.5,2.5q56 -12,98 -34.5t68 -53.5zm-264,86q0 -28 -20 -47.5t-48 -19.5 -48,19.5 -20,47.5q0,29,20,49.5t48,20.5,48 -20.5,20 -49.5zm-224 -37q-52 -11 -88.5 -31t-56.5 -44q-7 -8 -15 -7.5t-14,5.5 -7.5,13,5.5,15q26,31,68,53.5t98,34.5q10,2,16.5 -2.5t8 -12 -2 -14.5 -12.5 -10zm488 -972q-53 -63 -166 -90 -10 -2 -16.5,3t-8,12.5,2,15,12.5,9.5q52,11,88.5,30t56.5,44q7,8,15.5,8t14 -4.5,7 -12.5 -5.5 -15zm-264 -88q0 -28 -20 -48t-48 -20 -48,20 -20,48q0,29,20,48t48,19,48 -19,20 -48zm-224,38q9 -2,12.5 -9.5t2 -15 -8 -12.5 -16.5 -3q-113,27 -166,90 -7,7 -5.5,15t7.5,12.5,14,4.5,15 -8q20 -25,56.5 -44t88.5 -30z" fill="#231f20"/></g><g transform="translate(148.22 310.4)" ayah:x="337.09" ayah:y="-298.95">
			<path class="st1" d="M-16,2.4c0 -0.1 -0.1 -0.3 -0.1 -0.3c-0.1,0 -0.1,0.2 -0.1,0.3c-0.1,1.1 -0.5,2.1 -1,2.8c-0.1,0.1 -0.1,0.1 -0.1,0.2c0,0.1,0.1,0.7,0.2,0.8h0c0,0,0,0,0.1,0c0.4 -0.5,0.7 -1.1,0.9 -1.8C-15.9,3.8 -15.8,3 -16,2.4"/>
		</g>
	</g>
	<g id="content">
		<g transform="translate(148 272.21)">
			<path class="st1" d="M-16,2.4c0.9,0.3,1,0.1,1.9,0.9c0.1,0.1,0.3,0.5,0.3,0.6c0,0.1 -0.1,0.1 -0.3,0.2c-0.4,0.1 -0.7,0.2 -1.1,0.3c-0.7,0.1 -1.2 -0.4 -1.4 -1c0 -0.1,0 -0.2,0.1 -0.2c0.2 -0.1,0.2,0.2,0.4,0.3c0.4,0.3,1,0.2,1.4,0C-15,3.3 -15.7,3 -16,2.8C-16.2,2.8 -16.3,2.4 -16,2.4M-32,2.4c-0.1 -0.3 -0.4 -0.5 -0.4 -0.8c0.1 -0.2,0.6 -0.4,0.9 -0.5c0.2,0.1,0.4,0.5,0.5,0.7c0,0.1,0.1,0.2,0,0.2C-31.3,2.2 -31.8,2.7 -32,2.4M-8.4 -5.9c0,1.4 -2.1,1.4 -2.2,0C-10.6 -7.4 -8.5 -7.4 -8.4 -5.9M-7.9,1.8c0,0,0.4,0.9,0,0.7C-8.7,2.2 -9.2,2 -10,1.7c-0.2,1.3 -0.6,2.9 -0.8,4.3c0,0.3 -0.3,0.2 -0.3,0c0 -0.4 -0.3 -1.2 -0.2 -1.6c0.5 -2.8,1.3 -5.7,1.5 -8.5c0 -0.2,0.1 -0.2,0.1 -0.2C-8.9 -3 -9.6 -0.8 -9.9,0.9c0.6,0.3,1,0.4,1.8,0.7C-8,1.7 -7.9,1.7 -7.9,1.8M-23.3 -5.7c0,0.1,0,0.1 -0.1,0.1c-0.9 -0.3 -2.8 -1.2 -3.5 -1.5c-0.2 -0.1 -0.3 -0.4 -0.3 -0.6c0 -0.1,0.1 -0.2,0.2 -0.1c1,0.4,2.8,1.2,3.6,1.5C-23.3 -6.2 -23.3 -5.9 -23.3 -5.7M-15.7 -2.5c0 -0.2,0 -0.4,1.1 -0.4c0.3,0.1,0.4,0.2,0.7,0.4c-0.2,0.5 -0.5,1.1 -0.9,1.1C-15.3 -1.4 -15.6 -2 -15.7 -2.5M-13.8 -3.1c0.4 -0.1,0.8 -0.3,1.3 -0.4c1,0 -0.8,1.5 -1.1,1.8C-13.6 -2.1 -13.6 -2.8 -13.8 -3.1M-27.8 -4C-28 -3.7 -28 -2.8 -27.7 -2.7c0.3 -0.1,0.2 -0.4,0.7 -0.4c0.8 -0.1,2.3,0.3,2.7,1c-0.1,0.4 -0.3,1.1 -0.5,1.6C-25,0.4 -25.2,0.4 -25,1.2c0,0,0,0.1,0.1,0.2c0.7 -1.2,0.9 -3.8,2.3 -4.7c1.3 -0.9,4.6 -0.5,6.6,0.1c-0.3,0.8,0,1.8,0.4,2.5c-0.1,0.1 -0.2,0.1 -0.2,0.3c0,0.3,0,0.4,0,0.8c0.1,0.5,0.5,0.3,1,0.1c1.4 -1,3.3 -2,3 -4c-0.1 -0.5 -0.4 -1.1 -0.9 -0.9C-13.4 -4.3 -14.2 -4 -14.9 -4c-1.4 -0.7 -3.6 -1.2 -5.4 -1.2c-2.2,0 -3,0.5 -3.8,2.5c-0.4 -1 -0.5 -1 -1.2 -1.3C-26 -4.2 -27.4 -4.5 -27.8 -4M-35.2,2.6c1.3,0.5,4.1,1.4,4.9,1.8c0.2,0.1,0.2,0.3,0.3,0.6c0,0.1,0,0.2 -0.2,0.1c-0.7 -0.3 -4.2 -1.4 -4.9 -1.7c-0.2 -0.1 -0.2 -0.4 -0.3 -0.7C-35.3,2.7 -35.3,2.6 -35.2,2.6M-33.6 -4.7c1.3,0.1,2.6,0.4,3.7,0.8c0.8,0.2,1,0.7,1,1.5c0.1,1.2 -0.5,1.8 -1.1,2.3c-0.1,0.1 -0.2,0.1 -0.3 -0.1c0 -0.3 -0.2 -1,0 -1.1c0.6 -0.5,0.8 -1,0.9 -1.2c-2.4 -1 -5.7 -1.5 -8.2 -0.7c-0.9,0.5 -0.9,1.1 -1.1,2.3c-0.2,1.4 -0.4,3 -0.6,4.4c-0.2,1.2 -0.3,2.8 -0.8,0.7c0.3 -1.5,0.6 -4.1,0.9 -5.6c0.2 -1.4,0.4 -2.8,1.9 -3.1C-36.3 -4.8 -34.8 -4.8 -33.6 -4.7M81.4,61.1c-0.1 -0.3 -0.4 -0.5 -0.4 -0.8c0.1 -0.2,0.6 -0.4,0.9 -0.5c0.2,0.1,0.3,0.4,0.5,0.7c0,0.1,0.1,0.2,0,0.2C82.2,60.9,81.6,61.4,81.4,61.1M63,62.8c-0.4,0.7 -0.6,1.2 -0.8,1.2c-0.2,0 -0.5 -0.4 -0.6 -0.7c0 -0.1,0 -0.1,0.1 -0.1C61.9,63.1,62.2,62.9,63,62.8M63.6,63.4c2.1 -1.5,10.3 -0.9,11.6,0.5c0.1,0.1,0.2,0.1,0.3,0.1c0.2 -0.2 -0.1 -0.7 -0.2 -0.9c1.1 -0.6,2.3 -0.3,3.1,1c0,0.1,0.1,0.1,0.1,0.1c0.3 -0.2 -0.1 -0.8 -0.1 -1c0.3 -0.2,0.7 -0.3,0.9 -0.3c0.2,0.1,0.4,0.7,0.6,1.3c0,0.1,0.1,0.2,0.2,0.2c0.2 -0.1,0.1 -0.4,0.1 -0.7c0.5 -0.1,1.5 -0.3,1.6 -0.2c-0.3,1.1 -0.9,1.9 -1.3,2.5c0,0,0.1,1.2,0.3,1.2c0.1,0,0.2 -0.2,0.2 -0.3c0.7 -1,1.6 -2.2,1.1 -3.9c-0.1 -1.2 -1.5 -0.6 -2.2 -0.2c-0.2 -0.5 -0.6 -0.9 -0.7 -1c-0.2 -0.1 -1,0.3 -1.4,0.6c-0.7 -0.7 -2.4 -0.9 -2.8,0.4c-2.4 -1.2 -7.5 -2.1 -11.1 -0.7c-0.1 -0.5 -0.2 -0.5 -0.3 -0.5c-0.6,0.2 -1.3,0.3 -1.8,0.5c-0.7 -1.6 -1.9 -2.1 -4 -2.5c-0.3 -0.1 -0.4,0.2 -0.1,0.3c1.2,0.6,3,1.4,3.7,2.4c-0.5,0.7 -0.1,1.8,0.6,2.3c0.3,0.2,0.4,0.2,0.7,0C62.9,64,63.2,63.7,63.6,63.4M64.6,60.4c-0.8 -0.3 -2.5 -1 -3.2 -1.3c-0.1,0 -0.1 -0.1 -0.2 -0.3c0 -0.1 -0.2 -0.4 -0.1 -0.5c0.4,0,2.8,1.2,3.3,1.3c0.2,0.1,0.2,0.4,0.2,0.6C64.8,60.4,64.7,60.5,64.6,60.4M79.6,57.6c0 -0.1,0.1 -0.2,0.2 -0.1c0.9,0.4,3.8,1.5,4,1.6c0.2,0.1,0.2,0.4,0.2,0.6c0,0,0,0.1,0,0.1c-0.6 -0.1 -3.5 -1.3 -4.2 -1.5C79.7,58.1,79.7,57.7,79.6,57.6M76.2,67.7c0.3,0.6,1.1,0.5,1.6,0.3c-0.2 -0.1 -1 -0.5 -1.2 -0.6c-0.1 -0.1 -0.2 -0.2 -0.2 -0.3c0 -0.1,0.2 -0.2,0.3 -0.1c0.8,0.3,0.9,0.1,1.7,0.8c0.1,0.1,0.3,0.5,0.3,0.6c0,0.1 -0.1,0.1 -0.3,0.2c-0.4,0.1 -0.8,0.3 -1.2,0.3c-0.6,0 -1.1 -0.4 -1.3 -1C75.9,67.7,76.1,67.5,76.2,67.7M53.1 -64c-0.1 -0.3 -0.7 -0.8 -0.3 -1c0.2 -0.1,0.8 -0.6,1 -0.3c0.1,0.2,0.6,0.8,0.4,0.9C53.9 -64.4,53.3 -63.8,53.1 -64M30.5 -66c-0.1 -0.3 -0.7 -0.8 -0.3 -1c0.2 -0.1,0.8 -0.6,1 -0.3c0.1,0.2,0.6,0.8,0.4,0.9C31.2 -66.3,30.6 -65.7,30.5 -66M39.3 -70.2c-0.2,0.1 -0.4,0.4 -0.6,0.2c-0.1 -0.2 -0.3 -0.5 -0.4 -0.7c-0.2,0.1 -0.5,0.3 -0.7,0.4c-0.1,0.1 -0.2,0.1 -0.3 -0.1c0,0 -0.3 -0.4 -0.5 -0.7c-0.2 -0.3,0.7 -0.6,0.9 -0.7c0.1 -0.1,0.2,0,0.2,0.1c0.1,0.2,0.2,0.3,0.4,0.6c0.3 -0.2,0.5 -0.3,0.7 -0.4c0.3 -0.1,0.5,0.5,0.7,0.7C40 -70.4,39.6 -70.4,39.3 -70.2M62.5 -57c0,1.4 -2.1,1.4 -2.2,0C60.4 -58.5,62.5 -58.5,62.5 -57M64.2 -57.7c-0.9 -0.4 -1.6 -0.6 -2.5 -1c-0.1,0 -0.1 -0.1 -0.2 -0.2c0 -0.3 -0.3 -1.2 -0.2 -1.5c0.5 -2.8,1.3 -5.5,1.5 -8.3c0 -0.2,0.1 -0.2,0.1 -0.2c0.8,1.2,0.3,3.1,0,4.7c-0.3,1.3 -0.3,1.2 -0.5,2.4c-0.1,1 -0.6,2 -0.4,2.6c0.7,0.3,1.1,0.4,1.9,0.8c0.2,0.1,0.2,0.4,0.3,0.7C64.4 -57.7,64.3 -57.6,64.2 -57.7M37.5 -66.8c0.7,0,1.3,0.4,1.5,1.2c0.2 -0.8,0.6 -3.9,2.2 -3.8c2.6,0.1,0.8,4.9,0.5,6.6c-0.2,1.2 -0.6,1.4,0,2.3c-0.1,0.4 -0.4,0.5 -0.6,1.2c0,0.1,0,0.1 -0.1,0.1c0,0 -0.1,0 -0.2 -0.1c-0.1 -0.3 -0.5 -0.7 -0.5 -1c0.1 -0.3,0.2 -0.5,0.4 -0.7c0.2 -1.8,1 -4.9,1.3 -6.8c-0.5 -0.9 -1.7 -0.2 -2.1,0.8c-0.4,1 -0.4,2 -0.7,2.8c0,0.1 -0.2,0.3 -0.3,0c-0.2 -1 -1 -1.6 -1.8 -1.4c-0.1,0.2 -0.2,0.6 -0.4,0.7c-0.2,0 -0.3 -0.8 -0.3 -1.1c2.4 -3.2 -4.3 -4.2 -7.4 -4.2c-3.9,0.1 -6.4,0.6 -9,2.4c-0.3,0.2 -0.4,0.1 -0.3 -0.1c1.8 -3,5.2 -3.4,8.7 -3.5C31.7 -71.4,38.1 -70.8,37.5 -66.8M57.2 -67.3c-0.4,0.5 -1,0.6 -1.2,0.5c-1.2 -0.1 -2.1 -1.3 -2.9 -2.1c0.1,0,0.2,0,0.3,0C54.9 -68.8,56.5 -68.2,57.2 -67.3M59.4 -61.4c0.2 -1.6,0.8 -3.4,0.9 -5c0 -1.1 -0.3 -1.9 -1 -2.4c-1.9 -1 -5.5 -1.4 -7.8 -1C51.4 -70,51.1 -71,51 -71.2c-0.1 -0.4 -0.4 -0.2 -0.4,0.1c0.1,0.4,0.4,1.1,0.5,1.5c-0.3,0.2 -0.7,0.4 -1,0.6c-1 -1.2 -4 -1.8 -4.9,0c-0.9,1.7 -0.8,5.6 -1.3,7.8c0,0.2,0.1,1,0.3,1.1c0.5 -0.8,0.6 -3.2,0.8 -4.4c0.2 -1.6,0.1 -3.4,1.4 -4.1c1.1 -0.4,2.3 -0.4,3.4,0.5c0.3,0.3,0.4,0.3,0.7,0.2c0.5 -0.3,1.1 -0.6,1.6 -0.7c1.6,0.9,2.9,3.9,4.9,2.8c0.9 -0.6,0.4 -1.9 -0.2 -2.6c0.8,0.1,2.6,0.7,2.9,1.2c-0.5,2.1 -0.7,4.6 -1.4,6.7c-0.1,0,0.3,0.9,0.5,1c0.1,0,0.2 -0.5,0.6 -0.8c0.2 -0.2,0.3 -0.3,0.3 -0.5C59.7 -61,59.5 -61.3,59.4 -61.4M43.6 -58.5c-0.1,0.1 -0.2,0 -0.3,0c-0.2 -0.1 -0.9 -1.8 -0.3 -1.3c0.1,0.2,0.2,0.5,0.3,0.6c0.4 -0.2,0.9 -0.4,1.4 -0.3c0.8,0,2.2,0.6,2.3,1.6c0,0.1 -0.1,0.1 -0.2,0C46.1 -58.7,44.4 -59.2,43.6 -58.5M54.2 -61.3c-0.1,0.3 -0.3 -0.3 -0.4 -0.4c-0.1 -0.1,0.1 -0.4,0.1 -0.5c-0.4 -0.3 -0.7 -0.1 -0.6,0.4c0.1,0.5 -0.4,0.1 -0.4 -0.1c0 -0.5 -0.4 -0.9 -0.9 -0.7c-0.2,0.1,0.2,0.6,0,0.7c-0.1,0 -0.1,0 -0.2 -0.2c-0.7 -1.3,0.6 -1.9,1.2 -0.8C53.9 -63.6,54.6 -62.3,54.2 -61.3M39.8 -57.4c-0.1,0 -0.1,0 -0.2 -0.2c-0.7 -1.3,0.6 -1.9,1.2 -0.8c0.4 -0.4,1.2 -0.2,1.3,0.4c0.1,0.2,0.2,1 -0.1,1.2c-0.1,0 -0.2 -0.4 -0.3 -0.4c-0.1 -0.1,0.1 -0.4,0.1 -0.5c-0.4 -0.3 -0.7 -0.1 -0.6,0.4c0,0.1,0,0.2,0,0.2c-0.1,0 -0.4 -0.2 -0.3 -0.3c0 -0.5 -0.4 -0.9 -0.9 -0.7C39.7 -58,40 -57.5,39.8 -57.4M71.2 -66.5c-0.1 -0.5 -0.8 -1 -0.8 -1.2C71.4 -67.5,71.9 -67.7,71.2 -66.5M71.8 -68.5c-0.4 -0.2 -2 -0.5 -3.1 -0.6c-0.1,0 -0.1,0 -0.1,0.1c-0.1,0.2,0,0.9,0.1,1c0.1,0.2,0.5,0.2,0.7,0.2c0.8,0.7,1.1,1.1,1.4,1.6c-0.9,1.6 -2.5,2.6 -3.8,3.7c-0.2 -0.3 -0.3 -0.3 -0.5 -0.3c-0.4,0.1 -1.2,0.5 -1.4,0.8c-0.2,0.5 -0.4,2.1,0,2c2 -1,4.9 -3.5,6 -5.5c0.5,2.1,0.4,4.3 -0.1,5.9c-0.4,0.7 -0.3,0.9,0.2,1.7c0.2,0.2,0.3,0,0.3 -0.2c0 -0.3,0.8 -1,0.8 -1.2c-0.1 -0.2 -0.3 -0.4 -0.4 -0.7c0.3 -2.4,0.1 -4.5 -0.5 -6.1C71.8 -66.7,72.1 -67.8,71.8 -68.5M43.7 -70.8c-0.7 -0.4 -3.2 -1.2 -3.6 -1.6c0 -0.2 -0.4 -0.8,0 -0.6c1,0.5,2.5,1,3.5,1.5c0,0,0.1,0,0.1,0.1C43.7 -71.2,44.1 -70.7,43.7 -70.8M32.7 -62.4c0,0.1,0,0.2 -0.1,0.2c-0.8 -0.3 -4.1 -1.4 -4.8 -1.7c-0.1,0 -0.1 -0.1 -0.2 -0.3c0 -0.1 -0.3 -0.5 -0.1 -0.6c1.3,0.5,3.6,1.3,4.9,1.8C32.5 -63,32.5 -62.7,32.7 -62.4M55.3 -59.1c0,0.1,0,0.2 -0.1,0.2c-0.8 -0.3 -4.1 -1.4 -4.8 -1.7c-0.1,0 -0.1 -0.1 -0.2 -0.3c0 -0.2 -0.2 -0.4 -0.1 -0.5c0.2,0,0.5,0.2,0.9,0.3c1,0.4,3,1,4,1.4C55.1 -59.6,55.2 -59.3,55.3 -59.1M68.9 -57.9c1.1,0.4,2.9,1.1,4,1.5c0.2,0.1,0.2,0.4,0.3,0.6c0,0.1,0,0.2 -0.1,0.2c-0.7 -0.4 -3.6 -1.2 -4.1 -1.6C68.9 -57.4,68.5 -58,68.9 -57.9M-18.1 -42.8c0.4,0.1,0.6,0.2,1,0.3c0.6,0.3,1,0.6,1.1,1.2c0,0.1 -0.1,0.1 -0.3,0.2c-0.4,0.1 -0.7,0.2 -1.1,0.3c-0.6,0.1 -1.2 -0.4 -1.4 -1c0 -0.1,0 -0.2,0.1 -0.2c0.2 -0.1,0.3,0.3,0.4,0.3c0.4,0.3,0.9,0.2,1.4,0c-0.2 -0.1 -1 -0.5 -1.2 -0.6C-18.3 -42.5 -18.4 -42.8 -18.1 -42.8M-4.9 -43c0.9,0.2,2,0.6,2.1,1.5c0,0.1 -0.1,0.1 -0.3,0.2c-0.4,0.1 -0.7,0.2 -1.1,0.3c-0.7,0.1 -1.2 -0.4 -1.4 -1c-0.1 -0.2,0.1 -0.3,0.2 -0.1c0.3,0.6,1.1,0.5,1.6,0.3c-0.2 -0.1 -1 -0.5 -1.2 -0.6C-5.1 -42.6 -5.2 -42.9 -4.9 -43M-1.9 -49.7c-0.1,0.1 -0.2,0.2 -0.4,0.2c-0.2,0.1 -0.4,0.4 -0.6,0.2c-0.1 -0.2 -0.3 -0.5 -0.4 -0.7c-0.2,0.1 -0.5,0.3 -0.7,0.4c-0.1,0.1 -0.2,0.1 -0.3,0c0,0 -0.3 -0.4 -0.5 -0.7c0 -0.1,0 -0.2,0.1 -0.3c0.2 -0.1,0.6 -0.4,0.8 -0.4c0.3,0.1,0.3,0.4,0.5,0.7c0.3 -0.1,0.7 -0.6,1 -0.4C-2.1 -50.4 -1.6 -49.9 -1.9 -49.7M-7 -48.9c-0.5,0.5 -1.8,0.7 -2.5,0.7c-0.1,0 -0.1,0,0 -0.1C-9 -49.5 -7.3 -50.2 -7 -48.9M-9.5 -46.3c0.6,0.2,1.5,1,1.7,1.5c-0.1,0.3 -0.3,0.6 -0.5,0.6C-8.9 -44.3 -9.4 -45.6 -9.5 -46.3M-16.6 -46.7L-16.6 -46.7c-0.4,0.4 -0.3,1.1 -0.7,1.3c-0.3,0.2 -0.8 -0.4 -0.7 -0.7C-17.7 -46.4 -17 -46.7 -16.6 -46.7M6.4 -45.1c0.4 -0.8 -0.8 -1.6 -1.4 -2.1c-1.8 -1 -4.4 -1.8 -5.3,0.7C-0.9 -48.3 -2 -48 -3.1 -46.9c-0.7 -0.6 -2.7 -1.1 -3.7 -1.2c0.5 -0.5,0.2 -2.8 -0.9 -2.7c-1.2,0 -2,1.1 -2.2,2.5c-0.3,0 -0.7,0 -1.1,0c-0.2,0 -0.1,0.2 -0.1,0.3c0,0.1,0,0.1,0,0.2c-1.1 -0.4 -3.9 -0.3 -4.7,0.3c0 -0.2 -0.1 -0.5 -0.2 -0.5c-0.4,0 -1.3,0.3 -1.8,0.5c-0.4 -1.5 -2.4 -2 -3.4 -2.3c-0.2 -0.1 -0.6 -0.2 -0.7 -0.2h-0.1c-0.1,0 -0.1,0.1,0,0.1c1,0.7,3.1,1.7,3.8,2.5c-0.8,0.7 -0.3,2,0.5,2.5c0.2,0.1,0.5,0.2,0.6 -0.1l0.3 -0.4c1.2 -2.1,5 -1.8,6.7 -1.1c0.4,1.1,0.6,2.9,1.8,3.3c0.5,0,0.7 -0.7,0.7 -1.2c0 -1.6 -1.2 -2.5 -1.8 -2.9c1.7,0,5.8,0.5,6.6,1.9c0.3 -0.1,0.1 -0.7,0 -0.9c0.4 -0.3,1.2 -0.3,1.3 -0.3c0.5,0,0.7,0.5,0.8,0.9c-0.4,1.4 -0.6,3.1 -0.8,4.6c0,0.2 -0.1,0.7 -0.1,0.9c0,0.4,0.1,1.5,0.4,1.3c0.2 -0.9,0.4 -2,0.5 -3.1c0.3 -1.8,0.3 -4.9,2.4 -5c-1.1,1.3,0,3.8,1.7,3.9c0.5,0,1.7 -0.3,1.7 -1c-0.1 -0.1 -0.2 -0.1 -0.3,0c-0.9,0.4 -2.5 -0.3 -2.9 -0.9C2.7 -47.9,5.1 -46.3,6.4 -45.1M-5.9 -51.3c-0.7 -0.3 -3.2 -1.2 -4.1 -1.6c-0.1,0 -0.1,0 -0.1 -0.1c0 -0.2 -0.4 -0.8,0 -0.7c1.2,0.5,2.8,1,4,1.6c0.2,0.1,0.2,0.4,0.3,0.6C-5.7 -51.4 -5.8 -51.3 -5.9 -51.3M0.5 -41.3c1.2,0.5,2.7,1,4,1.6c0.1,0,0.1,0,0.1,0.1c0,0.2,0.4,0.7,0,0.7c-0.5 -0.3 -3.7 -1.3 -4.2 -1.7C0.5 -40.8,0.1 -41.4,0.5 -41.3M0.5 -37.1c0.2,0.1,0.2,0.4,0.3,0.6c0,0.1,0,0.2 -0.2,0.1c-0.5 -0.2 -1.6 -0.6 -2.6 -1c-0.7 -0.3 -1.4 -0.4 -1.6 -0.7c0 -0.2 -0.3 -0.5 -0.1 -0.7c0.3,0,1.5,0.6,2.2,0.8C-1 -37.7,0 -37.3,0.5 -37.1M36.1 -38.7c-0.4,0.1 -0.7,0.2 -1.1,0.3c-0.6,0.1 -1.2 -0.4 -1.4 -1c-0.1 -0.2,0.1 -0.3,0.2 -0.1c0.2,0.4,0.6,0.5,1,0.4c1 -0.2,0.5 -0.2 -0.1 -0.6c-0.3 -0.2 -0.7 -0.2 -0.6 -0.5c0 -0.1,0.2 -0.2,0.3 -0.1c0.4,0.1,0.5,0.1,0.9,0.3c0.6,0.3,1,0.6,1.1,1.2C36.4 -38.7,36.3 -38.7,36.1 -38.7M34.7 -42.1c-0.1 -0.1,0 -0.2,0.1 -0.3c0.2 -0.1,0.6 -0.3,0.8 -0.4c0.2,0.1,0.4,0.6,0.5,0.8c0.2,0.3 -0.6,0.5 -0.8,0.7C35.1 -41.1,34.8 -41.9,34.7 -42.1M28 -41.9c-0.1 -0.3 -0.7 -0.8 -0.3 -1c0.2 -0.1,0.6 -0.3,0.8 -0.4c0.3,0.1,0.4,0.6,0.5,0.8c0.1,0.1,0.1,0.2,0,0.3C28.8 -42.3,28.1 -41.7,28 -41.9M16.9 -45.2c-0.1,0.7 -0.5,1.5 -1.2,1.8c-0.1,0 -0.1 -0.1 -0.1 -0.2c0 -0.3 -0.4 -0.9 -0.2 -1.1c0.3 -0.3,0.7 -0.7,0.8 -1.1c-1.2 -1 -9.5 -2.5 -7.7,1.7c0.1,0.3 -0.1,0.4 -0.3,0.1c-1.5 -2.6 -0.1 -4.2,2.9 -4.1C13.5 -47.9,16.9 -47.8,16.9 -45.2M46.6 -35.7c0 -1.4,2.1 -1.4,2.2,0C48.8 -34.3,46.7 -34.3,46.6 -35.7M49.3 -43.2c-0.3,1.9 -0.9,3.8 -1.1,5.8c0,0.2 -0.2,0.3 -0.3,0l-0.1 -0.9c0.3 -3,1.3 -5.8,1.5 -8.9c0 -0.2,0.3 -0.1,0.4,0c0.1,0.1,0.4,0.2,0.5,0.2c0.4,0.2,0.5,0.2,1.2,0.5c0.1,0,0.1,0.1,0.2,0.1c0,0.1,0.4,0.8,0,0.7c-0.9 -0.4 -1 -0.4 -1.9 -0.8C49.7 -45.3,49.6 -44.5,49.3 -43.2M20.8 -46.7c-0.2,0.4 -0.5,1.3 -0.9,1C18.9 -46.4,20 -46.7,20.8 -46.7M27.2 -47.1c1.8 -0.2,3.9,0.6,4.5,1.4c-0.2,0.2 -0.7,0.5 -1.2,0.6c-0.3,0.1 -1 -0.1 -1 -0.1C28.9 -45.6,27.9 -46.6,27.2 -47.1M40.5 -45.8c0.4 -0.3,1 -0.4,1.6 -0.5c-0.4,0.3 -0.7,1.2 -0.9,1.3c-0.3,0 -0.6 -0.4 -0.8 -0.6C40.4 -45.6,40.4 -45.7,40.5 -45.8M15.2 -51c-0.3,0.1 -0.5,0.3 -0.2,0.4c1.2 -0.1,2.4 -0.3,3.4,0.2c1.1,0.4,2,1.3,2.6,2.5c-0.3,0 -0.6,0 -1,0c-1.3,0.1 -1.2,1.6 -0.8,2.3c1.1,2.2,2.1,0.3,2.4 -1.1c0.6,0,2.4,0.7,2.8,1c0.2,0.2,0.5,0,0.4 -0.3l-0.1 -0.4c0.4 -0.4,1.3 -0.8,1.8 -0.7c1,0.7,2.4,2,3.3,2.7c0.4,0.3,1,0.4,1.6,0.3c1.6 -0.3,0.8 -2.4 -0.1 -3.2c0.3,0,6.1,0.7,3.6,1.5c-0.3,0.1 -0.6,0.2 -0.8,0c-0.2 -0.2 -0.4 -0.1 -0.3,0.2c0.3,1.2,0.8,1.5,1.9,1.5c0.8,0,2.2 -0.3,1.8 -1.3c-0.1 -0.4 -0.4 -0.9 -0.6 -1.1c1.2 -0.7,2.5,0,3.2,1.1c0.3,0.4,0.6,1,1.1,1.1c0.2,0,0.3 -0.1,0.4 -0.3c0.3 -0.5,0.7 -0.9,1.2 -1.2c0.8 -0.4,2.9 -0.5,3.4,0.3c-0.6,2.3 -0.7,4.7 -1.6,6.8c0,0.1 -0.1,0.2,0,0.3c0.1,0.2,0.4,1.2,0.6,0.7c0.1 -0.4,0.3 -0.7,0.7 -1.1c0.1 -0.2,0.1 -0.3,0 -0.4c-0.7 -0.7,0 -1.6,0.1 -2.5c0.3 -1.5,0.9 -3.5,0.4 -4.7c-0.6 -1.2 -2.6 -0.9 -3.7 -0.6c0 -0.1,0 -0.4 -0.1 -0.5c0 -0.1,0 -0.1 -0.1 -0.1h-0.3c-0.9,0.2 -1.9,0.2 -2.3,0.9c-1.1 -1.3 -2.4 -2 -3.9 -0.4c-3.1 -1.6 -7.1 -1.8 -10.5 -1.3c-0.3 -0.5 -0.4 -1.3 -0.8 -1.7c-0.1,0 -0.1,0 -0.2,0.2c0,0.5,0.3,1.3,0.5,1.7c-0.4,0.2 -0.8,0.6 -1.2,1.1c-0.9 -0.4 -1.7 -0.8 -2.4 -0.9C20.6 -51.6,18.4 -52,15.2 -51M43.9 -37c0.1 -0.1,0.9,0.2,1.1,0.3c0,0,0.6,0.3,0.8,0.6c0.1,0.1,0.3,0.5,0.3,0.6c0,0.2 -0.6,0.2 -0.8,0.3c-0.8,0.4 -1.7,0 -2 -0.9c-0.1 -0.2,0.1 -0.3,0.2 -0.1c0.1,0.1,0.1,0.2,0.2,0.3c0.4,0.3,0.9,0.2,1.4,0c-0.2 -0.1 -0.9 -0.5 -1.2 -0.6C43.8 -36.6,43.7 -36.9,43.9 -37M27.9 -38.1c-0.1 -0.1 -0.2 -0.2 -0.2 -0.3c0,0 -0.1 -0.2,0 -0.2c0.5 -0.2,0.5 -0.2,0.8 -0.3C28.5 -38.5,28.3 -37.7,27.9 -38.1M28.7 -39.7c-0.4 -0.7 -1.4 -1.6 -2.7 -2c-0.3,0 -0.2,0.3,0.1,0.4c0.3,0.2,1.6,1,2,1.7c-0.6,0.2 -1.2,0.2 -1,0.9c0.6,1.7,1.9,1.7,1.8 -0.3l0 -0.1l0.4 -0.1c0.1 -0.1 -0.1 -0.3 -0.1 -0.5C29.1 -39.9,28.8 -39.7,28.7 -39.7M14.7 -51.3c-0.7 -0.3 -4.1 -1.4 -4.8 -1.7c-0.2 -0.1 -0.2 -0.5 -0.3 -0.7c0 -0.1,0.1 -0.1,0.2 -0.1c1.3,0.5,3.4,1.2,4.8,1.7c0.2,0.1,0.2,0.4,0.3,0.6C14.9 -51.4,14.8 -51.3,14.7 -51.3M38.7 -40.6c-0.1,0 -0.1,0 -0.1 -0.1c0 -0.2 -0.4 -0.8,0 -0.7c1.2,0.5,2.8,1,4.1,1.6c0.2,0.1,0.2,0.4,0.3,0.6c0,0.1,0,0.2 -0.2,0.1C42 -39.3,39.3 -40.3,38.7 -40.6M62.2 -40.7c-0.1 -0.3 -0.7 -0.9 -0.4 -1.1c0.2 -0.1,0.8 -0.6,1 -0.3c0.1,0.2,0.7,0.8,0.4,1c-0.2,0.1 -0.6,0.3 -0.8,0.5C62.3 -40.6,62.2 -40.6,62.2 -40.7M56.6 -50.5c0.3 -0.1,0.7 -0.6,1 -0.4c0.1,0.3,0.7,0.8,0.3,1c-0.1,0.1 -0.5,0.3 -0.7,0.5c-0.1,0.1 -0.2,0.1 -0.3,0c-0.1 -0.2 -0.3 -0.5 -0.4 -0.7c-0.2,0.1 -0.4,0.3 -0.7,0.4c-0.1,0.1 -0.2,0.1 -0.3,0c0,0 -0.3 -0.4 -0.5 -0.7c0 -0.1,0 -0.2,0.1 -0.3c0.2 -0.1,0.6 -0.4,0.8 -0.4C56.3 -51.1,56.4 -50.8,56.6 -50.5M50.1 -49.7c-0.7,0 -1.5,0.3 -2.3,0.4c-0.2 -0.1 -0.1 -0.2,0 -0.3c0.6 -0.5,3.7 -1.3,4.8 -0.6c1.1,0.7,2.1,2.4,2.1,3.8c0.5,0.2,1.1,0.6,1.2,1.2c0.2 -0.8,0.3 -1.7,0.7 -2.4c2.1 -2.2,8.2,0.4,9.3,1.3c0.2,0.2,0.4,0.9,0.1,0.9c-0.7 -0.4 -1.6 -0.9 -2.5 -1.2c-0.8 -0.2 -1.7,0.6 -1.8,1.6c0.7,0.6,2.2,1.3,3.1,0.6c0.1 -0.1,0.2 -0.1,0.2,0c0.1,0.1,0.1,0.2,0,0.3c-0.2,0.4 -1.3,0.9 -1.8,0.9c-1.7 -0.1 -2.6 -2.8 -1.6 -3.8c-2.6 -0.5 -4.8 -0.5 -5.3,2.6c-0.1,0.4 -0.2,0.8 -0.3,0.9c-0.1,0.2 -0.3,0.2 -0.3,0c0,0 -0.1 -0.5 -0.2 -0.7c-0.2 -1 -1.2 -1.3 -2 -1.1c-0.1,0 -0.1,0 -0.1 -0.1c-0.1 -0.4 -0.2 -1.2,0.5 -1.1c0.1,0,0.2,0,0.2,0C53.4 -49.3,51.3 -49.7,50.1 -49.7M54.5 -40c-0.2 -0.3 -0.1 -0.6,0.1 -0.4c0.1,0.1,0.1,0.2,0.2,0.3c0.4,0.3,0.9,0.2,1.4,0c-0.2 -0.1 -0.5 -0.3 -0.7 -0.4c-0.3 -0.2 -0.7 -0.2 -0.6 -0.5c0,0,0.1 -0.1,0.2 -0.1c0.2,0,0.6,0.1,1,0.3c0.9,0.4,1,0.5,1.1,1.1c0,0.1 -0.3,0.2 -0.5,0.2C55.9 -39.2,54.9 -39.1,54.5 -40M54.1 -51.7c0.1,0,0.1,0,0.1,0.1c0,0.1,0.4,0.7,0,0.7c-0.4 -0.2 -1.2 -0.5 -2.1 -0.8c-0.9 -0.4 -1.8 -0.6 -2.1 -0.9c-0.4 -1,0 -0.6,0.8 -0.3C51.8 -52.5,53 -52.1,54.1 -51.7M59.7 -40.4c1.3,0.5,3.4,1.2,4.8,1.7c0.2,0.1,0.2,0.4,0.3,0.6c0,0.1,0,0.2 -0.2,0.1c-0.8 -0.4 -4.3 -1.3 -5 -1.9C59.6 -39.9,59.3 -40.5,59.7 -40.4M-29.9 -20.8c-0.2,0.1 -0.2,0 -0.3 -0.1c-0.3 -0.7 -0.4 -0.6 -1 -0.2c-0.1,0.1 -0.2,0.1 -0.3,0c0,0 -0.3 -0.4 -0.5 -0.7c-0.2 -0.3,0.7 -0.6,0.9 -0.7c0.1 -0.1,0.2,0,0.2,0.1c0.1,0.2,0.2,0.3,0.4,0.6c0.3 -0.2,0.5 -0.3,0.7 -0.4c0.3 -0.1,0.5,0.6,0.7,0.7c0.1,0.2,0,0.2 -0.1,0.3C-29.3 -21.1 -29.7 -20.9 -29.9 -20.8M-13.9 -18.9c-0.1 -0.3 -0.4 -0.5 -0.4 -0.8c0.1 -0.2,0.6 -0.4,0.9 -0.5c0.3,0.1,0.4,0.6,0.5,0.7c0,0.1,0.1,0.2,0,0.2C-13.2 -19.2 -13.8 -18.7 -13.9 -18.9M-32.8 -19.5c0 -0.1 -0.2 -0.4 -0.1 -0.5c0.1 -0.1,0.5,0.2,0.5,0.2c0.5,0.2,3,1.2,3.7,1.4c0.2,0.1,0.2,0.4,0.3,0.6c0,0.1,0,0.2 -0.2,0.1c-0.8 -0.3 -3.3 -1.3 -4 -1.6C-32.7 -19.3 -32.8 -19.4 -32.8 -19.5M-10 -23.1c0.2 -0.9,0.3 -1.9,0.4 -2.9c0 -0.3,0.2 -0.2,0.3,0c0.6,3.1 -1,6.6 -1.3,9.7c0,0.3 -0.3,0.3 -0.3,0c0 -0.3 -0.2 -1.1 -0.1 -1.4C-10.8 -19.4 -10.4 -21.4 -10 -23.1M-24.2 -19.9c0.4,0.1,0.7,0.2,1.1,0.3c0.1,0,1.1,0.7,1.1,1.2c0,0.1 -0.1,0.1 -0.3,0.2c-0.4,0.1 -0.7,0.2 -1.1,0.3c-0.6,0.1 -1.2 -0.4 -1.4 -1c0 -0.1,0 -0.2,0.1 -0.2c0.2 -0.1,0.3,0.2,0.4,0.3c0.4,0.3,1,0.2,1.4,0c-0.2 -0.2 -0.9 -0.5 -1.2 -0.6C-24.4 -19.6 -24.5 -19.9 -24.2 -19.9M-22.5 -25c-0.1,0.2 -0.2,0.4 -0.3,0.6c-0.2,0.4 -0.2,0.6 -0.4,0.6c-0.2,0 -0.7 -0.3 -0.7 -0.6C-23.8 -24.7 -22.7 -24.9 -22.5 -25L-22.5 -25zM-22 -26.3c-0.3,0 -2.1,0.2 -2.2,1.2c-0.3 -0.4 -0.9 -0.9 -1.3 -0.9c-0.6,0 -1.2,0.5 -1.5,1c-1.3 -1.2 -5.1 -1.9 -7.1 -1.2c-1.7,0.5 -1.8,2.6 -0.9,3.7c0.2,0.3,0.5,0.2,0.3 -0.1c-1.4 -3.8,5.3 -2.7,6.9 -1.8c0.8,0.4,0.8,0.6,1.4,1.2c0.3 -0.2,0 -0.9 -0.2 -1.2c0.4 -0.4,0.9 -0.5,1.4 -0.4c0.7,0.2,1.5,1.6,2.3,1.9c0.2,0,0.3 -0.2,0.4 -0.3c0.2 -0.3,0.5 -0.8,1.2 -1.2c1.5 -0.9,4.4 -0.4,5.7,0.3c-0.1,0.2 -0.5,0.3 -0.9,0.3c-0.3,0 -0.5 -0.2 -0.7 -0.1c-0.1,0.4,0.3,1.2,0.7,1.3c1.2,0.6,3.8 -0.1,2.2 -1.8c0.6 -0.3,2 -0.2,2.2,0.4c-0.2,0.7 -0.5,1.3 -1,1.8c-0.1,0.1,0,1.1,0.2,1.1c0.9 -0.4,2 -3.2,0.7 -4.3c-0.8 -0.6 -2.2 -0.5 -2.9,0.4c-1.8 -1.1 -4.7 -1.6 -6.7 -0.6C-21.8 -25.8 -21.8 -26.3 -22 -26.3M-15.6 -18.9c-0.8 -0.4 -3.3 -1.2 -3.7 -1.6c0 -0.2 -0.4 -0.7,0 -0.6c0.7,0.3,2.9,1.2,3.6,1.5c0.2,0.1,0.2,0.4,0.3,0.6C-15.5 -18.9 -15.5 -18.9 -15.6 -18.9M-11.9 -15.2c-0.1,0 -0.1 -0.1 -0.1 -0.1c0 -0.1 -0.2 -0.4,0 -0.5c0.4,0.2,1.4,0.5,2,0.7c0,0,0.1,0,0.2,0.4c0,0.1,0.1,0.2,0,0.2c0,0 -0.1,0 -0.1,0c-0.3 -0.1 -0.5 -0.1 -0.9 -0.1c-0.4,0 -0.9,0.4 -1,0.5c0.1,0.1,0.5,0.2,0.5,0.2c0.3,0,0.3 -0.3,0.5 -0.4c0.2,0,0.4,0.5,0.4,0.5c0,0.2 -0.3,0.5 -0.5,0.5c-0.4,0 -1.8 -1 -1.2 -1.6C-12.1 -15 -11.6 -15.1 -11.9 -15.2M-9.4 -11.4c0,0.1 -0.1,0.2 -0.2,0.1c-0.8 -0.3 -3.3 -1.3 -4 -1.6c-0.2 -0.1 -0.2 -0.4 -0.3 -0.6c0 -0.1,0.1 -0.1,0.2 -0.1c1.2,0.5,4,1.6,4,1.6C-9.4 -12 -9.4 -11.6 -9.4 -11.4M-13.1 -16.6c-0.4,0.1 -0.7,0.2 -1.1,0.3c-0.7,0.1 -1.2 -0.4 -1.4 -1c0 -0.1,0 -0.2,0.1 -0.2c0,0,0.1,0,0.2,0.1c0.2,0.4,0.6,0.5,1,0.4c0.2,0,0.5 -0.1,0.6 -0.2c-0.2 -0.1 -0.6 -0.3 -0.8 -0.4c-0.3 -0.2 -0.5 -0.2 -0.6 -0.5c0.1 -0.3,0.6,0,0.8,0c0.5,0.2,0.6,0.1,1.3,0.7C-12.8 -16.9 -12.6 -16.6 -13.1 -16.6M27 -7.6c0.9,0.4,3.9,1.5,4,1.6c0,0,0.1,0,0.1,0.1c0,0.1,0.2,0.4,0.1,0.6c-0.5,0 -1.2 -0.5 -2.1 -0.7c-0.9 -0.4 -1.9 -0.6 -2.2 -1C26.9 -7.2,26.6 -7.8,27 -7.6M14.8,0c-0.1 -0.3 -0.4 -0.5 -0.4 -0.8C14.4 -1,15 -1.3,15.2 -1.4c0.2,0.1,0.4,0.5,0.5,0.7c0,0.1,0.1,0.2,0,0.2C15.5 -0.3,15,0.2,14.8,0M35,5.1c0,0,0,0.1,0,0.1c-0.5,0 -1.2 -0.5 -2.1 -0.7c-0.9 -0.3 -1.7 -0.7 -2.1 -0.8c-0.2 -0.1 -0.2 -0.4 -0.3 -0.6c0 -0.1,0 -0.1,0.1 -0.1c0.3,0.1,0.7,0.3,1,0.4c1.1,0.4,3.1,1.2,3.2,1.2C34.9,4.6,34.9,5,35,5.1M45.7,4.2c-0.1 -0.3 -0.4 -0.5 -0.4 -0.8C45.4,3.3,46,3,46.2,2.9c0.3,0.1,0.4,0.6,0.5,0.7c0,0.1,0.1,0.2,0,0.2C46.4,4,45.9,4.5,45.7,4.2M42.1,0.9c0.1 -0.1,0.9,0.2,1.1,0.3c0.6,0.3,1,0.6,1.1,1.2c0,0.1 -0.1,0.1 -0.3,0.2c-0.4,0.1 -0.7,0.2 -1.1,0.3c-0.7,0.1 -1.2 -0.4 -1.4 -1c0 -0.1,0 -0.2,0.1 -0.2C41.8,1.6,41.9,2,42.1,2c0.4,0.3,0.9,0.2,1.4,0c-0.2 -0.1 -1 -0.5 -1.2 -0.6C42.1,1.3,41.9,1.1,42.1,0.9M47.8 -3.2c0.2,0.1,0.3,0.4,0.4,0.7c0.4,1.9 -0.5,3.1 -1.4,4.2c-0.2,0 -0.3 -1.2 -0.3 -1.2c0,0,0,0,0,0c0.5 -0.7,1 -1.5,1.3 -2.5c-0.1 -0.2 -1.2,0 -1.6,0.2c0.2,0.6 -0.1,0.9 -0.2,0.5c-0.2 -0.6 -0.4 -1.2 -0.6 -1.3c-0.1,0 -0.6,0.2 -0.9,0.3c0.1,0.3,0.4,0.8,0.2,1c0,0 -0.1,0 -0.2 -0.1c-0.8 -1.2 -1.1 -1.3 -2.6 -1.5c0.1,0.4,0.6,1.2,0.3,1.5c0,0 -0.1,0 -0.2 -0.1c-0.8 -1.4 -2.6 -1.6 -4.2 -1.7c-1.2 -0.1 -2.7,0.1 -3.4,1.1c-0.1,0.2 -0.3,0.2 -0.5,0c-1.3 -1.8 -3 -1.2 -3.6 -0.9c1.3,1.2,0.3,2.2 -1.2,2.2c-0.9,0 -2.3 -0.7 -1.9 -1.7c0,0,0.1,0,0.2,0c0.5,0.2,0.9,0,1.2 -0.4c-2.1 -0.9 -3.8 -0.7 -4.4,0.5c-0.3,0.2 -0.6,4 -1.3,2.7c-0.2 -0.5 -0.5 -1.2 -1.1 -1.2c-0.3,0 -0.4,0.1 -0.5,0.3c-0.1,0.2 -0.2,0.5 -0.4,0.6c-0.2 -0.1 -0.2 -0.6 -0.3 -0.8c0 -0.2 -0.1 -0.3 -0.1 -0.3c0.2 -0.5,0.6 -0.9,0.6 -1.5c-1.3 -2.3 -7.6 -3 -9.4 -2.6C9.6 -4.8,7 -3.6,6.1 -2.9C6 -2.8,5.8 -2.7,5.7 -2.8C5.6 -3,5.8 -3.1,5.8 -3.2c3.6 -4.1,11.8 -4.1,15.3 -0.4c0.4,0.5,0.4,1.3,0.5,1.7c0.8,0,1.1,0.8,1.3,1.5C23.5 -2,23.3 -4,25.4 -4.4c1.3 -0.3,2.9,0.3,3.9,0.9c0.6 -0.7,1.4 -1,2.2 -1c1,0,1.9,0.6,2.6,1.4c1.3 -2.1,6.3 -1,6.7 -0.6c1.7 -0.2,2.4,0.1,3,0.6c0.4 -0.3,1.2 -0.7,1.4 -0.6c0.2,0.1,0.5,0.5,0.7,1C46.3 -3,47.4 -3.5,47.8 -3.2M47.4,7.1c0,0.1,0,0.2 -0.2,0.1c-0.7 -0.4 -3.6 -1.3 -4.2 -1.7c0 -0.2 -0.2 -0.5 -0.1 -0.6c0.2 -0.1,0.7,0.3,1,0.4c0,0,3.1,1.2,3.2,1.2C47.3,6.6,47.3,6.9,47.4,7.1M14.9,4.7c-0.1 -0.1 -0.2 -0.2 -0.2 -0.3c0,0 -0.1 -0.2,0 -0.2c0.5 -0.2,0.5 -0.2,0.8 -0.3C15.6,4.2,15.4,5.1,14.9,4.7M15.9,3.8c0,0,0.4 -0.1,0.4 -0.2C16.3,3.4,16.2,2.9,16,3c-0.1,0 -0.2,0.1 -0.3,0.1c-0.4 -0.7 -1.5 -1.6 -2.7 -2c-0.1,0 -0.1,0 -0.1,0.1c0,0.1,0,0.2,0.2,0.3c0.3,0.2,1.6,1,2,1.7c-0.6,0.2 -1.2,0.2 -1,0.9c0.3,0.9,1.3,1.9,1.7,0.7C15.9,4.7,16,4.2,15.9,3.8M23.7 -5.4c-0.2,0.1 -0.4,0.4 -0.6,0.2c-0.1 -0.2 -0.3 -0.5 -0.4 -0.7c-0.2,0.1 -0.5,0.3 -0.7,0.4c-0.1,0.1 -0.2,0.1 -0.3 -0.1c0,0 -0.3 -0.4 -0.5 -0.7c-0.2 -0.3,0.7 -0.6,0.9 -0.7c0.1 -0.1,0.2,0,0.2,0.1c0.1,0.2,0.2,0.3,0.4,0.6c0.3 -0.2,0.5 -0.3,0.7 -0.4C23.8 -6.8,24 -6.1,24.2 -6C24.3 -5.7,23.9 -5.6,23.7 -5.4M33.5,2.2C33.3,2,33.2,1.7,33,1.5c-0.2,0.1 -0.5,0.3 -0.7,0.4c-0.1,0.1 -0.2,0.1 -0.3,0c0,0 -0.3 -0.4 -0.5 -0.7c-0.2 -0.3,0.7 -0.6,0.9 -0.7c0.1 -0.1,0.2,0,0.2,0.1c0.1,0.2,0.2,0.3,0.4,0.6c0.3 -0.2,0.5 -0.3,0.7 -0.4c0.3 -0.1,0.5,0.6,0.7,0.7C34.7,1.8,34.3,1.8,34,2C33.8,2.1,33.6,2.4,33.5,2.2M1.3 -27.6c-0.2,0.1 -0.6,0.5 -0.9,0.5c-0.2 -0.2 -0.3 -0.5 -0.5 -0.8c-0.1,0.1 -0.3,0.2 -0.4,0.2c-0.2,0.1 -0.4,0.4 -0.6,0.1c0,0 -0.3 -0.4 -0.5 -0.7c-0.2 -0.3,0.7 -0.6,0.9 -0.7c0.1 -0.1,0.2,0,0.2,0.1c0.1,0.2,0.2,0.3,0.4,0.6c0.3 -0.2,0.5 -0.3,0.7 -0.4C1 -28.7,1.2 -28,1.3 -27.9C1.4 -27.7,1.4 -27.6,1.3 -27.6M7.7 -11.8c0,0.1,0,0.2 -0.2,0.1c-0.7 -0.3 -3.3 -1.2 -4 -1.5c-0.1,0 -0.1 -0.1 -0.2 -0.3c-0.1 -0.2 -0.3 -0.7,0 -0.5c1.1,0.5,2.8,1.1,4,1.5C7.6 -12.4,7.6 -12,7.7 -11.8M2 -29.6c0.8,0.3,2.2,0.9,3.2,1.3c0.2,0.1,0.2,0.5,0.3,0.6c0,0.1,0,0.2 -0.2,0.1c-0.7 -0.3 -2.8 -1 -3.3 -1.4C2 -29.1,1.6 -29.7,2 -29.6M-3.1 -17.2c0.1,0.2,0.3,0.5,0.2,0.6c-0.3,0 -1.2 -0.5 -1.8 -0.7c-0.8 -0.4 -1.6 -0.5 -1.9 -0.9c0 -0.2 -0.3 -0.5 -0.1 -0.7c0.4,0.1,1.4,0.6,2,0.7c0.4,0.2,1.2,0.5,1.7,0.7C-3.2 -17.3 -3.1 -17.3 -3.1 -17.2M-4.7 -20.5c-0.1 -0.3 -0.4 -0.5 -0.4 -0.8c0.1 -0.2,0.7 -0.4,0.9 -0.5c0.3,0.1,0.4,0.6,0.5,0.7c0,0.1,0.1,0.2,0,0.2C-4 -20.7 -4.6 -20.2 -4.7 -20.5M3.6 -19.4C3.7 -19.2,3.9 -19,4 -18.8c0,0.1,0.1,0.2,0,0.2c-0.2,0.1 -0.8,0.6 -0.9,0.4c-0.1 -0.2 -0.3 -0.5 -0.4 -0.7c0 -0.1 -0.1 -0.2,0.1 -0.3C2.9 -19.2,3.4 -19.7,3.6 -19.4M8.6 -15.2c1.4,0,1.4,2.1,0,2.2C7.2 -13.1,7.2 -15.2,8.6 -15.2M11.2 -15.6c0.2,0.1,0.3,0.5,0.3,0.7c0,0.1 -0.1,0.2 -0.2,0.1c-0.9 -0.4 -1.6 -0.6 -2.5 -1c-0.2,0 -0.3 -1.1 -0.4 -1.2c0.2 -3.2,1.6 -6.4,1.6 -9.7c0 -0.2,0.1 -0.2,0.1 -0.2c0.4,0.3,0.4,1.3,0.4,1.9c-0.1,2.6 -1.2,5.9 -1.6,8.5c0.1,0.1,0.3,0.1,0.4,0.2C10 -16.1,10.4 -15.9,11.2 -15.6M-0.2 -20.4c-0.2 -0.1 -0.2 -1 -0.1 -1.2c0.2 -0.3,0.4 -0.6,0.5 -1c-0.4 -0.3 -1.3 -0.4 -1.8 -0.3c-0.4,0.1 -0.4,0.6 -0.7,0.9c-0.4,0.4 -0.3 -1.1 -0.3 -1c0.9 -1.8,1.2 -3.3 -1.3 -4c-2.6 -0.6 -3.3,1.2 -2.6,3.1c0.1,0.3 -0.2,0.6 -0.3,0.1c-0.5 -1.1 -0.9 -3.2,0.4 -4.2c2.3 -1.5,5.6,0.4,5,3.7c0.7,0,1.6,0.2,1.9,0.6C0.8 -22.7,0.6 -20.9 -0.2 -20.4M7.1 -21.3c-0.1,1.2 -1,2.6 -0.2,3.7c0,0.1 -0.1,0.3 -0.3,0.5c-0.2,0.2 -0.4,0.6 -0.6,0.7c-0.3,0 -0.5 -0.7 -0.6 -0.9c-0.1 -0.1 -0.1 -0.2,0 -0.3c0.1 -0.2,0.3 -0.3,0.4 -0.5c0.2 -1.7,0.5 -3.3,1 -4.9c0.2 -1,1.4 -3.6 -0.7 -2.4C5 -24.5,4.9 -22,4.4 -20.7c0,0.1 -0.2,0.3 -0.3,0c-0.2 -0.6 -0.1 -1.5,0.1 -2.1c0.2 -0.7,0.3 -1.2 -0.5 -1.5c-0.8 -0.3 -2 -0.6 -2.3 -0.2c-0.1,0.2 -0.2,0.1 -0.3 -0.1C0.5 -26.6,3 -26,4.3 -25.2c0.2,0.1,0.3,0.3,0.4,0.6c0.2 -0.9,0.7 -1.6,1.2 -2C9 -27.9,7.5 -23.2,7.1 -21.3M4.6 -14.5c-0.1,0 -0.1,0 -0.2 -0.2c-0.7 -1.3,0.6 -1.9,1.2 -0.8c0.4 -0.4,1.2 -0.2,1.3,0.4c0.1,0.2,0.2,1 -0.1,1.2c-0.1,0 -0.2 -0.4 -0.3 -0.4c-0.1 -0.1,0.1 -0.4,0.1 -0.5c-0.4 -0.3 -0.7 -0.1 -0.6,0.4c0.1,0.4 -0.5,0 -0.4 -0.1c0 -0.5 -0.4 -0.9 -0.9 -0.7C4.4 -15.1,4.7 -14.7,4.6 -14.5M51.4 -20.5c-0.1,0 -0.1 -0.1 -0.2 -0.3c-0.4 -0.9,0.1 -0.5,0.8 -0.2c0.8,0.3,1.5,0.6,2.4,1c0.1,0,0.4,0.7,0.3,0.8c-0.4,0 -1 -0.4 -1.7 -0.6C52.4 -20,51.7 -20.3,51.4 -20.5M64.3 -28.3c0.2,0.1,0.2,0.5,0.3,0.6c0,0.1,0,0.1,0,0.1c-0.6 -0.1 -3 -1.2 -3.6 -1.4c-0.2 -0.1 -0.2 -0.5 -0.3 -0.7c0 -0.1,0.1 -0.1,0.2 -0.1C61.8 -29.3,63.3 -28.7,64.3 -28.3M69.6 -16.1c-0.3,0.1 -1.2 -0.5 -2 -0.7c-0.9 -0.3 -1.8 -0.7 -2.1 -0.8c-0.1,0 -0.1 -0.1 -0.2 -0.3c-0.1 -0.2 -0.3 -0.7,0 -0.5c1.1,0.4,2.8,1.1,4,1.6C69.4 -16.8,69.7 -16.2,69.6 -16.1M56.4 -29.2c0.1,0.2,0.2,0.3,0.4,0.6c0.3 -0.2,0.5 -0.3,0.7 -0.4c0.3 -0.1,0.5,0.5,0.7,0.7c0.2,0.3 -0.2,0.4 -0.5,0.6c-0.2,0.1 -0.4,0.4 -0.6,0.2c-0.1 -0.2 -0.3 -0.5 -0.4 -0.7c-0.2,0.1 -0.5,0.3 -0.7,0.4c-0.1,0.1 -0.2,0.1 -0.3 -0.1c0,0 -0.3 -0.4 -0.5 -0.7c-0.2 -0.3,0.7 -0.6,0.9 -0.7C56.3 -29.3,56.4 -29.2,56.4 -29.2M63.6 -18.9c-0.2,0.1 -0.4,0.4 -0.6,0.2c-0.1 -0.2 -0.3 -0.5 -0.4 -0.7c-0.2,0.1 -0.5,0.3 -0.7,0.4c-0.1,0.1 -0.2,0.1 -0.3,0c0 -0.1 -0.8 -0.8 -0.3 -1c0.2 -0.1,0.6 -0.4,0.8 -0.4c0.3,0.1,0.3,0.4,0.5,0.7c0.3 -0.1,0.7 -0.6,1 -0.4c0.1,0.2,0.7,0.8,0.3,1C63.9 -19.1,63.8 -19,63.6 -18.9M68.6 -19.9c-0.2,0.1 -0.4,0.4 -0.6,0.2c-0.1 -0.2 -0.3 -0.5 -0.4 -0.7c-0.2,0.1 -0.5,0.3 -0.7,0.4c-0.1,0.1 -0.2,0.1 -0.3,0c0,0 -0.3 -0.4 -0.5 -0.7c0 -0.1,0 -0.2,0.1 -0.3c0.2 -0.1,0.6 -0.4,0.8 -0.4c0.3,0.1,0.3,0.4,0.5,0.7c0.3 -0.1,0.7 -0.6,1 -0.4c0.1,0.2,0.7,0.8,0.3,1C68.9 -20.1,68.8 -20,68.6 -19.9M75.2 -20.6c0.1 -0.1,0.9,0.2,1.1,0.3c0.6,0.3,1,0.6,1.1,1.2c0,0.1 -0.1,0.1 -0.3,0.2c-0.4,0.1 -0.7,0.2 -1.1,0.3c-0.7,0.1 -1.2 -0.4 -1.4 -1c0 -0.1,0 -0.2,0.1 -0.2c0.2 -0.1,0.3,0.3,0.4,0.3c0.4,0.3,0.9,0.2,1.4,0c-0.2 -0.1 -1 -0.5 -1.2 -0.6C75.2 -20.3,75 -20.5,75.2 -20.6M83.4 -15.3c0.4,0.1,0.6,0.2,1,0.3c0.6,0.3,1,0.6,1.1,1.2c0,0.1 -0.1,0.1 -0.3,0.2c-0.4,0.1 -0.7,0.2 -1.1,0.3c-0.7,0.1 -1.2 -0.4 -1.4 -1c0 -0.1,0 -0.2,0.1 -0.2c0.2 -0.1,0.3,0.3,0.4,0.3c0.4,0.3,0.9,0.2,1.4,0c-0.2 -0.1 -1 -0.5 -1.2 -0.6C83.2 -14.9,83.1 -15.2,83.4 -15.3M87.2 -14c1.4,0,1.4,2.1,0,2.2C85.8 -11.9,85.8 -14,87.2 -14M89.9 -14.3c0,0.1,0.3,0.6,0.1,0.7c0,0 -0.1,0 -0.1,0c-0.9 -0.4 -1.5 -0.6 -2.4 -1c-0.1,0 -0.2 -0.1 -0.2 -0.2c0 -0.3 -0.3 -1.2 -0.2 -1.5c0.6 -2.9,1.3 -5.7,1.5 -8.6c0 -0.3,0.2 -0.3,0.3,0c0.5,1.4,0.2,2.9 -0.1,4.5c-0.3,1.8 -0.6,3.4 -1,5.1c0.1,0.1,0.3,0.1,0.4,0.2C88.4 -14.9,89.6 -14.6,89.9 -14.3M63.9 -23.6c-0.4,1.6 -1.3,1 -1.9 -0.2c0.2 -0.3,0.4 -0.5,0.8 -0.7C63.3 -24.4,63.7 -24,63.9 -23.6M54.8 -25.8c-0.4,1 -1.4,1.5 -2,0.6C53 -25.7,54.1 -25.8,54.8 -25.8C54.8 -25.8,54.8 -25.8,54.8 -25.8M80.6 -23.8c0.3 -0.2,0.9 -0.5,1.3 -0.5c0,0,0.1,0,0.1,0c-0.2,0.1 -0.2,0.4 -0.4,0.6c-0.1,0.3 -0.2,0.6 -0.4,0.6C81.1 -23.1,80.6 -23.5,80.6 -23.8M77.9 -25.1c-0.2 -0.4 -0.5 -0.9 -0.6 -1.1c-0.4 -0.2 -1.3,0.3 -1.5,0.5c-0.6 -0.5 -2.1 -0.7 -2.8 -0.2c-1.3 -0.5 -4 -0.9 -5,0.7c-0.1,0.2 -0.2,0.2 -0.3,0c-1 -1.3 -3.5 -1.3 -4.9 -0.4c-2.3 -1.1 -6.1 -1 -6.5,2c-0.2 -0.5 -0.6 -0.9 -1 -1.1c0.3 -0.3,0.8 -1.9,0 -2.1c-0.6 -0.1 -1.5,0 -1.9,0.2c-0.9 -2 -3.7 -2.4 -3.8 -2.4c-0.5 -0.1 -0.7,0.1 -0.1,0.3c0.9,0.5,2.8,1.5,3.4,2.3c-0.1,0.3 -0.2,0.7 -0.2,1.1c0.1,1.1,1.1,1.5,2,1.4c0.7,0,1.4,0.7,1.5,1.3c0,0.8,0.2,1.6,0.4,0.9c0.3 -0.9,0.5 -2.2,1.6 -2.9c0.8 -0.5,2.8 -0.5,3.7 -0.1c-0.3,1.1,0.4,2.6,1.5,3.3c0.3,0.2,0.5,0.1,0.8 -0.2c0.8 -0.9,0.6 -2.5,0 -3.2c1.2 -0.5,2.9 -0.3,3.7,0.8c0.2,0.2,0.4,0.2,0.5 -0.1c1 -1.4,5.1 -1.6,5.9,0.4c0,0,0,0.1,0.1,0.1c0,0,0.1,0,0.1 -0.1c0 -0.5 -0.2 -1.1 -0.4 -1.4c1.4,0,2.1,0.4,2.5,1.4c0.1,0.1,0.1,0.2,0.2,0.2c0.3 -0.3 -0.2 -1 -0.2 -1.3c0.4 -0.2,0.7 -0.4,1 -0.3c0.3,0.4,0.6,1.1,0.8,1.6c0.1,0.2,0.3,0,0.3 -0.1c0 -0.2 -0.1 -0.6 -0.2 -0.8c0.3 -0.2,0.6 -0.3,0.9 -0.3c0.6,0,0.9,0.6,1.3,1.1c1.7,2.5,1.2,0.5,2.9 -0.3c0.7 -0.2,1.8 -0.2,2.3,0.3c-0.2,1.9 -1.1,4.3 -1.2,6.2c-0.1,0.3 -0.5,0.7 -0.4,1c0,0.1,0.5,1.4,0.7,0.7c0.1 -0.5,0.7 -0.7,0.7 -1.1c-0.1 -0.2 -0.2 -0.5 -0.4 -0.8c0.4 -2.2,1.7 -5.3,0.8 -7.2c-0.5 -0.6 -2.1 -0.7 -2.8 -0.3c0 -0.2 -0.1 -0.5 -0.2 -0.5c-0.7,0 -1.9,0.1 -2.3,0.8C79.5 -25.8,79.1 -25.9,77.9 -25.1M81.4 -18.3c0.1,0.4 -0.1,1.3 -0.6,0.9c-0.1 -0.1 -0.2 -0.2 -0.2 -0.3c0,0 -0.1 -0.2,0 -0.2C81.1 -18.1,81.1 -18.2,81.4 -18.3M81 -18.8c-0.6,0.2 -1.2,0.2 -1,0.9c0.6,1.7,1.9,1.7,1.8 -0.3l0 -0.1c0,0,0.4 -0.1,0.4 -0.2c-0.1 -0.1 -0.1 -0.7 -0.3 -0.5c-0.1,0 -0.2,0.1 -0.3,0.1c-0.4 -0.7 -1.4 -1.6 -2.7 -2c-0.3,0 -0.2,0.3,0.1,0.4C79.3 -20.4,80.6 -19.5,81 -18.8M18 -19.2c-0.1 -0.1 -0.3 -0.7,0 -0.5c1,0.4,2.5,1,3.5,1.4c0,0,0.1,0,0.1,0.1c0,0.1,0.4,0.7,0,0.7c-0.8 -0.3 -2.8 -1.1 -3.5 -1.4C18.1 -19,18.1 -19.1,18 -19.2M24.2 -20.1c0 -0.2 -0.2 -0.4 -0.1 -0.5c0.2,0,0.5,0.2,0.9,0.3c0.7,0.3,1.6,0.6,2.4,1c0,0,0.1,0,0.1,0.1c0,0.1,0.4,0.7,0,0.7c-0.8 -0.3 -2.5 -1 -3.2 -1.3C24.3 -19.9,24.2 -20,24.2 -20.1M34.4 -27.6c0.2,0.1,0.2,0.4,0.3,0.6c0,0.1,0,0.2 -0.2,0.1c-0.8 -0.3 -3.3 -1.3 -4 -1.6c-0.1,0 -0.1 -0.1 -0.2 -0.3c0 -0.1 -0.3 -0.5,0 -0.6C31.5 -28.7,33.3 -28,34.4 -27.6M16.7 -25.5c1.2 -0.1,4.1,0.7,4.8,1.6c-0.4,0.5 -1.5,0.7 -2.1,0.5C18.5 -23.8,17.4 -25,16.7 -25.5M15.9 -25.5c0.3,0.2,0.9,0.7,1.2,1.1c-0.1,1.6 -0.3,2.7 -0.4,3.7c-0.2,0.8 -0.2,1.8 -0.4,2.8c-0.1,0.2 -0.4,0.5 -0.3,0.8c0.1,0.2,0.3,0.8,0.5,0.8c0.1,0,0.3 -0.6,0.6 -0.8c0.2 -0.2,0.4 -0.4,0.3 -0.5c-0.1 -0.1 -0.3 -0.6 -0.4 -0.8c0.2 -1.8,0.6 -2.9,0.7 -4.8c0 -0.3,0 -0.7 -0.1 -1c0.7,0.6,1.5,1.5,2.4,1.7c2.2,0.3,2.8 -1.4,1.4 -2.9c-1 -1 -3.3 -1.6 -5.2 -1.6c-1.3 -0.1 -2.7,0.5 -3.6,1.2c-0.3,0.3 -0.2,0.5,0.2,0.4C13.3 -25.3,15 -25.6,15.9 -25.5M30.7 -25.1c1.3 -0.2,5.9,1.6,2.9,2C32.2 -23.2,31.7 -24.3,30.7 -25.1M29.2 -26.7c-0.1 -0.3 -0.1 -0.8 -0.4 -0.8c-0.1,0 -0.1,0.2 -0.1,0.4c0,0.4,0.2,0.9,0.3,1.4c-0.4,0.3 -0.5,0.5 -0.6,0.8c-0.6 -0.3 -1.2 -0.5 -1.9 -0.7c-0.2 -2.1 -1.1 -3.4 -2.6 -3.7c-1.2 -0.3 -2.9,0.4 -3.4,0.8c-0.4,0.2 -0.2,0.5,0.2,0.4c2.3 -1,4.7,0,5.3,2.4c-0.1,0 -0.3 -0.1 -0.3,0.1c0,0.1,0,0.8,0.1,0.9c0.9,0.2,2.1,0.7,3.1,1.1c0.1 -0.1,0 -0.6,0 -0.8c0.4 -0.3,0.8 -0.4,1.3 -0.5c0.8,0.8,1.9,1.9,2.8,2.5c0.9,0.6,2.4,0.4,2.5 -0.6c-0.1 -2.3 -2.9 -3.2 -4.5 -3.1C29.8 -26.3,29.4 -25.5,29.2 -26.7M23.5 -24.1c0.4,0.1,0.4,0.9,0.4,1.2c0,0.9 -0.3,1.9 -1.1,2.6c-0.2 -0.1 -0.3 -0.5 -0.3 -0.6c0,0,0 -0.1,0.2 -0.3c0.6 -0.8,0.9 -1.7,0.7 -2.7C23.4 -24,23.3 -24.1,23.5 -24.1M98.3 -49.5c-0.2,0.1 -0.6,0.5 -0.9,0.5c-0.2 -0.2 -0.3 -0.5 -0.5 -0.8c-0.2,0.1 -0.8,0.7 -1,0.4c0,0 -0.3 -0.4 -0.5 -0.7c-0.2 -0.3,0.7 -0.6,0.9 -0.7c0.1 -0.1,0.2,0,0.2,0.1c0.1,0.2,0.2,0.3,0.4,0.6c0.3 -0.2,0.5 -0.3,0.7 -0.4c0.3 -0.1,0.5,0.5,0.7,0.7C98.5 -49.7,98.4 -49.6,98.3 -49.5M93.6 -49.1c0,0 -1.2,0.7 -2.6,0.7C91.6 -49.6,93 -50.3,93.6 -49.1M91.1 -46.4c0.6,0.2,1.5,1,1.7,1.5c-0.1,0.3 -0.3,0.7 -0.5,0.6C91.7 -44.4,91.2 -45.8,91.1 -46.4M84.8 -46.8c-0.2,0.3 -0.3,0.6 -0.4,0.8c-0.3,1.1 -1,0.3 -1 -0.2C83.8 -46.5,84.4 -46.8,84.8 -46.8M106 -45.2c0.4 -0.8 -0.6 -1.5 -1.4 -2.1c-1.7 -0.9 -4.4 -1.8 -5.2,0.7c-0.6 -1.8 -1.6 -1.4 -2.7 -0.4c-0.7 -0.6 -1.9 -1.1 -2.8 -1.2c0.5 -0.5,0.2 -2.7 -0.8 -2.6c-0.5,0 -1.6,0.2 -2.3,2.4c-0.3,0 -0.7,0 -1.1,0c-0.2,0 -0.1,0.2 -0.1,0.3c0,0.1,0,0.1,0,0.2c-1.1 -0.4 -3 -0.3 -3.8,0.3c0 -0.2 -0.1 -0.5 -0.2 -0.5c-0.4,0 -1.3,0.3 -1.8,0.5c-0.4 -1.5 -2.4 -2 -3.4 -2.3c-0.3 -0.1 -1.3 -0.3 -0.5,0.2c0.9,0.5,2.9,1.6,3.5,2.3c-0.8,0.7 -0.3,2,0.5,2.5c0.5,0.3,0.7 -0.2,0.9 -0.5c0.6 -1,1.9 -1.6,3.4 -1.6c0.9,0,1.8,0.2,2.5,0.5c0.4,1.1,0.6,2.9,1.8,3.3c0.5,0,0.7 -0.7,0.7 -1.2c0 -1.5 -0.9 -2.3 -1.8 -2.9c1.6,0,4.8,0.5,5.5,1.8c0.1,0.2,0.2,0,0.2 -0.2c0 -0.2 -0.1 -0.4 -0.2 -0.6c0.4 -0.3,1.2 -0.3,1.3 -0.3c0.5,0,0.7,0.5,0.8,0.9c-0.4,1.5 -0.7,3.5 -0.9,5.5c0,0.4,0.1,1.5,0.3,1.3c0.2 -0.9,0.4 -1.9,0.5 -3c0.3 -1.8,0.4 -4.9,2.4 -5.1c-1.6,2,1.3,5.2,3.3,3.2c0.1 -0.1,0.2 -0.3,0 -0.4c-0.9,0.6 -2.6 -0.1 -3.1 -0.8C102.3 -48,104.6 -46.4,106 -45.2M83.4 -42.6c0.1 -0.1,0.9,0.2,1.1,0.3c0,0,0.5,0.2,0.8,0.6c0.1,0.1,0.3,0.5,0.3,0.6c0,0.1 -0.1,0.1 -0.3,0.2c-0.4,0.1 -0.7,0.2 -1.1,0.3c-0.7,0.1 -1.2 -0.4 -1.4 -1c0 -0.1,0 -0.2,0.1 -0.2c0.2 -0.1,0.2,0.3,0.4,0.3c0.4,0.3,0.9,0.2,1.4,0c-0.2 -0.1 -1 -0.5 -1.2 -0.6C83.3 -42.2,83.2 -42.4,83.4 -42.6M94.7 -42.8c0.1 -0.1,0.9,0.2,1.1,0.3c0,0,0.4,0.2,0.8,0.6c0.1,0.1,0.3,0.5,0.3,0.6c-0.1,0.2 -0.6,0.2 -0.8,0.3c-0.8,0.4 -1.7,0 -2 -0.9c0 -0.1,0 -0.2,0.1 -0.2c0.2 -0.1,0.2,0.2,0.4,0.3c0.4,0.3,1,0.2,1.4,0c-0.2 -0.2 -0.9 -0.5 -1.2 -0.6C94.7 -42.4,94.6 -42.7,94.7 -42.8M99.7 -37.5c0.2,0.1,0.2,0.4,0.3,0.6c0,0.1,0,0.2 -0.1,0.2c-0.8 -0.3 -2.5 -1 -3.2 -1.3c-0.1,0 -0.1 -0.1 -0.2 -0.3c0 -0.1 -0.3 -0.5 -0.1 -0.6c0.4,0.1,1.4,0.5,1.8,0.7C98.5 -37.9,99.2 -37.7,99.7 -37.5M94.1 -51.9c-0.7 -0.4 -2.8 -1 -3.3 -1.5c0 -0.2 -0.4 -0.8,0 -0.7c0.9,0.4,2.2,0.9,3.2,1.3c0.2,0.1,0.2,0.4,0.3,0.6C94.3 -52,94.3 -51.9,94.1 -51.9M104.6 -40c0.2,0.1,0.2,0.4,0.3,0.6c0,0.1,0,0.2 -0.1,0.2c-0.8 -0.3 -3.3 -1.2 -4 -1.5c-0.1,0 -0.1 -0.1 -0.2 -0.3c0 -0.1 -0.3 -0.5 -0.1 -0.6C101.7 -41.1,103.5 -40.5,104.6 -40M93.5,1.6c0 -0.1,0 -0.2,0.1 -0.2c0.2 -0.1,0.3,0.3,0.4,0.3c0.4,0.3,0.9,0.2,1.4,0c-0.2 -0.1 -1 -0.5 -1.2 -0.6c-0.2 -0.1 -0.3 -0.4,0 -0.4c0.9,0.2,2,0.6,2.1,1.5c0,0.1 -0.1,0.1 -0.3,0.2c-0.4,0.1 -0.7,0.2 -1.1,0.3C94.2,2.7,93.7,2.3,93.5,1.6M100.4 -0.8c-0.2,0.4 -0.6,1 -1.1,1.3c-0.2 -0.2 -0.2 -0.8 -0.3 -1c0 -0.1,0 -0.1,0.1 -0.2c0.6 -0.7,0.9 -1.2,1 -1.6c-0.6 -0.8 -2 -0.6 -2.5 -0.3c1.3,1.4,0.1,2.2 -1.5,2.1c-0.9 -0.1 -1.4 -0.5 -1.6 -1.4c-0.1 -0.3,0.1 -0.3,0.3 -0.2c0.1,0.1,0.3,0.1,0.5,0.1c2.8 -0.9 -5.4 -1.8 -5.6 -1.5c-1.3,0.1 -2.3,0.5 -3,1c-0.2,0.1 -0.4,0.1 -0.6 -0.1c-0.7 -1.2 -2 -1.2 -2.7,0.1c-0.7,1 -0.9,3.1 -1.5,4.3c-0.2,0 -0.1 -0.4 -0.2 -0.5c-0.2 -0.9,0.3 -1.8,0.6 -2.8c-0.3 -0.8 -1.8 -1.2 -2.7 -1.2c-0.4,0 -0.5,0.2 -0.5,0.4C79 -2,78.8 -2.8,78.8 -2.9c-0.2 -1.7,1.6 -1.3,2.8 -0.8c0.6,0.3,0.7,0.4,1.1,1.2c0.6 -2.5,2.3 -3.4,3.8 -1.3c0.1,0.1,0.1,0.1,0.2,0c2.1 -1.9,7.7 -1,10.1,0.4C98.7 -5.4,101.7 -3.5,100.4 -0.8M86.8,3c0.1,0.4 -0.1,1.3 -0.6,0.9c-0.1 -0.1 -0.2 -0.2 -0.2 -0.3c0,0 -0.1 -0.2,0 -0.2C86.5,3.1,86.5,3.1,86.8,3M86.5,2.4c-0.4,0.1 -0.6,0.2 -0.8,0.3c-0.6,0.5,0.5,1.8,0.9,1.9c0.6,0,0.8 -0.8,0.7 -1.6l0 -0.1l0.4 -0.1c0.1 -0.1,0 -0.2,0 -0.3c-0.1 -0.2 -0.1 -0.4 -0.3 -0.3c-0.1,0 -0.2,0 -0.3,0.1c-0.4 -0.7 -1.4 -1.6 -2.7 -2c-0.1,0 -0.1,0 -0.1,0.1c0,0.1,0,0.2,0.2,0.3C84.6,0.8,86,1.7,86.5,2.4M82.2,4.4c0.1,0.4 -0.1,1.3 -0.6,0.9c-0.1 -0.1 -0.2 -0.2 -0.2 -0.3c0,0 -0.1 -0.2,0 -0.2C81.9,4.6,81.9,4.5,82.2,4.4M81.8,3.9c-0.6,0.2 -1.2,0.2 -1,0.9c0.6,1.7,2,1.6,1.8 -0.3l0 -0.1c0,0,0.4 -0.1,0.4 -0.2C83,4,82.9,3.5,82.7,3.6c-0.1,0 -0.2,0 -0.3,0.1C82,3,81,2.1,79.7,1.8c-0.3,0 -0.2,0.3,0.1,0.4C80.1,2.3,81.4,3.2,81.8,3.9M95.8,3.7c1.1,0.5,3.2,1.2,4,1.6c0,0,0.1,0,0.1,0.1c0.1,0.2,0.3,0.5,0.2,0.6c-0.5,0 -1.2 -0.5 -2.1 -0.7c-0.8 -0.3 -1.7 -0.7 -2.1 -0.8c-0.2 -0.1 -0.3 -0.5 -0.3 -0.7C95.6,3.6,95.7,3.6,95.8,3.7M87.2 -6.4c0,0.1,0.1,0.2,0,0.2C87 -6,86.5 -5.5,86.3 -5.8c-0.1 -0.2 -0.4 -0.5 -0.4 -0.8c0.1 -0.2,0.7 -0.4,0.9 -0.5C87 -7,87.1 -6.6,87.2 -6.4M98.4,3C98.3,2.8,98,2.5,98,2.2c0.1 -0.2,0.6 -0.4,0.9 -0.5c0.2,0.1,0.4,0.5,0.5,0.7c0,0.1,0.1,0.2,0,0.2C99.2,2.8,98.6,3.3,98.4,3M70.2 -1.2c0 -0.2,0.1 -0.2,0.1 -0.2c0.3,0.2,0.3,1.4,0.3,1.7c0,0.9 -0.4,2.9 -0.6,3.9c-0.2,0.9 -0.4,1.7 -0.4,2.5c0,0.2 -0.3,0.3 -0.3,0L69.1,6c0 -1.2,0.4 -2.2,0.5 -3.4C69.9,1.4,70.1,0.1,70.2 -1.2M70.1 -3.3c-0.2 -0.1 -0.3 -0.2 -0.3 -0.4c0 -0.1 -0.1 -0.2,0 -0.3c0.4,0.2,1.4,0.5,2,0.6l0.1,0c0,0,0.1,0,0.2,0.4c0,0.1,0.1,0.2,0,0.2c0,0 -0.1,0.1 -0.1,0c-0.3 -0.1 -0.5 -0.1 -0.9 -0.1c-0.4,0 -0.9,0.4 -1,0.5c0.3,0.2,0.7,0.3,0.9,0c0.2 -0.4,0.5,0.3,0.5,0.4c-0.3,1 -1.5,0.1 -1.9 -0.6C69.4 -2.9,69.8 -3.1,70.1 -3.3M68.6 -2.5c0.1,1.2 -0.4,2 -1.1,2.5c-0.1,0 -0.2 -1 -0.3 -1.1c0 -0.1,0 -0.2,0 -0.2c0.5 -0.4,0.7 -0.8,0.8 -1.3c-2.2 -0.8 -5.2 -1 -6.7 -0.4c-0.8,0.3 -0.9,1 -1.1,2.3c-0.3,1.8 -0.5,4 -0.8,5.8c0,0.1 -0.1,0.1 -0.1,0.1c-0.2,0 -0.3 -0.9 -0.4 -1c0.1 -0.5,0.2 -1,0.3 -1.5l0.5 -3.2c0.2 -1.5,0.2 -3.4,2 -3.7c1.9 -0.4,4.2 -0.1,6.1,0.5C68.4 -3.7,68.5 -3.1,68.6 -2.5M72.2 -4.5c0.1,0,0.1,0,0.1,0.1c0,0.2,0.3,0.6,0,0.6c-0.8 -0.3 -1.8 -0.5 -2.5 -1c0,0 -0.3 -0.6 -0.1 -0.6C70.6 -5,71.3 -4.8,72.2 -4.5M57.9 -3c0.1,2.3 -0.8,4.6 -1.1,6.9c0.2,0.2,0.5,0.7,0.4,0.7c-0.3,0.3 -0.6,0.7 -0.8,1c-0.1,0.1 -0.2,0.1 -0.2,0c-0.4 -0.7 -0.5 -0.8 -0.4 -0.9c0.1 -0.3,0.3 -0.6,0.5 -0.8c0.5 -2.3,0.8 -4.1,1.3 -6.6C55 -3.1,53.1 -3.3,51 -3.3c-0.1,0 -0.2,0.1 -0.2,0.1c-0.3,0.3 -0.3 -0.2 -0.4 -0.7c-0.1 -0.5,0.2 -0.7,0.6 -0.6c2.2,0,4.2,0.2,6.3,0.6C57.8 -3.8,57.9 -3.6,57.9 -3M61.9,3c0 -0.1,0.1 -0.2,0.2 -0.1c2.3,0.9,4.8,1.7,4.9,1.7c0.1,0,0.1,0.1,0.2,0.2c0,0.1,0.3,0.6,0,0.6c-0.8 -0.3 -4.2 -1.4 -4.9 -1.7C62.1,3.6,62,3.2,61.9,3M55.1,6.4c-0.8 -0.3 -3.4 -1.3 -4.1 -1.6c-0.1 -0.1 -0.2 -0.4 -0.2 -0.6c0 -0.1,0.1 -0.2,0.2 -0.1c1.1,0.5,4,1.4,4.2,1.7C55.2,5.9,55.5,6.5,55.1,6.4M64.2,2.2c-0.1,0 -0.1,0 -0.2 -0.2c-0.7 -1.3,0.6 -1.9,1.2 -0.8c1 -0.8,1.6,0.6,1.3,1.5c0,0.1 -0.2,0.1 -0.2,0l-0.2 -0.4C66,2.3,66.2,2,66.1,1.9c-0.4 -0.3 -0.7 -0.1 -0.6,0.4c0.1,0.5 -0.4,0.1 -0.4 -0.1c0 -0.5 -0.4 -0.9 -0.9 -0.7C64.1,1.6,64.4,2.1,64.2,2.2M53.6 -0.3c-0.4 -0.2 -0.8 -0.2 -1.2 -0.1c-0.2,0 -0.4,0.1 -0.6,0c-0.3 -0.5,0.7 -0.5,0.7 -0.6c0.6 -0.1,1.3 -0.2,1.8,0.4c0.2,0.3,0.7,1.1,0.3,1.5c-0.2,0.3 -1,0 -1.1,0.3c0,0.1,0.1,0.4,0.3,0.6c0.2,0.2,0.3 -0.1,0.4 -0.2c0.1 -0.1,0.3,0.2,0.3,0.3c0.3,0.4,0.2,0.8 -0.3,0.9c-0.5,0 -0.8 -0.7 -1 -1.1c-0.5 -1 -0.5 -1.6,0.8 -1.6C54.2 -0.1,53.7 -0.3,53.6 -0.3M64.9 -6.8c0.2 -0.1,0.6 -0.4,0.8 -0.4c0.3,0.1,0.3,0.4,0.5,0.7c0.3 -0.1,0.7 -0.6,1 -0.4c0.1,0.2,0.7,0.8,0.3,1c-0.1,0.1 -0.2,0.1 -0.4,0.3c-0.2,0.1 -0.3,0.3 -0.5,0.3c-0.2 -0.2 -0.3 -0.5 -0.5 -0.8c-0.3,0.1 -0.8,0.7 -1,0.4C65.3 -5.9,64.5 -6.6,64.9 -6.8M-15.7,14c0,0.1,0,0.2 -0.2,0.1c-0.8 -0.3 -3.3 -1.3 -4 -1.6c-0.1,0 -0.5 -0.9 -0.1 -0.7c1.1,0.5,2.8,1.1,4,1.6C-15.8,13.5 -15.8,13.9 -15.7,14M-4.8,15.6c0.2,0.1,0.2,0.4,0.3,0.6c0,0.1,0,0.2 -0.2,0.1c-0.8 -0.4 -3.5 -1.2 -4.2 -1.7c0 -0.1 -0.3 -0.6 -0.1 -0.6C-7.8,14.5 -6.1,15.1 -4.8,15.6M-2,30.3c-1.4,0 -1.4 -2.1,0 -2.2C-0.6,28.2 -0.6,30.3 -2,30.3M-0.4,21.8c-0.4,1.9 -0.8,3.9 -1.2,5.8c0,0.2 -0.3,0.2 -0.3 -0.1L-2,26.6c0.3 -3,1.3 -5.9,1.5 -9c0.2 -0.1,0.4,0.1,0.6,0.2c0.6,0.2,0.7,0.3,1.5,0.6c0.3,0.1,0.2,0.3,0.3,0.7c0,0.1 -0.1,0.2 -0.2,0.1c-0.9 -0.4 -1 -0.4 -1.9 -0.8C0,19.6 -0.2,20.5 -0.4,21.8M-9.2,17.8c0.6 -0.2,2,0.2,2.8,0.6c0.3,0.1,0.6,0.5,0.8,1.1c0 -0.1,0 -0.2,0.1 -0.2c0.2 -1.4,1.8 -3.2,2.8 -1.6c0.8,2.1 -0.5,4.7 -0.6,6.9l-0.1,0.9c0.1,0.1,0.1,0.2,0.2,0.2c0.3,0.4,0.3,0.5,0.3,0.5c-0.3,0.4 -0.5,0.8 -0.7,1.1c-0.1,0.1 -0.2,0.1 -0.2,0c0,0 -0.4 -0.9 -0.4 -1c0 -0.1,0.1 -0.3,0.3 -0.5l0.1 -0.4c0.3 -2,0.9 -4.7,1.1 -6.7c-0.4 -0.6 -1.1 -0.4 -1.5,0.1c-0.8,1.1 -1.2,3.2 -1.5,4.4c0,0.3 -0.2,0.3 -0.3,0.1c-0.3 -1.2,0.1 -2.1,0.4 -3.1c-0.6 -0.9 -2 -1.2 -3 -1.2c-0.3,0 -0.2,0.2 -0.4,0.3c-0.1,0 -0.2 -0.1 -0.2 -0.2C-9.6,18.6 -9.7,18 -9.2,17.8M-20.8,14.8c3.1,0,8.6,0.6,8.8,4.3c0.7,0,1.2,0.2,1.4,0.4c0.5,0.5,0.5,2,0,2.8c-0.1,0.2 -0.3,0.2 -0.3 -0.1c-0.1 -0.4 -0.2 -0.8 -0.2 -0.9c0.1 -0.3,0.2 -0.5,0.3 -0.8c-0.4 -0.3 -1.4 -0.5 -1.7,0.1c-0.1,0.1 -0.1,0.2 -0.2,0.4c-0.3,0.6 -0.4 -0.3 -0.5 -0.6c-0.1 -0.4,0 -0.3,0.1 -0.6c1.1 -1.6 -0.1 -2.1 -2.2 -3.1c-4.5 -1.5 -8.7 -0.9 -12,1.1c-0.2,0 -0.2 -0.2,0 -0.4C-25.8,15.8 -23.7,14.9 -20.8,14.8M-8.2,26.3c-0.1,0 -0.1,0 -0.2 -0.2c-0.7 -1.3,0.6 -1.9,1.2 -0.8c1 -0.7,1.6,0.6,1.3,1.5c0,0.1 -0.2,0.1 -0.2,0c0 -0.1 -0.3 -0.4 -0.2 -0.5c0.3 -0.5 -0.2 -0.6 -0.4 -0.4C-7,26 -6.7,26.8 -7.1,26.5c-0.2 -0.1 -0.2 -0.2 -0.2 -0.3c0 -0.5 -0.4 -0.9 -0.9 -0.7C-8.3,25.7 -8,26.2 -8.2,26.3M-11,15.9c-0.4 -0.8 -0.4 -0.6 -1 -0.2c-0.1,0.1 -0.2,0.1 -0.3 -0.1c0,0 -0.3 -0.4 -0.5 -0.7c0 -0.1,0 -0.2,0.1 -0.3c0.2 -0.1,0.6 -0.4,0.8 -0.4c0.3,0.1,0.3,0.4,0.5,0.7c0.3 -0.2,0.5 -0.3,0.7 -0.4c0.3 -0.1,0.5,0.5,0.7,0.7c0.1,0.2,0,0.2 -0.1,0.3c-0.1,0.1 -0.5,0.3 -0.7,0.4C-10.8,16.1 -10.9,16.1 -11,15.9M-18.8,20.1c0.3 -0.1,0.4,0.4,0.6,0.7c0.2,0.3 -0.4,0.4 -0.7,0.7c-0.3,0.2 -0.6 -0.7 -0.6 -0.7C-19.7,20.4 -19,20.3 -18.8,20.1M7,17.1c0,0.1,0.3,0.7,0,0.6c-0.8 -0.3 -2.5 -1 -3.2 -1.3c-0.2 -0.1 -0.2 -0.4 -0.3 -0.6c0 -0.1,0 -0.1,0.1 -0.1c1,0.4,1.8,0.8,2.8,1.2C6.6,17,6.9,17,7,17.1M10.6,25.1c1,0.5,2.3,0.9,3.5,1.4c0.3,0.1,0.6,0.1,0.6,0.3c0,0.1,0.3,0.7,0,0.6c-0.8 -0.4 -3.5 -1.2 -4.2 -1.7C10.5,25.7,10.2,25,10.6,25.1M11.3,19.2c-0.4,1 -1.2,1.3 -1.4,0.3C9.8,19.2,10.4,19,11.3,19.2M5.1,15c-0.2,0.1 -0.2,0.4,0.1,0.4c2.9 -0.5,5,0.2,6.3,2.7c-1.9 -0.5 -2.6,0.4 -1.9,2.3c0.9,1.6,1.6,0.6,2.3 -1.1c0.8,0.2,1.4,0.5,1.9,0.9c-0.2,0.4 -0.6,0.8 -1,1.2c-0.2,0.1,0,0.3 -0.1,0.5c0,0.2,0,0.8,0.1,0.8c0.5 -0.1,1.1 -1.1,1.3 -1.6c0.4 -1.6 -0.2 -2.5 -2.1 -3c-0.7 -2.4 -2 -3.8 -4.3 -3.8C7.1,14.5,6.1,14.7,5.1,15M4.7,20.2C5,20,5.5,19.8,6.3,19.8C6,20.4,5.7,21,5.3,21c-0.2,0 -0.4 -0.2 -0.7 -0.6C4.6,20.3,4.6,20.2,4.7,20.2M1.1,16.1c-0.2 -0.1 -0.6 -0.3 -0.7,0c0,0.1,0,0.2,0.1,0.3c1.4,0.8,3,1.7,3.9,2.8c-0.2,0.3 -0.1,1.3,0.5,2.4c0.4,0.6,0.8,0.9,1.4,0.2C6.7,21,7.2,20,7,19.2c-0.1 -0.2 -0.1 -0.5 -0.4 -0.5c-0.7,0 -1.5,0.1 -1.9,0.2C4.2,17.3,2.5,16.7,1.1,16.1M8,23.6c-0.1 -0.1 -0.2 -0.4,0 -0.4c0.2 -0.1,0.3,0.3,0.4,0.3c0.4,0.3,1,0.2,1.4,0c-0.2 -0.2 -0.9 -0.5 -1.2 -0.6c-0.2 -0.1 -0.3 -0.4,0 -0.4c0.2,0,0.4,0.1,0.6,0.2c0.5,0.1,1.5,0.6,1.6,1.3c-0.1,0.2 -0.6,0.2 -0.8,0.3C9.2,24.5,8.4,24.3,8,23.6M12.7,15.3c0.2 -0.1,0.6 -0.4,0.8 -0.4c0.3,0.1,0.3,0.4,0.5,0.7c0.3 -0.1,0.7 -0.6,1 -0.4c0.1,0.2,0.7,0.8,0.3,1c-0.1,0.1 -0.2,0.2 -0.4,0.3c-0.2,0.1 -0.3,0.2 -0.5,0.3c-0.2 -0.2 -0.3 -0.5 -0.5 -0.8c-0.3,0.1 -0.8,0.7 -1,0.4C13,16.2,12.3,15.4,12.7,15.3M29.2,16.9c-0.8 -0.3 -3.3 -1.3 -4 -1.6c-0.1,0 -0.5 -0.9 -0.1 -0.7c1,0.5,2.3,0.9,3.4,1.3c0.3,0.1,0.7,0.2,0.7,0.4C29.2,16.5,29.5,17,29.2,16.9M38.9,16.4c0.2,0.1,0.2,0.4,0.3,0.6c0,0.1,0,0.2 -0.2,0.1c-0.4 -0.2 -1.2 -0.5 -2 -0.8c-1 -0.4 -1.8 -0.6 -2.2 -0.9c0 -0.1 -0.3 -0.6 -0.1 -0.6C36,15.3,37.6,15.9,38.9,16.4M41.1,25.8c0 -0.1 -0.4 -0.8,0 -0.6c1.1,0.5,2.8,1.1,4,1.6c0.2,0.1,0.2,0.4,0.2,0.6c0,0.1,0,0.2 -0.2,0.1C44.4,27.1,41.7,26.3,41.1,25.8M43.5,20.7c0.3 -0.2,0.7 -0.4,1.5 -0.4c-0.3,1.1 -0.8,1.8 -1.5,0.5C43.5,20.8,43.5,20.8,43.5,20.7M16.8,20.6c3.4 -2.5,13.6 -2.5,17.2,0.5c-0.2,1.4 -0.6,2.9 -0.8,4.4c0,0.2,0.1,0.5,0.1,0.7c0.1,0.1,0,0.5,0.2,0.5c0.1,0,0.1 -0.2,0.1 -0.3c0.5 -2.3,0.7 -5.3,1.6 -7.6c0.3 -0.5,1.4 -1,1.5 -0.1c-0.4,2 -0.9,4.7 -1.4,6.9c-0.1,0.4,0.2,0.7,0.3,1.1c0.1,0.1,0.1,0.2,0.2,0.1c0.1,0,0.1,0,0.1 -0.2c0.1 -0.8,0.5 -2.6,1 -4.3c0.3 -0.9,0.5 -2,1.3 -2.5c0.8 -0.7,3.5 -0.8,4.6,0.1c0.6,0.7,1.2,3.8,2.3,2.3c0.4 -0.8,0.9 -1.7,0.6 -2.6c-0.1 -0.3 -0.1 -0.5 -0.4 -0.5c-0.6,0 -1.6,0.1 -2.1,0.6c-0.5 -2 -5.3 -1.8 -6.1 -0.3c0 -1.3 -0.3 -2.2 -0.9 -2.2c-1.8,0 -2,1.7 -2.2,3.1c-3.1 -3.1 -11.4 -3.3 -15.1 -2c-1.3,0.4 -1.7,1.2 -2.5,2C16.3,20.6,16.4,20.8,16.8,20.6M25.7,21.6c-0.2,0.1 -0.4,0.1 -0.6,0c-0.3 -0.4,0.6 -0.6,0.7 -0.6c0.6 -0.2,1.3 -0.3,1.8,0.3c0.3,0.4,0.7,1.1,0.4,1.5c-0.2,0.3 -0.9,0 -1.1,0.3c0,0.1,0.1,0.4,0.3,0.6c0.2,0.2,0.3 -0.1,0.4 -0.2c0.1 -0.1,0.2,0.2,0.3,0.3c0.1,0.2,0.3,0.5,0.2,0.7c-0.6,0.7 -1.1 -0.3 -1.4 -0.7c-0.2 -0.4 -0.6 -1 -0.3 -1.4c0.2 -0.4,0.7 -0.3,1.1 -0.4c-0.1 -0.1 -0.4 -0.2 -0.5 -0.2C26.5,21.5,26.1,21.5,25.7,21.6M62.7,15c1.1,0.5,2.8,1.1,4,1.6c0.1,0,0.1,0,0.1,0.1c0,0.1,0.3,0.7,0,0.6c-0.8 -0.4 -3.5 -1.2 -4.2 -1.7C62.7,15.6,62.3,14.9,62.7,15M90,31.2c-1.4,0 -1.4 -2.1,0 -2.2C91.4,29.1,91.4,31.2,90,31.2M91.6,22.6c-0.3,1.8 -0.9,4.1 -1.1,5.8c-0.1,0.3 -0.3,0.2 -0.3,0c0 -0.3 -0.2 -1.1 -0.1 -1.4c0.5 -2.8,1.3 -5.5,1.5 -8.3c0 -0.5,0.6,0,0.9,0.1c0.4,0.2,0.5,0.2,1.2,0.5c0.1,0,0.1,0.1,0.2,0.1c0,0.1,0.4,0.8,0,0.7c-0.9 -0.4 -1 -0.4 -1.9 -0.8C92,20.4,91.8,21.4,91.6,22.6M65.3,19.9c-0.8,1.1 -0.7,2 -1.5,0.8C63.9,20.2,64.6,20.1,65.3,19.9M76.3,19.7c-2.2 -1.6 -7.8 -2.1 -10.1 -0.7c-0.1 -0.5 -0.2 -0.5 -0.3 -0.5C65,18.6,64.6,18.7,64,19c-0.5 -1.7 -3.3 -2.6 -4.3 -2.7c-0.4,0 -0.4,0.2 -0.1,0.3c1.6,0.8,3.1,1.6,4.1,2.7c-0.6,0.7,0.2,2.5,1,2.6c0.3,0,0.5 -0.5,0.7 -0.7c2.1 -2.8,8.4 -2.4,11.2 -0.3c0.6,0.6,0.3 -0.4,0.1 -0.7c0.8 -0.3,1.2 -0.2,2,0c0.7,0.2,1.8,0.6,2.6,0.9c-1.3,0.4 -3,1.2 -3.8,0.5c-0.2 -0.2 -0.3,0 -0.3,0.2c0.3,1.2,1.4,1.9,2.7,1.1c1.2 -0.7,3.2 -1.2,5.2 -1.1c0,0,0.1,0,0.1 -0.1c0 -0.1,0 -0.1,0 -0.1c-0.2 -0.4 -0.4 -0.6 -0.6 -1c0,0 -0.1 -0.1 -0.1 -0.1c-1.4,0.4 -2.4,0.1 -3.8 -0.5C79,19.2,77.4,18.4,76.3,19.7M84.7,17.2c-1 -0.4 -2.2 -0.4 -3.5,0.2c-0.4,0.1 -0.5 -0.2 -0.2 -0.4c3.1 -1.7,5.7 -1,6.6,2.7c0.4,0,0.8,0.1,1.1,0.4c0.8,0.6,0.4,2.4,0.1,3.6L88.1,27c0.2,0.2,0.2,0.3,0.4,0.5c0.1,0.1,0.1,0.1,0,0.3c-0.3,0.3 -0.5,0.8 -0.8,1.1c-0.3 -0.1 -0.3 -0.5 -0.5 -0.7c-0.2 -0.2,0.2 -0.6,0.3 -0.9c0.4 -2.3,0.6 -3.1,1.1 -6.1c-0.5 -0.3 -1.4 -0.5 -1.7,0c-0.2,0.3 -0.4,0 -0.5 -0.3c-0.1 -0.6,0.2 -1,0.6 -1.1C86.5,18.5,85.7,17.6,84.7,17.2M78.3,17.1c1.2,0.5,2.8,1.1,4.1,1.6c0.2,0,0.2,0.4,0.3,0.6c0,0.1,0,0.1,0,0.1c-0.8 -0.2 -3.4 -1.3 -4.2 -1.6c-0.2 -0.1 -0.2 -0.3 -0.3 -0.6C78.2,17.2,78.2,17.1,78.3,17.1M86.1,29.4c-0.6 -0.3 -3.4 -1.3 -3.7 -1.6c0 -0.1 -0.4 -0.7,0 -0.6c0.9,0.4,2.7,1.1,3.5,1.4c0.2,0.1,0.2,0.4,0.3,0.6C86.2,29.3,86.2,29.4,86.1,29.4M83.5,26.2c-0.1,0 -0.1,0 -0.2 -0.2c-0.7 -1.3,0.6 -1.9,1.2 -0.8c1 -0.7,1.6,0.6,1.3,1.5c-0.1,0.3 -0.3 -0.3 -0.4 -0.4c-0.1 -0.1,0.1 -0.4,0.1 -0.5c-0.4 -0.3 -0.7 -0.1 -0.6,0.4c0.1,0.5 -0.4,0.1 -0.4 -0.1c0 -0.5 -0.4 -0.9 -0.9 -0.7C83.4,25.7,83.7,26.1,83.5,26.2M75.2,16.1c0.1,0.2,0.2,0.3,0.4,0.6c0.3 -0.2,0.5 -0.3,0.7 -0.4c0.3 -0.1,0.5,0.6,0.7,0.7c0.2,0.3 -0.2,0.4 -0.5,0.6c-0.2,0.1 -0.4,0.4 -0.6,0.2c-0.1 -0.2 -0.3 -0.5 -0.4 -0.7c-0.2,0.1 -0.5,0.3 -0.7,0.4c-0.1,0.1 -0.2,0.1 -0.3 -0.1c0,0 -0.3 -0.4 -0.5 -0.7c-0.2 -0.3,0.7 -0.6,0.9 -0.7C75,16,75.1,16,75.2,16.1M28.3,50.2c0.8,0.2,1.9,0.6,2,1.5c0,0.1 -0.3,0.2 -0.5,0.2c-0.8,0.3 -1.8,0.4 -2.2 -0.5c-0.2 -0.3 -0.1 -0.6,0.1 -0.4c0.1,0.1,0.2,0.2,0.2,0.3c0.4,0.3,0.9,0.2,1.4,0c-0.2 -0.1 -1 -0.5 -1.2 -0.6c-0.1 -0.1 -0.2 -0.2 -0.2 -0.3C28,50.2,28.2,50.1,28.3,50.2M31.9,50.1c1.4,0,1.4,2.1,0,2.2C30.4,52.2,30.4,50.1,31.9,50.1M33.5,43.6c-0.3,1.9 -0.9,4 -1.2,5.8c0,0.2 -0.2,0.3 -0.3,0c0,0 -0.1 -0.4 -0.1 -0.5c0 -0.3 -0.1 -0.7 -0.1 -1c0.5 -2.9,1.2 -5.6,1.5 -8.4c0 -0.1,0.1,0,0.2,0c0.2,0.1,0.5,0.2,0.7,0.3c0.4,0.2,0.5,0.2,1.2,0.5c0.1,0,0.1,0.1,0.2,0.1c0,0.1,0.4,0.8,0,0.7c-0.9 -0.4 -1 -0.4 -1.9 -0.8C33.9,41.5,33.7,42.4,33.5,43.6M15.7,39c-0.8 -0.4 -3.6 -1.2 -4.2 -1.7c0 -0.1 -0.4 -0.8,0 -0.6c1.2,0.5,2.7,1,4,1.6c0.2,0.1,0.2,0.4,0.2,0.6C15.9,39,15.8,39,15.7,39M-0.3,43c-0.1 -0.2 -0.4 -0.7 -0.4 -0.7C-0.8,42 -0.2,41.8,0,41.7c0.3 -0.1,0.4,0.4,0.6,0.7c0.2,0.3 -0.4,0.4 -0.6,0.6C0,43 -0.2,43.2 -0.3,43M9,38.8c-0.2,0.1 -0.4,0.4 -0.6,0.2c-0.1 -0.2 -0.3 -0.5 -0.4 -0.7c-0.2,0.1 -0.5,0.3 -0.7,0.4c-0.1,0.1 -0.2,0.1 -0.3 -0.1c0,0 -0.3 -0.4 -0.5 -0.7c-0.2 -0.3,0.7 -0.6,0.9 -0.7c0.1 -0.1,0.2,0,0.2,0.1c0.1,0.2,0.2,0.3,0.4,0.6c0.3 -0.2,0.5 -0.3,0.7 -0.4c0.3 -0.1,0.5,0.5,0.7,0.7C9.6,38.6,9.2,38.6,9,38.8M12.7,41.3c0.3 -0.2,0.5 -0.4,1.4 -0.6c-0.4,0.6 -0.6,1.1 -0.7,1.2c-0.3,0.3 -0.6 -0.3 -0.8 -0.4C12.6,41.4,12.6,41.4,12.7,41.3M-8.5,40.2c-0.4,0.4 -0.3,0.9,0.2,0.4c3.5 -2.5,11.9 -3,14.5,0.9c-0.2,0.7 -0.4,1 -0.7,1.4c0,0.4,0.1,0.7,0.2,1.1c0,0.1,0.1,0.1,0.1,0C6,44,6.3,43.7,6.4,43.6c0.2 -0.4,1.1,0,1.3,0.3C7.8,44,8,44.3,8.1,44.6c0.1,0.1,0.2,0.2,0.3,0.1c0.3 -0.1,0.5 -1.5,0.6 -2.2c0.2 -0.9,0.4 -1.9,1.7 -1.8c1.3,0.1,1.4,1.2,2.3,1.8c0.3,0.2,0.6,0.3,0.8 -0.1c0.3 -0.5,0.9 -1.1,1.5 -1.2c1.1 -0.3,2.4,0.1,2.6,0.6c-0.3,1.8 -0.7,3.9 -1,5.8c0.1,0.3,0.1,0.8,0.4,1c0.1,0,0.1 -0.1,0.1 -0.2c0.3 -2.1,0.6 -3.7,0.8 -4.9c0.2 -1,0.3 -2.2,1 -2.6c1.6 -0.9,5.4 -0.6,7.6,0.3c-0.3,0.3 -0.9,0.6 -1.3,0.3c-0.2 -0.2 -0.4,0 -0.3,0.2c0.2,1,1.1,1.3,1.6,1.4c1.5,0.1,3 -0.6,1.6 -2c0.7 -0.3,1.5 -0.3,1.9,0.3c-0.4,1.7 -0.9,5.8 -1.6,7.3c-0.1,0.1,0.6,1.4,0.8,0.9c0.2 -0.5,0.4 -0.7,0.7 -1.1c0.1 -0.2 -0.3 -0.5 -0.4 -0.8c0.1 -2.3,1.5 -4.9,0.8 -7.1c-0.6 -1.2 -2.2 -1.1 -3 -0.1c-1.6 -0.8 -8.4 -2.9 -9.5,0.6c-0.5 -1 -2 -1.2 -3.2 -0.9c-0.1 -0.5 -0.2 -0.6 -0.3 -0.6c-1.4,0.1 -2.2,0.4 -2.4,1c-0.6 -1 -2.4 -1.3 -3.2 -0.4c-0.7,0.8 -0.6,2.2 -0.9,3.3c-0.3 -0.6 -0.6 -0.9 -1.5 -1.2c0.1 -0.7,0 -1.2 -0.4 -1.7c-1.9 -2.7 -5.8 -3 -8.3 -3C-5.7,37.6 -7.4,39 -8.5,40.2M23.8,46c0.1,0,3.9,1.5,4,1.6c0.1,0,0.1,0,0.1,0.1c0,0.1,0.2,0.4,0.1,0.6c-0.5,0 -1.2 -0.5 -2.1 -0.7c-0.9 -0.4 -1.7 -0.6 -2.1 -0.8c-0.1 -0.1 -0.2 -0.4 -0.2 -0.6C23.6,46,23.7,45.9,23.8,46M19.3,50.8c-0.8 -0.3 -3.3 -1.3 -4 -1.6c-0.2 -0.1 -0.2 -0.4 -0.3 -0.6c0 -0.3,0.3,0,0.5,0c1.1,0.5,3.7,1.3,3.8,1.6C19.3,50.4,19.6,51,19.3,50.8M22.6,41.8c0.1,0,0.1,0,0.2,0.1c0.5,1.2,0.2,2.6 -0.7,3.7c-0.3,0.3 -0.4 -0.4 -0.4 -0.6c0.5 -0.8,1.1 -1.7,0.9 -2.6C22.6,42.1,22.4,41.9,22.6,41.8M-2.9,44.3c1.4,0.5,4.1,1.4,4.9,1.8c0.1,0,0.1,0.2,0.2,0.3c0,0.1,0.3,0.6,0,0.5c-0.7 -0.3 -4.2 -1.4 -4.9 -1.7C-2.9,45 -2.9,44.7 -3,44.4C-3,44.3 -3,44.3 -2.9,44.3M109.4,24.5c0.3,0.6,1.1,0.5,1.6,0.3c-0.2 -0.1 -1 -0.5 -1.2 -0.6c-0.1 -0.1 -0.2 -0.2 -0.2 -0.3c0 -0.1,0.2 -0.2,0.3 -0.1c0.8,0.2,1.9,0.6,2,1.5c0,0.1 -0.3,0.2 -0.5,0.2c-0.8,0.3 -1.8,0.4 -2.2 -0.5C109.1,24.6,109.2,24.3,109.4,24.5M121.4,29.5c1.4,0,1.4,2.1,0,2.2C120,31.7,120,29.6,121.4,29.5M121.3,27.8c-0.1 -0.9,0.3 -1.7,0.4 -2.6c0.3 -1.5,0.4 -1.4,0.7 -3c0.2 -1.1,0.3 -2.2,0.4 -3.2c0 -0.2,0.1 -0.2,0.1 -0.2c0.1,0,0.1,0.1,0.2,0.2c0.5,1.4,0.2,2.9 -0.1,4.5c-0.3,1.3 -0.3,1.1 -0.5,2.3c-0.1,1 -0.6,2 -0.4,2.6c0.7,0.3,1.1,0.4,1.9,0.8c0.2,0.1,0.2,0.4,0.3,0.7c0,0.1,0,0.1,0,0.1c-0.9 -0.2 -1.6 -0.6 -2.6 -1C121.4,29.1,121.4,27.9,121.3,27.8M100,13.8c0.2,0.1,0.2,0.4,0.3,0.6c0,0.1 -0.1,0.1 -0.2,0.1c-0.8 -0.3 -3.3 -1.3 -4 -1.6c-0.2 -0.1 -0.2 -0.4 -0.3 -0.6c0 -0.1,0 -0.2,0.1 -0.1C96.7,12.6,98.7,13.4,100,13.8M104.2,19.4c-0.3,0.4 -0.3,1.2 -0.5,1.2c-0.1,0,0,0,0,0c-0.2,0 -0.5 -0.4 -0.6 -0.6C103.1,19.7,103.7,19.5,104.2,19.4M112.7,20c-1.6,0.7 -2.5,1.1 -3.7,0.5c-0.2 -0.1 -0.3,0.1 -0.3,0.3c0.5,1.3,1.6,1.7,2.7,0.9c0.5 -0.3,1.2 -0.7,2.8 -1.1c1 -0.3,1.8 -0.2,2.5 -0.3c0 -0.2 -0.2 -0.4 -0.3 -0.7c-0.1 -0.1 -0.2 -0.6 -0.5 -0.4c-1.7,0.4 -2.6,0.1 -3.8 -0.3c-2.7 -0.9 -5.2 -1.1 -6.9 -0.3c-0.1 -0.4 -0.1 -0.5 -0.2 -0.6c-0.9,0 -2.1,0.4 -2.4,1c-0.4 -0.5 -1.4 -1 -2.4 -0.8c0.1 -0.5,0 -1.4 -0.3 -2.1c-0.8 -1.5 -3.9 -2.1 -5.1 -0.7c-0.9,1.1 -0.5,2.6,0.2,3.9c0.2,0.3,0.4,0.1,0.3 -0.2c-0.3 -1 -0.8 -2 -0.1 -2.8c1.1 -1,3.3 -0.9,4.5,0.7c-0.1,1 -0.4,1.6 -0.7,2.4c0,0.1,0,1.1,0.2,1.2c0.3 -0.2,0.3 -0.8,0.5 -1c0.3 -0.4,1.4 -0.4,2.2 -0.1c0.5,0.2,0.7,0.7,0.9,1.1c0.2,0.3,0.6,0.7,1,0.6c0.3 -0.1,0.4 -0.5,0.6 -0.7c0.4 -0.6,0.8 -0.8,1.6 -1C108,19,110.9,19.5,112.7,20M118.5,19.8c-0.3,0.1 -0.5,0.2 -0.6,0.3c-0.2,0.4 -0.4,0.1 -0.5 -0.3c-0.1 -0.7,0.3 -1,0.6 -1.2c-1.1 -2.6 -3.9 -3.3 -6.4 -2c-0.4,0.1 -0.5 -0.2 -0.2 -0.4c2.7 -1.6,6.3 -1.6,7.2,2.3c2.2 -0.1,2,2,1.7,3.7c0 -0.2 -0.8,4.2 -0.8,4.2c0.1,0.2,0.3,0.3,0.4,0.5c0.1,0.1,0.1,0.2,0,0.3c-0.3,0.3 -0.5,1 -0.9,1.2c-0.3 -0.2 -0.4 -0.5 -0.6 -0.8c0 -0.3,0.1 -0.4,0.3 -0.7c0.2 -2.3,0.8 -4.3,1.2 -6.9C119.6,19.7,119,19.7,118.5,19.8M97.8,22.2c0.2,0.2 -0.5,0.5 -0.7,0.6c-0.1,0 -0.2,0.1 -0.2 -0.1c-0.1 -0.3 -0.4 -0.5 -0.4 -0.8c0.1 -0.2,0.5 -0.3,0.8 -0.5C97.4,21.3,97.6,22,97.8,22.2M101.5,25.1c1.1,0.5,2.5,1.1,3.6,1.5c0.2,0.1,0.2,0.4,0.3,0.6c0,0.1,0,0.2 -0.2,0.1c-2.2 -0.9 -2.7 -1.1 -3.5 -1.5c-0.2 -0.1 -0.2 -0.4 -0.3 -0.6C101.3,25.1,101.4,25,101.5,25.1M113.6,26.7c1.2,0.5,2.8,1.1,4.1,1.6c0.2,0.1,0.2,0.4,0.3,0.6c0,0,0,0.1,0,0.1c-0.8 -0.2 -3 -1.1 -3.9 -1.5c-0.3 -0.1 -0.4 -0.2 -0.5 -0.6C113.5,26.8,113.5,26.7,113.6,26.7M101.1,22.9c0,0.9 -0.3,1.9 -1.1,2.6c-0.2,0 -0.3 -0.5 -0.3 -0.7c0,0,0.2 -0.3,0.3 -0.5c0.6 -0.9,0.7 -1.7,0.6 -2.7C101,21.3,101.2,22.6,101.1,22.9M115.2,25.8c-0.1,0 -0.1,0 -0.2 -0.2c-0.7 -1.3,0.6 -1.9,1.2 -0.8c0.4 -0.4,1.2 -0.2,1.3,0.4c0.1,0.2,0.1,1 -0.1,1.2c-0.1,0 -0.2 -0.4 -0.3 -0.4c-0.1 -0.1,0.1 -0.4,0.1 -0.5c-0.4 -0.3 -0.7 -0.1 -0.6,0.4c0.1,0.4 -0.5,0 -0.4 -0.1c0 -0.5 -0.4 -0.9 -0.9 -0.7C115,25.2,115.4,25.6,115.2,25.8M47.3,45.9c-0.7 -1.3,0.6 -1.9,1.2 -0.8c0.4 -0.4,1.2 -0.2,1.3,0.4c0.1,0.2,0.2,1 -0.1,1.2c-0.1,0 -0.2 -0.4 -0.3 -0.4c-0.1 -0.1,0.1 -0.4,0.1 -0.5c-0.4 -0.3 -0.7 -0.1 -0.6,0.4c0.1,0.5 -0.4,0.1 -0.4 -0.1c0.1 -0.8 -1.2 -1.2 -0.8 -0.2C47.7,46,47.5,46.2,47.3,45.9M51.3,35.8c0.1,0.2,0.3,0.6,0,0.5c-0.8 -0.4 -4.3 -1.3 -5 -1.9c0 -0.1 -0.4 -0.7 -0.1 -0.7c0.4,0.1,0.9,0.4,1.3,0.5c1.2,0.4,3.1,1.1,3.6,1.3C51.2,35.5,51.2,35.7,51.3,35.8M60.7,41.1c-0.1,0.9 -0.6,2.1 -1.6,2.6C59,43.7,59,43.4,59,43.3c0 -0.3 -0.1 -0.6,0 -0.8c0.5 -0.5,1.2 -1.2,1.2 -1.7c-1.2 -2.6 -3 -3.4 -6.1 -2.6c-0.3,0.1 -0.6 -0.2 -0.1 -0.4c0.7 -0.3,2 -0.6,3.1 -0.6C59.2,37,60.9,39.3,60.7,41.1M48.4,37.9c-0.2 -0.3 -0.4 -0.5 -0.4 -0.8c0.1 -0.2,0.6 -0.4,0.9 -0.5c0.2,0.1,0.3,0.5,0.5,0.7c0,0.1,0.1,0.2,0,0.2C49.1,37.6,48.6,38.2,48.4,37.9M55.2,44.4c-0.1,0.1 -0.3,0.1 -0.3 -0.1c0 -0.3 -0.3 -0.8 -0.2 -1c0.5 -0.4,0.9 -0.9,1.1 -1.3c-3.7 -2 -14.2 -2.9 -18.6 -0.2c-0.7,0.4 -0.8,0.2 -0.4 -0.3c2.7 -3.2,7.2 -2.4,10.9 -2.4c3,0.2,5.6,0.7,7.4,1.5C57,41.4,56.6,43.3,55.2,44.4M60.6,48.1c0,0.1,0,0.2 -0.2,0.1c-0.8 -0.4 -3.5 -1.2 -4.2 -1.7c0 -0.1 -0.4 -0.8,0 -0.6c0.1,0,3.9,1.5,4,1.6C60.5,47.6,60.5,47.9,60.6,48.1M66.2,48.5c-0.1,0 -0.1,0 -0.2 -0.2c-0.7 -1.3,0.6 -1.9,1.2 -0.8c1 -0.7,1.6,0.6,1.3,1.5c-0.1,0.3 -0.3 -0.3 -0.4 -0.4c-0.1 -0.1,0.1 -0.4,0.1 -0.5c-0.4 -0.3 -0.7 -0.1 -0.6,0.4c0.1,0.5 -0.4,0.1 -0.4 -0.1c0 -0.5 -0.4 -0.9 -0.9 -0.7C66,47.9,66.4,48.3,66.2,48.5M68.1,36.9c0 -0.1,0.1 -0.2,0.2 -0.1c0.1,0,3.9,1.5,4,1.6c0.2,0,0.2,0.4,0.3,0.6c0,0.1,0,0.1,0,0.1c-0.8 -0.2 -3.4 -1.3 -4.2 -1.6C68.2,37.4,68.2,37.1,68.1,36.9M64.9,42.8c-1 -0.3 -1.9 -0.8 -2.3 -1.3c0.5 -0.2,2,0,2.3,0.2C64.9,42,64.9,42.4,64.9,42.8M70.5,41.5c-0.5,1.1 -1.2,2.5 -1.3,3.6c0.3,2.4,0.6,0.2,0.9 -0.7c0.5 -1.2,1.1 -2,0.8 -3.5c-0.3 -1.9 -1.9 -0.8 -2.6,0.2c-0.7 -1.7 -3.2 -2.6 -3.4,0c-0.8 -0.7 -0.9 -0.9 -2.7 -0.8c-0.2,0 -0.3,0.2 -0.2,0.3c0.4,1.6,1.2,2.3,2.9,2.8c0,0.2,0,0.4,0.1,0.6c0.1,0.1,0.2,0.5,0.3,0.5c0.2 -0.1,0 -0.6,0.1 -0.8c0 -1.4 -0.1 -2.4,0.3 -2.9c0.7 -0.8,2,0.2,2.3,0.9c-0.2,0.8 -0.3,2 -0.5,2.9c0,0.3,0.1,0.6,0.2,0.9c0.3,0.8,0.4 -1.1,0.5 -1.3c0.1 -0.4,0.1 -0.9,0.2 -1.3c0.2 -1.2,1 -1.6,1.6 -1.8C70.3,41.1,70.6,41.2,70.5,41.5M65.5,38.5c-0.7 -0.3 -3.7 -1.3 -4.1 -1.7c0 -0.1 -0.3 -0.7,0 -0.6c0.4,0.1,3.6,1.4,4,1.6c0.2,0.1,0.2,0.4,0.3,0.6C65.7,38.5,65.6,38.6,65.5,38.5M68.8,51.4c-0.8 -0.3 -3.4 -1.3 -4.1 -1.6c-0.1 -0.1 -0.2 -0.4 -0.2 -0.6c0 -0.1,0.1 -0.2,0.2 -0.1c0.1,0,3.9,1.5,4,1.6c0.2,0.1,0.2,0.4,0.3,0.6C69,51.4,68.9,51.4,68.8,51.4M76.9 -66.3c-0.3,1 -1,1.1 -1.2,0.2C75.9 -66.7,76.5 -66.8,76.9 -66.3M77.8 -67c-0.3 -3.6 -3.3 -4.8 -6.5 -3.6c-0.6,0.2 -0.4,0.7,0.1,0.5c1.7 -0.5,5.1,0.1,5.8,2.7c-0.4 -0.6 -1.1 -0.5 -1.5 -0.1c-0.8,0.7 -0.5,2.4,0.4,3.1c0.1,0.1,0.2,0.1,0.3,0.1l0 -0.1l0,0.1C77.5 -64.3,77.9 -66.5,77.8 -67M77.6 -60.5c-0.8 -0.4 -3.2 -1.2 -3.7 -1.6c0 -0.2 -0.4 -0.8,0 -0.7c1,0.4,2.5,1,3.6,1.5c0,0,0.1,0,0.1,0.1C77.6 -61,78 -60.4,77.6 -60.5M12.7 -49c-0.1 -0.3 -0.7 -0.9 -0.4 -1.1c0.2 -0.1,0.8 -0.6,1 -0.3c0.1,0.2,0.7,0.8,0.4,1c-0.2,0.1 -0.6,0.3 -0.8,0.5C12.9 -48.9,12.8 -48.9,12.7 -49M119.2 -13.4c0,1.4 -2.1,1.4 -2.2,0C117 -14.8,119.1 -14.8,119.2 -13.4M120.8 -14c-0.9 -0.4 -1.6 -0.6 -2.5 -1c-0.1,0 -0.1 -0.1 -0.2 -0.2c0 -0.3 -0.3 -1.2 -0.2 -1.5c0.5 -2.8,1.3 -5.5,1.4 -8.4c0 -0.2,0.1 -0.2,0.1 -0.2c0.8,1.2,0.3,3.1,0,4.7c-0.3,1.3 -0.3,1.4 -0.5,2.4c-0.1,1 -0.6,2 -0.4,2.6c0.7,0.3,1.1,0.4,1.9,0.8c0.2,0.1,0.2,0.5,0.3,0.7C121 -14,120.9 -14,120.8 -14M95.3 -25.1c1.2 -0.1,4.1,0.7,4.8,1.6c-0.3,0.5 -1.5,0.7 -2.1,0.5C97.1 -23.3,96 -24.6,95.3 -25.1M91.1 -25c-0.3,0.2 -0.2,0.5,0.2,0.3c0.6 -0.2,2.2 -0.5,3.2 -0.4c0.3,0.2,0.9,0.7,1.2,1.1c-0.1,1.5 -0.2,2.6 -0.4,3.7c-0.2,0.8 -0.2,1.8 -0.4,2.9c-0.1,0.2 -0.4,0.5 -0.3,0.8c0.1,0.2,0.3,0.8,0.5,0.8c0.1,0,0.3 -0.6,0.6 -0.8c0.2 -0.2,0.4 -0.4,0.3 -0.5c-0.1 -0.1 -0.3 -0.6 -0.4 -0.8c0.2 -1.8,0.6 -2.9,0.7 -4.8c0 -0.3,0 -0.7 -0.1 -1c0.7,0.6,1.5,1.5,2.4,1.8c0.6,0.2,2.1 -0.1,2.2 -1.1C100.7 -26.5,93.1 -27.3,91.1 -25M113.8 -23.2c-0.2,0.4 -1,0.7 -2.2,0.1c-0.7 -0.4 -1.5 -1.2 -2.1 -1.8C111.1 -25,113.3 -24.4,113.8 -23.2M116.8 -22.8c0 -0.3,0.1 -1.3 -0.7 -2c-1.2 -1 -5.6 -1.8 -7.9 -1.1c-0.2 -0.5 -0.3 -1 -0.5 -1.4c-0.2 -0.4 -0.3 -0.2 -0.3,0.1c0,0.5,0.2,1,0.4,1.5c-0.4,0.3 -0.9,0.9 -1.1,1.2c-0.7 -0.3 -2 -0.7 -2.4 -0.8c-0.5 -3.5 -3.2 -3.5 -3.4 -3.5c-1.2,0 -2.8,0.8 -3.3,1.1c-0.3,0.2 -0.3,0.4 -0.1,0.4c0.9 -0.3,1.8 -0.7,2.6 -0.7c1.6,0,2.9,0.9,3.8,2.7c-0.1,0 -0.4 -0.1 -0.5,0c0,0.3,0,1,0.3,1c0.7,0.2,2.7,0.8,3.5,1.2c0.3 -0.1,0.1 -0.8,0.1 -1c0.5 -0.3,1.3 -0.7,1.7 -0.8c1,0.7,2,2,3,2.7c0.7,0.6,2.5,0.4,2.5 -0.7c0 -0.6 -0.4 -1.4 -0.8 -1.9c0.5,0.1,2.2,0.5,2.8,1.1c-0.3,1.3 -0.8,3.9 -1.1,6.3c-0.1,0.2 -0.3,0.5 -0.4,0.7c-0.1,0.3,0.3,0.7,0.5,1c0.1,0.1,0.2,0.1,0.2,0c0.2 -0.7,0.8 -0.9,0.8 -1.2c0 -0.2 -0.3 -0.4 -0.4 -0.6c-0.2 -0.4,0.3 -1.7,0.3 -2.3C116.5 -20.8,116.7 -21.9,116.8 -22.8M101.9 -23.3c0.4,0.2,0.3,0.9,0.4,1.3c0,0.9 -0.3,2 -1.1,2.6c-0.2 -0.1 -0.3 -0.5 -0.3 -0.6c0,0,0.2 -0.3,0.3 -0.5C101.8 -21.4,101.8 -22.3,101.9 -23.3C101.8 -23.3,101.8 -23.3,101.9 -23.3M110.5 -18.5c-0.1,0 -0.1,0 -0.2 -0.2c-0.7 -1.3,0.6 -1.9,1.2 -0.8c0.4 -0.4,1.2 -0.2,1.3,0.4c0.1,0.2,0.2,0.9 -0.1,1.2c-0.1,0 -0.1,0 -0.1 -0.1c0 -0.1 -0.3 -0.4 -0.2 -0.5c0.3 -0.5 -0.2 -0.6 -0.4 -0.4c-0.2,0.1,0.1,0.9 -0.3,0.6c-0.2 -0.1 -0.2 -0.2 -0.2 -0.3c0 -0.5 -0.4 -0.9 -0.9 -0.7C110.3 -19,110.7 -18.6,110.5 -18.5M96.5 -18.7c0.7,0.3,1.8,0.7,2.6,1.1c0.2,0.1,0.5,0.1,0.7,0.3c0,0.2,0.3,0.4,0.2,0.6c-0.6 -0.1 -2.7 -1 -3.3 -1.3c-0.1,0 -0.1 -0.2 -0.2 -0.3C96.4 -18.4,96.1 -18.9,96.5 -18.7M102.5 -18.2c0 -0.2 -0.4 -0.8,0 -0.7c1.1,0.4,2.8,1.1,4,1.5c0.2,0.1,0.2,0.4,0.3,0.6c0,0.1,0,0.2 -0.2,0.2C106 -16.9,103 -17.8,102.5 -18.2M114.7 -26.9c-0.8 -0.4 -3.6 -1.2 -4.1 -1.6c0 -0.2 -0.4 -0.8,0 -0.7c1.1,0.4,2.9,1.1,4,1.5c0.2,0.1,0.2,0.4,0.3,0.6C114.9 -27,114.8 -26.9,114.7 -26.9M75.9 -1.9c-0.5,0.8 -0.7,0.8 -1.1,0.3c-0.1 -0.1 -0.1 -0.2 -0.1 -0.3C75.2 -2.4,75.6 -2.2,75.9 -1.9M70.1 -6.2c1.9 -0.3,3.3 -0.2,4.8,1.1c0.6,0.5,1.5,1.8,1.4,2.5C75.4 -4.1,74 -3,74.3 -1.7c0.1,0.8,0.5,1.6,1.1,1.7c0.5,0,0.9 -0.9,1.2 -1.6C77 -3.5,76 -5.9,74.5 -6.7c-1.2 -0.6 -3.3 -0.3 -4.5,0.1C69.6 -6.5,69.8 -6.2,70.1 -6.2M72,2.3L72,2.3C72,2.1,72.1,2,72.2,2.1c0.7,0.3,2.1,0.8,3.4,1.3c0,0,0.7,0.2,0.7,0.3c0.1,0.1,0.2,0.4,0.2,0.6c0,0.1,0,0.1 -0.1,0.1c-0.4 -0.2 -1.2 -0.5 -2 -0.8c-0.9 -0.4 -1.8 -0.6 -2.2 -0.9C72.1,2.7,72.1,2.5,72,2.3M120.1 -1.6c-0.1,0.4 -0.5,1.4 -1,1.4c-0.2 -0.1 -0.3 -1 -0.2 -1.2c0.3 -0.4,0.6 -0.9,0.8 -1.4c-0.8 -0.5 -3 -0.7 -4.7 -0.6c-1.2,0 -2.3,0.2 -2.7,1.3c-0.6,1.9 -0.5,5.1 -1,7.1c0,0.1 -0.1,0.1 -0.1,0.1c-0.2,0 -0.4 -0.8 -0.4 -1.2c0.2 -0.6,0.3 -1.7,0.4 -2.9c0.4 -2.5,0 -4.7,2.1 -5.5c1.6 -0.5,5.4,0,6.3,0.4C120.2 -3.6,120.3 -2.4,120.1 -1.6M118.3 -5.2c-0.1,0.1 -0.2,0 -0.3 -0.1c-0.3 -0.7 -0.4 -0.6 -1 -0.2c-0.1,0.1 -0.2,0.1 -0.3 -0.1c0 -0.1 -0.5 -0.6 -0.5 -0.8c0.2 -0.2,0.6 -0.4,0.9 -0.5c0.1,0,0.2,0,0.2,0.1c0.1,0.2,0.2,0.3,0.4,0.6c0.2 -0.1,0.4 -0.2,0.5 -0.3c0.1 -0.1,0.3 -0.2,0.4 -0.1c0.1,0.2,0.3,0.5,0.4,0.6c0.1,0.2,0,0.2 -0.1,0.3C118.9 -5.5,118.5 -5.3,118.3 -5.2M123.1 -7.5c-0.5 -0.2 -1 -0.2 -1.3 -0.5c-0.4 -0.9 -0.1 -0.6,0.6 -0.4c0.5,0.2,1.2,0.4,1.7,0.6c0.1,0,0.1,0.1,0.1,0.2c0,0.2,0.1,0.3,0.1,0.4C124.1 -7,123.4 -7.4,123.1 -7.5M121.6 -7.2c0 -0.1,0.1 -0.2,0.2 -0.1c0.3,0.2,1,0.4,2,0.6c0,0,0.1,0,0.2,0.4c0.1,0.1,0.1,0.3 -0.1,0.2c-0.3 -0.1 -0.5 -0.1 -0.9 -0.1c-0.4,0 -0.9,0.4 -1,0.5c0.1,0.1,0.5,0.2,0.5,0.2c0.3,0,0.3 -0.3,0.5 -0.4c0.2,0,0.3,0.5,0.3,0.5c0,0.1 -0.3,0.5 -0.5,0.5c-0.4,0 -1.1 -0.6 -1.3 -1c-0.2 -0.4,0.2 -0.6,0.5 -0.8c-0.1,0 -0.2 -0.1 -0.3 -0.2C121.6 -6.9,121.6 -7,121.6 -7.2M121.2,5.6c0,0.2 -0.3,0.3 -0.3,0c0 -0.3 -0.2 -1.1 -0.2 -1.4c0.4 -2.8,1.2 -5.5,1.4 -8.3c0 -0.2,0.1 -0.2,0.1 -0.2c0.4,0.2,0.3,1.4,0.3,1.7C122.4 -0.1,121.5,3,121.2,5.6M106.6,6.3c-0.7 -0.4 -3.2 -1.1 -3.7 -1.5c0 -0.2 -0.4 -0.8,0 -0.7c1.1,0.5,3,1,3.6,1.5C106.6,5.8,107,6.3,106.6,6.3M119.1,5.4c0,0.1,0,0.2 -0.2,0.2c-0.7 -0.3 -4.2 -1.4 -4.9 -1.7c-0.1,0 -0.1 -0.2 -0.2 -0.3c0 -0.2 -0.3 -0.5,0 -0.5c1.2,0.5,4.1,1.4,4.9,1.8C119,4.9,119,5.2,119.1,5.4M109.2 -3.8c0.9,2.2 -0.5,5.1 -0.7,7.4c0.1,0.1,0.3,0.5,0.3,0.6c0,0.2 -0.1,0.4 -0.3,0.6c-0.2,0.2 -0.4,0.8 -0.5,0.8c-0.1,0 -0.1 -0.1 -0.2 -0.1c-0.2 -0.2 -0.5 -0.8 -0.4 -1.1c0.1 -0.2,0.2 -0.4,0.3 -0.6c0.2 -1.8,0.9 -4.8,1.2 -6.6c-0.7 -0.2 -4.9 -0.8 -5.9 -0.5c-0.2,0 -0.1,0.2 -0.3,0.2c-0.3 -0.2 -0.4 -0.8 -0.3 -1c0.3 -0.5,0.4 -0.4,1.4 -0.4c1.3,0,4.1,0.3,4.8,0.5C109 -4,109.1 -4,109.2 -3.8M104.4 -0.9c-0.2,0 -0.3,0 -0.3 -0.1c0 -0.5,1 -0.5,1.4 -0.6c1 -0.1,2,1,1.6,2c-0.2,0.3 -0.6,0.3 -0.9,0.3c-0.5,0 -0.4,0.4 -0.1,0.7c0.2,0.3,0.3 -0.2,0.4 -0.2c0.1,0,0.3,0.6,0.4,0.7c0.1,0.2 -0.1,0.4 -0.2,0.5c-0.2,0.2 -0.4,0 -0.5 -0.2c-0.6 -0.6 -1.6 -2.6,0 -2.5c0.2,0,0.4,0,0.4 -0.1C105.8 -1,105.2 -1.1,104.4 -0.9M115.7,2.4c-0.1,0 -0.1,0 -0.2 -0.2c-0.7 -1.3,0.6 -1.9,1.2 -0.8c1 -0.7,1.6,0.6,1.3,1.5c0,0.1 -0.2,0.1 -0.2,0l-0.2 -0.4c-0.1 -0.1,0.1 -0.4,0.1 -0.5C117.3,1.7,117,2,117,2.5c0.1,0.4 -0.5,0 -0.4 -0.1c0 -0.5 -0.4 -0.9 -0.9 -0.7C115.6,1.8,115.9,2.3,115.7,2.4M102.8,50.1c1.4,0,1.4,2.1,0,2.2C101.4,52.2,101.4,50.1,102.8,50.1M103.3,49.5c0,0.2 -0.3,0.2 -0.3,0c0,0 -0.1 -0.4 -0.1 -0.4c0 -0.3 -0.1 -0.8 -0.1 -1c0.5 -2.8,1.3 -5.5,1.5 -8.3c0 -0.4,0.4 -0.1,0.6,0c0.6,0.2,0.7,0.3,1.5,0.6c0.2,0.1,0.2,0.4,0.3,0.7c0,0.1,0,0.1,0,0.1c-0.2,0.1 -0.9 -0.4 -1.1 -0.4c-0.8 -0.2 -1 -0.8 -0.9,0.4C104.6,43.4,103.6,47.5,103.3,49.5M82.8,40.4c-0.8,1.3 -0.8,2 -1.7,0.6C81.2,40.8,82.2,40.5,82.8,40.4M95.4,41.7c-1.3,0.4 -2,0.6 -2.8,0.6c-0.5,0 -0.9 -0.1 -1.1 -0.3c-0.2 -0.2 -0.4 -0.1 -0.3,0.2c0.5,1.5,1.7,1.7,2.8,1.1c0.9 -0.5,3.9 -1.2,5.5 -1.1c0.1,0,0.2,0,0.2 -0.1c-0.1 -0.4 -0.4 -0.8 -0.6 -1.1l0,0c0 -0.1 -0.1 -0.1 -0.2 -0.1c-0.2,0.1 -0.3,0.1 -0.5,0.1c-0.4 -1.3,1.7 -1.4,2.8 -0.5c-0.3,2 -1.1,5 -1.3,6.9c-0.3,0.3 -0.4,0.7 -0.4,0.8c0.1,0.2,0.4,0.7,0.6,1c0.1,0.1,0.3,0.1,0.3 -0.1c0.1 -0.5,0.5 -0.8,0.8 -1.2c0.1 -0.1,0 -0.1 -0.5 -0.6c0.2 -2,2 -6.9,0.7 -8c-1.7 -1.2 -4.2 -0.9 -3.3,1.7c-1.2,0.2 -2.4 -0.4 -3.8 -0.9c-2.7 -1 -7.6 -1.8 -10.3 -0.5c-0.1 -0.6 -0.1 -0.6 -0.3 -0.6c-1.6,0.2 -2.2,0.4 -2.5,0.9c-0.4 -0.7 -0.9 -1.2 -1.6 -1.2c-1.2,0 -1.8,1.2 -2.2,2.5c-0.3 -0.6 -0.5 -0.8 -0.8 -1c-1 -0.5 -3.6 -1.4 -3.1,0.6c0,0.2,0.2,0.5,0.4,0.2c0.3 -0.5,1.2 -0.2,1.7 -0.1c0.3,0.1,1.3,0.3,1.7,1c-0.3,1.2 -0.9,2.2 -0.5,3.5c0,0.2,0.2,0.2,0.2,0c0.6 -1.7,0.8 -5.6,2.9 -5.5c0.6,0.1,0.7,0.4,1,0.8c0.4,0.6,1,2.3,1.7,1.5C85.2,38.8,91.9,40.4,95.4,41.7M90.7,46.2c1.1,0.5,4,1.4,4.8,1.7c0.3,0.1,0.2,0.4,0.4,0.7c0,0.1,0,0.2 -0.1,0.2c-0.7 -0.3 -4.2 -1.4 -4.9 -1.7c-0.2 -0.1 -0.2 -0.4 -0.3 -0.7C90.6,46.2,90.6,46.2,90.7,46.2M98.4,50.7c0.3,0.6,1.1,0.5,1.6,0.3c-0.2 -0.1 -1 -0.5 -1.2 -0.6c-0.1 -0.1 -0.2 -0.2 -0.2 -0.3c0.1 -0.3,0.6,0,0.8,0c0.5,0.2,0.6,0.1,1.3,0.7c0.1,0.1,0.3,0.5,0.3,0.6c0,0.1 -0.1,0.1 -0.3,0.2c-0.4,0.1 -0.7,0.2 -1.1,0.3c-0.6,0.1 -1.2 -0.4 -1.4 -1C98.2,50.7,98.3,50.5,98.4,50.7M81.1,45.4c0.4,0.1,0.6,0.2,1,0.3c0.6,0.3,1,0.6,1.1,1.2c0,0.1 -0.1,0.1 -0.3,0.2c-0.4,0.1 -0.7,0.2 -1.1,0.3c-0.6,0.1 -1.2 -0.4 -1.4 -1c0 -0.1,0 -0.2,0.1 -0.2c0.2 -0.1,0.3,0.3,0.4,0.3c0.4,0.3,0.9,0.2,1.4,0c-0.2 -0.1 -0.9 -0.5 -1.2 -0.6C80.9,45.7,80.8,45.4,81.1,45.4M77.4,48.7c0.1,0.4 -0.1,1.3 -0.6,0.9c-0.1 -0.1 -0.2 -0.2 -0.2 -0.3c0,0 -0.1 -0.2,0 -0.2C77.1,48.9,77.1,48.8,77.4,48.7M77,48.2c-0.6,0.2 -1.2,0.2 -1,0.9c0.6,1.7,1.9,1.7,1.8 -0.3l0 -0.1c0,0,0.4 -0.1,0.4 -0.2c-0.1 -0.1 -0.1 -0.7 -0.3 -0.5c-0.1,0 -0.2,0.1 -0.3,0.1c-0.4 -0.7 -1.4 -1.6 -2.7 -2c-0.3,0 -0.2,0.3,0.1,0.4C75.3,46.6,76.5,47.5,77,48.2M56.6,74.3c-1.4,0 -1.4 -2.1,0 -2.2C58,72.2,58,74.3,56.6,74.3M57.2,70.6c0,0 -0.2,1 -0.2,1c-0.1,0.2 -0.2,0.2 -0.3,0c0 -0.4 -0.2 -1.1 -0.1 -1.5c0.5 -2.9,1.3 -5.5,1.5 -8.4c0 -0.2,0.3 -0.1,0.4,0c0.1,0.1,0.3,0.2,0.5,0.2c0.4,0.2,0.5,0.2,1.2,0.5c0.2,0.1,0.2,0.5,0.3,0.7c0,0.1 -0.1,0.2 -0.2,0.1c-0.9 -0.4 -1 -0.4 -1.9 -0.8C58.6,65,57.5,68,57.2,70.6M52.3,70.1c-0.1,0 -0.1,0 -0.2 -0.2c-0.7 -1.3,0.6 -1.9,1.2 -0.8c0.4 -0.4,1.2 -0.2,1.3,0.4c0.1,0.2,0.2,1 -0.1,1.2c-0.1,0 -0.2 -0.4 -0.3 -0.4c-0.1 -0.1,0.1 -0.4,0.1 -0.5c-0.4 -0.3 -0.7 -0.1 -0.6,0.4c0.1,0.5 -0.4,0.1 -0.4 -0.1c0 -0.5 -0.4 -0.9 -0.9 -0.7C52.2,69.5,52.5,70,52.3,70.1M48.8,63.8c0.5 -0.2,1.8 -0.1,2.1,0.1c0,0.3,0,0.7,0,1.1C49.7,64.6,49.2,64.4,48.8,63.8M50.8,65.7c0,0.2,0.1,0.4,0.1,0.6c0.1,0.1,0.1,0.5,0.3,0.5c0.1,0,0.1 -0.1,0.1 -0.2c0 -1.2 -0.1 -3,0.3 -3.4c0.7 -0.8,2,0.2,2.3,0.9c-0.1,0.9 -0.5,1.9 -0.4,2.8c0.1,0.2,0.1,0.7,0.3,0.7c0.2 -0.2,0.2 -1.1,0.3 -1.4c0.1 -0.4,0.1 -0.7,0.2 -1.1c0.2 -1.1,0.9 -1.5,1.6 -1.8c0.2,0,0.4,0,0.5,0.1c0.1,0.3 -0.3,0.8 -0.4,1.1c-0.4,0.9 -1,2 -0.6,3c0.1,0.3,0.3,0.2,0.3 -0.1c0.1 -0.7,0.3 -1.1,0.4 -1.6c0.3 -0.9,0.8 -1.4,0.8 -2.3c0 -2.2 -1.6 -1.8 -2.7 -0.4c-0.7 -1.7 -3.2 -2.7 -3.4,0c-0.8 -0.7 -0.9 -0.7 -2.5 -0.6c-0.2,0 -0.3,0.2 -0.2,0.4C48.6,64.6,49,65.2,50.8,65.7M47.9,59.7c0.8,0.3,1.9,0.7,2.7,1c0.1,0,0.1,0,0.1,0.1c0,0.2,0.3,0.6,0,0.6c-0.7 -0.3 -2.4 -0.7 -2.8 -1.1C48,60.2,47.6,59.7,47.9,59.7M55.1,73.1c0,0.1 -0.1,0.2 -0.2,0.1c-0.8 -0.3 -3.3 -1.3 -4 -1.6c-0.2 -0.1 -0.2 -0.5 -0.3 -0.6c0 -0.1,0 -0.2,0.1 -0.2c0.2,0.1,3.9,1.5,4.1,1.6C55,72.6,55,72.9,55.1,73.1M43.5,75.5c-1.4,0 -1.4 -2.1,0 -2.2C44.9,73.3,44.9,75.4,43.5,75.5M44.4,70.1c-0.2,0.9 -0.4,1.8 -0.5,2.7c-0.1,0.2 -0.3,0.1 -0.3 -0.1l-0.1 -0.9c0.3 -3,1.3 -5.8,1.5 -8.9c0 -0.2,0.3 -0.1,0.4,0c0.1,0.1,0.3,0.2,0.5,0.2c0.4,0.2,0.5,0.2,1.2,0.5c0.1,0,0.1,0.1,0.2,0.1c0,0.1,0.3,0.6,0.1,0.7c0,0 -0.1,0 -0.1,0c-0.9 -0.4 -1 -0.4 -1.9 -0.8C45.5,65.6,44.8,68,44.4,70.1M29.8,66.8c0.2,0.3 -0.4,0.5 -0.7,0.7c-0.1,0 -0.1,0 -0.2 -0.1c-0.1 -0.3 -0.4 -0.5 -0.4 -0.8c0.2 -0.2,0.5 -0.3,0.7 -0.4C29.4,65.9,29.7,66.7,29.8,66.8M32.9,63.8c0.4 -0.2,0.9 -0.4,1.3 -0.4C34.2,63.9,33.3,64.6,32.9,63.8C32.9,63.8,32.9,63.8,32.9,63.8M27.9,58.9c-6 -2.8 -16.3 -3.1 -20.7,2c-0.3,0.3 -0.4,0.9,0.3,0.4c5.7 -4.1,18.2 -4.6,23,0.8c0,0.5 -0.2,1 -0.5,1.5c-0.2,0.2,0,0.4,0,0.7c0.1,0.1,0.1,0.5,0.2,0.6c0.1,0,0.2 -0.2,0.3 -0.3c0.2 -0.3,0.3 -0.7,0.7 -0.8c0.8 -0.2,1.1,0.2,1.5,0.6c0.7,1.2,2.4,1.4,3.8,1.5c-1.7,0.9 -2.2,0.6 -2.9,0.3c-0.2 -0.1 -0.3,0 -0.3,0.2c0.2,0.8,1,1.4,1.7,1.4c1 -0.2,1.2 -0.8,2.5 -1.2c0.7 -0.3,1.5 -0.4,2.4 -0.5c0.2,0,0.2 -0.1,0.1 -0.2c-0.2 -0.3 -0.4 -0.5 -0.6 -0.8c0,0 -0.1 -0.1 -0.2,0c-1.5,0.6 -4.2,0 -4.8 -0.2c0.6 -0.6,0.7 -1.7,0.1 -2.2c-0.6 -0.4 -1.9 -0.1 -2.1,0.7c-0.3 -0.3 -0.8 -0.7 -1.4 -0.5C31.1,61.3,30,60,27.9,58.9M40.5,64.1c-0.1,0.2 -0.3,0.1 -0.3 -0.1c-0.2 -0.6,0 -1.1,0.4 -1.2c-1.2 -2.3 -3.3 -3 -5.8 -1.9c-0.3,0.1 -0.4 -0.3 -0.1 -0.4c2.8 -1.6,5.7 -1.3,6.5,2.2c1.8,0,2,1.2,1.6,3.3c-0.3,1.6 -0.7,3.4 -0.8,4.3c0.2,0.3,0.8,0.5,0.4,0.8c-0.2,0.2 -0.5,0.5 -0.6,1.1c0,0.1 -0.1,0.2 -0.1,0.2c-0.2,0 -0.2 -0.3 -0.3 -0.4c-0.2 -0.4 -0.3 -0.5 -0.3 -0.6c0.6 -1.8,0.7 -3.6,1.1 -5.5c0.1 -0.5,0.2 -1,0.3 -1.6C41.6,63.8,40.8,63.8,40.5,64.1M32.3,58.9c0,0.1,0.3,0.6,0,0.6c-0.8 -0.3 -3.3 -1.3 -4.1 -1.6c-0.2 -0.1 -0.2 -0.4 -0.3 -0.6c-0.1 -0.3,0.4,0,0.5,0c0.6,0.2,2.6,1,3.7,1.4C32.1,58.7,32.2,58.8,32.3,58.9M37.9,69.6c-0.1,0 -0.1,0 -0.2 -0.2c-0.7 -1.3,0.6 -1.9,1.2 -0.8c1 -0.7,1.6,0.6,1.3,1.5c0,0.1 -0.2,0.1 -0.2,0l-0.2 -0.4c-0.1 -0.1,0.1 -0.4,0.1 -0.5c-0.4 -0.3 -0.7 -0.1 -0.7,0.4c0,0.1,0,0.2,0,0.2c-0.1,0.1 -0.4 -0.2 -0.4 -0.3c0 -0.5 -0.4 -0.9 -0.9 -0.7C37.8,69,38.1,69.5,37.9,69.6M40.6,73.4c-0.8 -0.3 -3.3 -1.3 -4 -1.6c-0.1,0 -0.1 -0.1 -0.1 -0.1c0,0 -0.1 -0.3 -0.1 -0.5c0 -0.1,0 -0.1,0.1 -0.1c0.9,0.4,2.7,1.1,4.1,1.6c0.2,0.1,0.2,0.4,0.3,0.6C40.7,73.4,40.7,73.4,40.6,73.4M30.1,70.4c0 -0.1,0 -0.2,0.1 -0.1c0.9,0.4,2.7,1.1,4.1,1.6c0.2,0.1,0.2,0.4,0.3,0.6c0,0.1,0,0.1 -0.1,0.1c-0.8 -0.3 -3.3 -1.3 -4.1 -1.6C30.2,70.9,30.2,70.5,30.1,70.4M31.6,65.4c0.6,1.2,0.2,2.8 -0.8,3.8c-0.2,0 -0.3 -0.5 -0.3 -0.7c0.6 -0.8,1.1 -1.9,0.9 -2.9C31.3,65.3,31.4,65.2,31.6,65.4M33.7,69.8c-0.2 -0.3 -0.1 -0.6,0.1 -0.4c0.3,0.6,1.1,0.5,1.6,0.3c-0.2 -0.1 -1 -0.5 -1.2 -0.6c-0.3 -0.1 -0.2 -0.5,0.1 -0.4c0.8,0.3,1,0.2,1.7,0.8c0.1,0.1,0.3,0.5,0.3,0.6c0,0.1 -0.3,0.1 -0.5,0.2C35.1,70.6,34.1,70.7,33.7,69.8M25,73.6c1.4,0,1.4,2.1,0,2.2C23.6,75.7,23.6,73.6,25,73.6M4,63.9c0.3 -0.2,0.5 -0.3,1.2 -0.4c-0.4,0.7 -0.3,1.1 -0.7,1.2c-0.3,0 -0.6 -0.6 -0.6 -0.6C3.9,64,4,64,4,63.9M0.4,60.4c1.5,0.8,2.4,1.4,3.4,2.4c-0.9,0.9,0.7,3.7,1.7,2c1.2 -1.6,2.8 -1.5,4.6 -1.3c1.1,0.3,1.8,0.5,2.4,1.1c0.3,0.5,0.4 -0.2,0.3 -0.5c0.9 -0.8,2.9,0.2,4.2,0.7c-1.5,0.5 -3,0.9 -3.8,0.3c-0.2 -0.2 -0.3,0 -0.3,0.2c0.3,1.3,1.6,1.7,2.7,1.1c0.8 -0.5,3.1 -1,4.4 -0.9c0.2,0,0.8,0.1,0.7 -0.2c-0.2 -0.3 -0.4 -0.6 -0.5 -1c0 -0.1 -0.1 -0.1 -0.1 -0.1c-2.5,0.8 -4 -1.3 -6.3 -1.4c-0.5,0 -0.8,0.3 -1.2,0.7C11,62.2,8,61.8,6.2,62.6C6.1,62.2,6,62.1,6,62.1c-0.7,0.1 -1.2,0.3 -1.6,0.4l-0.2,0.1c-0.5 -1.5 -3.1 -2.4 -3.8 -2.5C0.2,60.1,0.1,60.3,0.4,60.4M16.3,61.3c-0.3,0.1 -0.5 -0.2 -0.2 -0.4c2.7 -1.6,5.8 -1.2,6.5,2.2c0.4,0,0.9,0.2,1.2,0.3c1,0.6,0.6,2.5,0.3,3.6l-0.7,3.7c0.1,0.2,0.6,0.6,0.4,0.8c-0.1,0.1 -0.4,0.8 -0.7,1.3c0,0.1,0,0.1 -0.1,0.1c-0.2 -0.1 -0.5 -0.6 -0.6 -0.8c-0.1 -0.3,0.2 -0.6,0.3 -1c0.2 -2.2,0.8 -4.1,1.2 -6.5c-0.6 -0.4 -1.6 -0.4 -1.8 -0.2c-0.2,0.2 -0.4,0.1 -0.4 -0.3c-0.1 -0.6,0.1 -0.9,0.4 -1C21.1,60.9,18.7,60.2,16.3,61.3M14.8,61.9c0,0 -0.1,0 -0.1 -0.1c0 -0.2 -0.4 -0.7,0 -0.6c0.6,0.2,2.7,1.1,3.2,1.3c0.2,0.1,0.2,0.4,0.3,0.6c0,0.1,0,0.1,0,0.1C17.3,63,15.5,62.1,14.8,61.9M25.6,72.1c0,0.3 -0.2,0.9 -0.2,0.9c-0.1,0.3 -0.3,0.2 -0.3,0c0 -0.2 -0.1 -0.7 -0.1 -0.9c0.3 -3,1.3 -5.8,1.5 -8.9c0 -0.2,0.3 -0.1,0.4,0c0.1,0.1,0.4,0.2,0.5,0.2c0.4,0.2,0.5,0.2,1.2,0.5c0.3,0.1,0.2,0.3,0.3,0.7c0,0.1 -0.1,0.2 -0.2,0.1c-0.9 -0.4 -1 -0.4 -1.9 -0.8C27.1,66.5,26,69.5,25.6,72.1M5.5,60.7c-0.7 -0.3 -2.5 -1 -3.2 -1.3c-0.2 -0.1 -0.2 -0.5 -0.3 -0.6c0 -0.1,0.1 -0.2,0.2 -0.1c0.9,0.3,2.4,1,3.2,1.3c0.1,0,0.1,0,0.1,0.1C5.5,60.2,5.8,60.7,5.5,60.7M17.5,70.2c0.2,0.1,3.9,1.5,4.1,1.6c0.2,0.1,0.2,0.4,0.3,0.6c0,0.1 -0.1,0.2 -0.2,0.1c-0.8 -0.3 -3.3 -1.3 -4 -1.6c-0.2 -0.1 -0.2 -0.4 -0.3 -0.6C17.4,70.2,17.4,70.2,17.5,70.2M19.3,69.3c-0.1,0 -0.1,0 -0.2 -0.2c-0.7 -1.3,0.6 -1.9,1.2 -0.8c1 -0.8,1.6,0.6,1.3,1.5c0,0.1 -0.2,0.1 -0.2,0l-0.2 -0.4c-0.1 -0.1,0.1 -0.4,0.1 -0.5c-0.4 -0.3 -0.7 -0.1 -0.7,0.4c0,0.1,0,0.2,0,0.2c-0.1,0.1 -0.4 -0.2 -0.4 -0.3c0 -0.5 -0.4 -0.9 -0.9 -0.7C19.2,68.8,19.5,69.2,19.3,69.3M11.6,60.2c0.1,0.1,0.2,0.3,0.4,0.6c0.3 -0.2,0.5 -0.3,0.7 -0.4c0.3 -0.1,0.5,0.6,0.7,0.7c0.2,0.3 -0.2,0.4 -0.5,0.6c-0.2,0.1 -0.4,0.4 -0.6,0.2c-0.1 -0.2 -0.3 -0.5 -0.4 -0.7c-0.2,0.1 -0.5,0.3 -0.7,0.4c-0.1,0.1 -0.2,0.1 -0.3 -0.1c0,0 -0.3 -0.4 -0.4 -0.7c-0.1 -0.3,0.6 -0.5,0.8 -0.7C11.5,60.1,11.6,60.1,11.6,60.2"/>
		</g>
	</g>
</g>
</svg>