<?xml version="1.0" encoding="UTF-8"?>
<svg xmlns="http://www.w3.org/2000/svg" xmlns:ayah="https://quranpedia.net" version="1.1" viewBox="0 0 235 235" xml:space="preserve"><polygon class="ayahPolygon" id="verse-31151" number="002001" ayah="1" surah="2" points="210,35 30,35 30,70 230,70 230,102 174,102 174,70 210,70"/><polygon class="ayahPolygon" id="verse-31152" number="002002" ayah="2" surah="2" points="174,70 8,70 8,102 230,102 230,132 111,132 111,102 174,102"/><polygon class="ayahPolygon" id="verse-31153" number="002003" ayah="3" surah="2" points="111,102 8,102 8,132 230,132 230,164 6,164 6,132 111,132"/><polygon class="ayahPolygon" id="verse-31154" number="002004" ayah="4" surah="2" points="210,164 28,164 28,196 165,196 165,230 70,230 70,196 210,196"/></svg>