<svg xmlns="http://www.w3.org/2000/svg" version="1.1" viewBox="-5.0 -10.0 110.0 135.0">
 <path d="m35.914 52.555c-0.42578-0.085938-0.84766-0.19141-1.2617-0.32031v-0.63672c1.2617 0.22266 2.5703 0.33594 3.9297 0.33984 1.3789 0 2.8086-0.11328 4.2852-0.34766v0.63672c-0.43359 0.11719-0.85938 0.21875-1.2852 0.30078-0.011719 0-0.023437 0.003906-0.035156 0.007812-1.0156 0.19531-2.0039 0.29297-2.9688 0.28906-0.89453-0.003907-1.7695-0.089844-2.6211-0.25781-0.015625-0.003906-0.03125-0.007812-0.046875-0.007812zm0.28516 0.71484v4.5273l5.1016-1.4453v-3.1133c-0.92578 0.15625-1.832 0.23438-2.7188 0.23438-0.8125 0-1.6055-0.070312-2.3828-0.20312zm0.53516-5.9062c-0.69531 0.0625-1.3867 0.16016-2.082 0.29688v3.2773c0.67969 0.125 1.375 0.21484 2.082 0.27344zm6.1328 3.5664v-3.2656c-0.67969-0.11719-1.3555-0.21094-2.0312-0.27734v3.7969c0.66406-0.058594 1.3438-0.14453 2.0312-0.25781zm-5.4805-3.6133v3.9375c0.39453 0.019532 0.79297 0.03125 1.1953 0.03125 0.52344 0 1.0586-0.015625 1.6016-0.050781v-3.8984c-0.47656-0.03125-0.94922-0.050782-1.4258-0.054688-0.45703-0.003906-0.91406 0.007812-1.3711 0.035156zm-6.4492 38.285 1.8047 0.34766v-1.8438l-1.8047-0.27344v1.7734zm10.742-3.1797-6.0508-0.65625v2.1211l2.9492 0.44922c0.007813 0 0.019531 0.003906 0.027344 0.003906l3.0742 0.46875zm-6.7031-0.73047-4.0391-0.4375v1.9141l2.168 0.32812c0.007812 0 0.015625 0.003906 0.027343 0.003906l1.8438 0.28125zm0.32422 2.8125c-0.050781 0-0.10156-0.011718-0.14453-0.035156l-1.7617-0.26953v1.8711l4.8203 0.92578v-2.0625l-2.8633-0.43359c-0.015624 0.003906-0.03125 0.003906-0.050781 0.003906zm0.89844-53.422v14.23c0.85547-0.15625 1.707-0.22656 2.5625-0.21484 0.84766 0.011719 1.6953 0.097656 2.5391 0.25391v-14.289c-0.92188 0.19141-1.8164 0.28516-2.6875 0.28516-0.82812 0-1.6328-0.089844-2.4141-0.26172zm0.86328 15.602c0.56641-0.039063 1.1328-0.054688 1.6992-0.050782 0.58203 0.003907 1.1641 0.03125 1.7461 0.078126 0.019532 0 0.039063 0 0.058594 0.003906 0.76953 0.0625 1.5352 0.16406 2.3008 0.29297v-0.61719c-0.42578-0.125-0.85156-0.23047-1.2773-0.32031-0.019532-0.003906-0.039063-0.007812-0.054688-0.011718-0.92578-0.19141-1.8516-0.30078-2.7773-0.3125-0.92969-0.011719-1.8594 0.074218-2.7891 0.27734l-0.046875 0.011718c-0.42188 0.09375-0.84375 0.20703-1.2656 0.34766v0.61719c0.78516-0.14844 1.5703-0.25 2.3594-0.30859 0.015625-0.003906 0.035156-0.003906 0.050781-0.003906zm2.4727-17.5v-2.4648c-0.26172-0.011719-0.51953-0.019531-0.78125-0.019531-0.30078 0-0.60156 0.003906-0.90234 0.015625v2.4727c0.25391 0.007812 0.50781 0.015625 0.76172 0.015625 0.30469 0 0.60938-0.003906 0.91797-0.019531zm15.621 39.156c0.82422 0.49219 1.7266 0.76172 2.6094 0.83984 0.88281 0.082031 1.75-0.027344 2.5039-0.28516 0.70703-0.24219 1.3125-0.61719 1.7188-1.0938l-9.4102-2.6055v0.035157c0.58594 1.4648 1.5156 2.4766 2.5781 3.1094zm-13.586-38.008c0.125-0.03125 0.25391-0.0625 0.37891-0.097656v-0.60938c-0.69922 0.09375-1.3828 0.15625-2.0547 0.19141h-0.035156c-0.42188 0.023438-0.83594 0.03125-1.2461 0.03125-1.0547 0-2.0742-0.074218-3.0508-0.21875v0.61328c0.125 0.039062 0.25 0.070312 0.375 0.10547 0.015625 0.003906 0.027344 0.007813 0.039062 0.011719 0.85156 0.21875 1.7305 0.33203 2.6406 0.33203 0.94141 0.003906 1.9141-0.11328 2.9258-0.35547 0.011719-0.003907 0.019531-0.003907 0.03125-0.007813zm0.37891-3.3789c-0.58594-0.085937-1.1758-0.15234-1.7617-0.19531v2.3906c0.57422-0.039063 1.1641-0.097657 1.7617-0.17969v-2.0195zm-4.2031-11.012c0.24609 0 0.48438-0.03125 0.71484-0.09375v3.3008l-1.0625 1.0039v4.4727c0.35547-0.042969 0.71484-0.0625 1.0703-0.070312h0.035156 0.25 0.035156c0.44141 0.007812 0.87891 0.039062 1.3203 0.09375v-4.6719l-1-0.875v-3.5273c0.23047-0.12891 0.44922-0.28125 0.63672-0.46875 0.51172-0.51172 0.82812-1.2188 0.82812-1.9961 0-0.78125-0.31641-1.4844-0.82812-1.9961-0.35938-0.35938-0.82031-0.625-1.3359-0.75 0.18359 0.15625 0.33984 0.33984 0.47266 0.54297 0.25391 0.39453 0.39844 0.85938 0.39844 1.3633 0 0.69531-0.28125 1.3281-0.73828 1.7852-0.45703 0.45703-1.0898 0.73828-1.7852 0.73828-0.42578 0-0.82812-0.10547-1.1836-0.29297-0.15234-0.082031-0.29297-0.17578-0.42578-0.28516 0.17187 0.40625 0.44141 0.76562 0.77344 1.0469 0.49219 0.41797 1.1289 0.67188 1.8281 0.67188zm4.2031 9.7617c-0.51172-0.14844-1.0273-0.26562-1.5391-0.34766-0.019531 0-0.039062-0.003907-0.058594-0.007813-0.52734-0.082031-1.0508-0.12891-1.5781-0.13672h-0.023438-0.25-0.023438c-0.44531 0.007812-0.88672 0.042968-1.332 0.10937-0.015625 0.003907-0.03125 0.007813-0.050781 0.007813-0.51172 0.078125-1.0234 0.19922-1.5352 0.36719v0.59375c0.63672-0.10156 1.2773-0.16797 1.9141-0.20312 0.015625-0.003907 0.03125-0.003907 0.046875-0.003907h0.011719c0.40625-0.023437 0.8125-0.03125 1.2188-0.027343 0.36328 0.003906 0.73047 0.015624 1.0938 0.035156h0.011719c0.015625 0 0.03125 0 0.046875 0.003906 0.67969 0.039062 1.3594 0.10938 2.0391 0.20703v-0.59375zm-6.3867 1.2422v2.0273c0.53516 0.082032 1.082 0.14062 1.6367 0.17969v-2.4023c-0.54688 0.039062-1.0898 0.10547-1.6367 0.19531zm25.586 60.586 4.9688-1.2031v-2.6484l-4.9688 1.2148zm5.6211-1.3594 2.293-0.55469v-2.6523l-2.293 0.5625v2.6484zm-9.2734-3.5938-4.9141 0.93359v2.8164l2.6797-0.65625c0.015625-0.007813 0.035156-0.011719 0.054687-0.011719l2.1797-0.53516zm-1.8047 6.2773 4.8047-1.1641v-2.6328l-4.8047 1.1758zm8.0898-7.4727-5.6328 1.0664v2.5117l2.5703-0.62891c0.015625-0.003906 0.035156-0.011719 0.054688-0.011719l3.0117-0.73828v-2.1992zm1.6484-10.805c0.48437 0.10938 0.99609 0.10547 1.4922 0.003906 0.67578-0.13672 1.3203-0.45312 1.8438-0.90625l-5.7852-1.6016c0.24609 0.81641 0.63672 1.4141 1.1172 1.832 0.39844 0.34375 0.85547 0.5625 1.332 0.67188zm-12.848-16.527v6.5664l16.48 5.2461v-5.918l-16.48-5.8984zm11.852 29.375 1.9062-0.46484c0.015625-0.003907 0.035156-0.011719 0.054687-0.011719l2.6719-0.65234v-1.9102l-4.6289 0.87891v2.1641zm0.85547-12.215c-0.58203-0.12891-1.1367-0.39453-1.6172-0.8125-0.55078-0.47656-1.0039-1.1523-1.2891-2.0547-0.48047 0.51172-1.1367 0.91406-1.8984 1.1719-0.83203 0.28516-1.793 0.40625-2.7734 0.31641-0.98047-0.089843-1.9766-0.38672-2.8867-0.92969-0.85547-0.51172-1.6367-1.2422-2.2422-2.2227v16.172l5.1562-0.97656c0.015625-0.003906 0.03125-0.007812 0.046875-0.007812l6.2422-1.1836c0.015625-0.003906 0.03125-0.007813 0.046875-0.007813l4.9922-0.94531v-9.4492c-0.58594 0.46875-1.2852 0.79688-2.0156 0.94531-0.58203 0.11719-1.1836 0.12109-1.7578-0.007812zm-18.465-1.7617c1.3359-0.32422 2.5273-1.1641 3.543-2.3789 0.45312-0.53906 0.86719-1.1523 1.2461-1.8281l-10.941 2.3984c0.58594 0.44531 1.1562 0.8125 1.7109 1.0977 1.6211 0.83984 3.1133 1.0312 4.4453 0.70703zm1.2734 16.988-2.1719-0.33203v2.3672l6.0039 1.1523v-2.6055l-3.7461-0.57031c-0.03125 0-0.058594-0.003907-0.085938-0.011719zm0.41797-0.59375 3.4141 0.51953v-2.832l-3.4141-0.37109zm-0.65234-2.7539-5.5312-0.59766v2.4102l3.3047 0.50391c0.007812 0 0.019531 0.003906 0.027343 0.003906l2.1992 0.33594zm-0.88672-13.012c-1.4844 0.35938-3.125 0.15625-4.8945-0.76172-0.67578-0.35156-1.3672-0.80469-2.0781-1.3711-0.29688 0.42578-0.61328 0.81641-0.94531 1.1719-1.1289 1.1914-2.4375 1.9297-3.7695 2.1758-1.3477 0.25-2.7188-0.003907-3.9453-0.79688-0.13672-0.085938-0.26953-0.17969-0.40234-0.28125v10.387l4.375 0.47266c0.015625 0 0.03125 0.003906 0.046875 0.003906l6.6602 0.72266c0.015624 0 0.03125 0.003907 0.046874 0.003907l6.1367 0.66406c0.015625 0 0.03125 0.003906 0.042969 0.003906l3.6836 0.39844v-16.887c-0.32812 0.54297-0.68359 1.043-1.0625 1.4961-1.1016 1.3164-2.4102 2.2344-3.8867 2.5938zm-8.1094 17.043 6.4062 1.2266v-2.3398l-6.4062-0.97266zm2.832-30.203-5.7148 1.6172c-0.011719 0.003906-0.027344 0.007813-0.042969 0.011719l-5.0039 1.418v5.5781l20.992-4.9453v-6.5781l-10.188 2.8867c-0.011719 0.003906-0.027344 0.007812-0.039063 0.011719zm10.883 32.688 2.457-0.59375v-2.6172l-2.457 0.60156zm-17.414-18.953c1.1992-0.22266 2.3867-0.89453 3.418-1.9805 0.20703-0.21875 0.40625-0.45312 0.60156-0.70703l-7.8672 1.7227c0.12109 0.09375 0.24609 0.17969 0.37109 0.26172 1.0859 0.69922 2.293 0.92188 3.4766 0.70312z"/>
<text x="0.0" y="117.5" font-size="5.0" font-weight="bold" font-family="Arbeit Regular, Helvetica, Arial-Unicode, Arial, Sans-serif" fill="#000000"></text><text x="0.0" y="122.5" font-size="5.0" font-weight="bold" font-family="Arbeit Regular, Helvetica, Arial-Unicode, Arial, Sans-serif" fill="#000000"></text></svg>